{"glyphs":{"0":{"ha":806,"x_min":70,"x_max":753,"o":"m 753 606 q 720 334 753 450 q 632 141 688 218 q 503 27 577 65 q 349 -10 430 -10 q 236 15 288 -10 q 148 89 185 40 q 91 214 111 139 q 70 388 70 288 q 102 660 70 544 q 190 853 135 776 q 318 968 245 930 q 474 1006 392 1006 q 585 981 534 1006 q 674 906 637 956 q 732 781 711 856 q 753 606 753 706 m 630 613 q 617 747 630 691 q 581 837 603 802 q 527 889 558 872 q 461 905 496 905 q 362 877 410 905 q 276 786 314 849 q 216 625 239 724 q 193 381 193 525 q 206 247 193 303 q 242 157 219 192 q 295 106 265 122 q 360 90 326 90 q 460 118 411 90 q 546 207 508 145 q 607 369 584 269 q 630 613 630 469 z "},"1":{"ha":806,"x_min":142,"x_max":647,"o":"m 647 91 l 635 0 l 142 0 l 153 91 l 349 91 l 433 779 q 437 808 435 793 q 442 838 440 822 l 265 685 q 246 676 255 678 q 230 675 237 674 q 217 681 222 677 q 208 689 211 685 l 178 741 l 482 997 l 580 997 l 469 91 l 647 91 z "},"2":{"ha":806,"x_min":41,"x_max":729,"o":"m 626 113 q 656 102 646 113 q 663 72 666 90 l 655 0 l 41 0 l 46 41 q 54 67 47 53 q 74 92 61 81 l 405 414 q 489 500 451 460 q 552 582 526 541 q 592 664 578 622 q 606 756 606 706 q 595 820 606 792 q 565 866 584 847 q 521 893 547 884 q 465 903 495 903 q 401 892 431 903 q 346 860 371 881 q 303 813 322 840 q 274 751 284 785 q 249 720 263 728 q 210 716 234 712 l 149 726 q 198 847 166 794 q 274 934 231 899 q 371 988 318 969 q 484 1006 424 1006 q 583 989 538 1006 q 660 942 628 973 q 711 867 693 911 q 729 767 729 823 q 710 650 729 703 q 659 550 691 597 q 584 459 626 503 q 493 369 541 415 l 215 96 q 273 108 244 103 q 328 113 302 113 l 626 113 z "},"3":{"ha":806,"x_min":64,"x_max":725,"o":"m 151 726 q 200 847 168 794 q 276 934 233 899 q 373 988 320 969 q 486 1006 426 1006 q 584 990 540 1006 q 660 944 628 974 q 708 874 691 915 q 725 783 725 833 q 711 684 725 727 q 673 610 698 642 q 613 556 648 578 q 533 522 577 535 q 650 446 611 499 q 689 318 689 394 q 660 182 689 242 q 584 78 632 121 q 474 12 537 35 q 344 -11 412 -11 q 222 9 272 -11 q 141 64 173 28 q 91 146 109 99 q 64 248 73 193 l 118 269 q 159 274 140 278 q 183 252 177 270 q 199 206 190 233 q 226 153 208 178 q 275 109 244 127 q 355 91 306 91 q 445 111 406 91 q 513 163 485 131 q 555 235 540 194 q 569 317 569 275 q 559 376 569 349 q 524 424 549 403 q 459 455 500 444 q 357 467 418 467 l 367 553 q 548 610 490 556 q 606 760 606 665 q 596 822 606 795 q 567 867 585 849 q 523 894 549 885 q 467 903 497 903 q 402 892 433 903 q 348 860 372 881 q 305 813 323 840 q 276 751 286 785 q 250 720 264 728 q 212 716 236 712 l 151 726 z "},"4":{"ha":806,"x_min":38,"x_max":731,"o":"m 490 358 l 542 776 q 547 809 543 792 q 554 847 550 827 l 165 358 l 490 358 m 731 358 l 722 289 q 713 270 721 278 q 693 263 706 263 l 583 263 l 551 0 l 447 0 l 478 263 l 74 263 q 52 271 60 263 q 42 290 44 278 l 38 351 l 561 995 l 673 995 l 594 358 l 731 358 z "},"5":{"ha":806,"x_min":60,"x_max":731,"o":"m 731 994 l 724 942 q 703 901 721 917 q 647 884 685 884 l 365 884 l 290 619 q 359 632 326 628 q 422 635 392 635 q 535 616 486 635 q 616 561 584 596 q 665 478 649 526 q 681 376 681 431 q 651 217 681 288 q 569 94 621 145 q 449 16 517 44 q 304 -11 381 -11 q 227 -2 263 -11 q 160 20 191 6 q 105 53 130 35 q 60 92 79 72 l 103 144 q 137 160 117 160 q 165 150 150 160 q 201 126 180 139 q 252 102 222 113 q 324 92 281 92 q 421 112 377 92 q 495 168 465 132 q 543 254 526 204 q 560 363 560 303 q 549 433 560 401 q 516 488 538 465 q 461 523 494 510 q 385 535 428 535 q 313 529 351 535 q 235 510 276 523 l 163 531 l 294 994 l 731 994 z "},"6":{"ha":741,"x_min":83,"x_max":709,"o":"m 360 88 q 451 107 410 88 q 523 159 493 126 q 570 237 553 192 q 588 335 588 282 q 576 411 588 377 q 542 468 564 444 q 490 504 521 491 q 421 517 459 517 q 331 497 372 517 q 260 444 290 477 q 214 366 231 410 q 197 272 197 322 q 208 198 197 232 q 239 140 219 165 q 290 102 260 115 q 360 88 321 88 m 363 621 q 338 590 350 605 q 315 562 326 576 q 388 596 349 584 q 472 608 428 608 q 565 591 522 608 q 640 541 608 574 q 691 461 672 508 q 709 353 709 414 q 682 210 709 276 q 606 94 654 143 q 493 17 558 45 q 351 -11 427 -11 q 239 9 288 -11 q 155 68 189 30 q 102 159 120 106 q 83 277 83 212 q 92 363 83 321 q 120 447 101 404 q 167 533 139 489 q 235 625 196 577 l 508 965 q 536 986 518 978 q 575 994 554 994 l 681 994 l 363 621 z "},"7":{"ha":806,"x_min":127,"x_max":790,"o":"m 790 994 l 784 941 q 774 904 781 919 q 761 878 767 889 l 283 42 q 256 12 272 24 q 213 0 239 0 l 127 0 l 609 826 q 655 884 631 860 l 181 884 q 162 893 169 884 q 156 914 155 902 l 166 994 l 790 994 z "},"8":{"ha":806,"x_min":72,"x_max":723,"o":"m 360 84 q 449 100 410 84 q 517 146 489 117 q 559 217 544 176 q 574 308 574 258 q 561 382 574 351 q 524 431 547 412 q 471 459 501 451 q 408 468 441 468 q 331 457 369 468 q 263 419 293 445 q 214 350 233 393 q 195 246 195 308 q 206 181 195 210 q 238 130 217 151 q 290 96 259 108 q 360 84 321 84 m 463 913 q 383 897 418 913 q 325 854 349 881 q 290 791 302 827 q 278 713 278 754 q 285 657 278 683 q 310 609 293 630 q 354 576 327 589 q 419 564 381 564 q 501 580 466 564 q 559 624 536 597 q 594 689 583 652 q 606 767 606 726 q 597 824 606 797 q 570 870 588 851 q 525 902 552 890 q 463 913 499 913 m 544 518 q 658 441 619 494 q 697 308 697 388 q 671 175 697 234 q 598 75 644 116 q 488 11 552 33 q 349 -11 424 -11 q 235 7 286 -11 q 147 57 183 24 q 91 135 111 89 q 72 237 72 181 q 126 420 72 349 q 284 520 181 492 q 192 596 223 547 q 161 713 161 646 q 185 828 161 774 q 250 921 208 881 q 349 983 292 960 q 474 1006 406 1006 q 578 988 532 1006 q 656 938 624 969 q 706 865 688 907 q 723 774 723 823 q 677 616 723 682 q 544 518 632 549 z "},"9":{"ha":806,"x_min":127,"x_max":731,"o":"m 249 669 q 289 546 249 590 q 403 501 330 501 q 492 520 452 501 q 559 570 531 539 q 602 644 587 602 q 617 731 617 685 q 606 802 617 770 q 574 858 594 835 q 524 894 553 881 q 460 906 495 906 q 375 889 414 906 q 308 840 336 872 q 264 765 280 809 q 249 669 249 722 m 472 398 q 502 435 488 417 q 529 470 516 453 q 445 425 490 441 q 351 410 400 410 q 264 426 305 410 q 193 475 224 443 q 145 552 163 506 q 127 655 127 597 q 154 792 127 728 q 227 903 181 856 q 337 978 274 951 q 473 1006 400 1006 q 581 985 533 1006 q 662 928 629 965 q 713 841 695 892 q 731 731 731 791 q 720 635 731 679 q 692 550 710 592 q 645 468 673 509 q 583 381 618 426 l 319 28 q 292 8 309 16 q 253 0 274 0 l 144 0 l 472 398 z "},"\u0000":{"ha":0,"x_min":0,"x_max":0,"o":""}," ":{"ha":325,"x_min":0,"x_max":0,"o":""},"A":{"ha":876,"x_min":-45,"x_max":818,"o":"m 602 369 l 511 781 q 503 824 508 799 q 494 877 498 849 q 474 824 484 848 q 455 780 463 799 l 263 369 l 602 369 m 818 0 l 718 0 q 691 9 701 0 q 677 31 681 17 l 623 274 l 218 274 l 104 31 q 85 9 98 19 q 56 0 72 0 l -45 0 l 442 995 l 574 995 l 818 0 z "},"Ą":{"ha":876,"x_min":-45,"x_max":850,"o":"m 602 369 l 511 781 q 503 824 508 799 q 494 877 498 849 q 474 824 484 848 q 455 780 463 799 l 263 369 l 602 369 m 850 -201 q 797 -227 828 -217 q 733 -237 766 -237 q 650 -213 678 -237 q 621 -149 621 -189 q 650 -67 621 -105 q 728 0 680 -29 l 718 0 q 691 9 701 0 q 677 31 681 17 l 623 274 l 218 274 l 104 31 q 85 9 98 19 q 56 0 72 0 l -45 0 l 442 995 l 574 995 l 818 0 l 806 0 q 775 -20 791 -8 q 747 -46 760 -31 q 726 -78 735 -60 q 718 -115 718 -95 q 731 -150 718 -137 q 767 -163 744 -163 q 790 -161 781 -163 q 807 -155 800 -158 q 817 -149 813 -152 q 825 -147 822 -147 q 836 -156 833 -147 l 850 -201 z "},"Æ":{"ha":1205,"x_min":-46,"x_max":1214,"o":"m 599 369 l 599 889 q 578 842 589 864 q 556 799 568 819 l 304 369 l 599 369 m 721 889 l 721 553 l 1076 553 l 1064 451 l 721 451 l 721 106 l 1106 106 l 1092 0 l 599 0 l 599 274 l 249 274 l 106 31 q 85 9 99 19 q 55 0 72 0 l -46 0 l 551 995 l 1214 995 l 1201 889 l 721 889 z "},"B":{"ha":836,"x_min":68,"x_max":781,"o":"m 406 103 q 503 117 461 103 q 572 159 544 132 q 613 224 599 186 q 627 310 627 263 q 583 416 627 376 q 449 455 539 455 l 253 455 l 210 103 l 406 103 m 308 893 l 265 547 l 426 547 q 524 561 482 547 q 594 603 566 576 q 636 667 622 630 q 650 750 650 705 q 607 857 650 822 q 474 893 564 893 l 308 893 m 485 995 q 618 980 563 995 q 710 935 674 964 q 764 865 747 906 q 781 773 781 824 q 768 689 781 729 q 730 614 756 648 q 666 553 705 580 q 576 511 628 527 q 711 441 666 491 q 756 313 756 391 q 731 186 756 244 q 660 88 706 129 q 546 23 613 46 q 395 0 479 0 l 68 0 l 190 995 l 485 995 z "},"C":{"ha":867,"x_min":68,"x_max":882,"o":"m 470 101 q 551 108 516 101 q 614 127 587 116 q 660 152 641 138 q 693 176 679 165 q 717 195 708 188 q 735 203 727 203 q 745 200 741 203 q 752 194 749 198 l 797 138 q 647 28 732 67 q 449 -11 562 -11 q 289 21 359 -11 q 169 110 218 53 q 94 247 120 167 q 68 421 68 326 q 108 658 68 551 q 219 843 149 766 q 385 964 290 921 q 590 1006 480 1006 q 685 997 642 1006 q 764 971 728 988 q 828 929 799 953 q 882 875 857 905 l 838 821 q 825 809 832 814 q 808 805 818 805 q 781 819 795 805 q 743 849 767 833 q 682 879 719 865 q 583 893 644 893 q 432 861 502 893 q 311 768 363 828 q 230 623 260 708 q 201 431 201 538 q 221 293 201 354 q 277 189 241 232 q 362 124 313 147 q 470 101 411 101 z "},"Ç":{"ha":867,"x_min":68,"x_max":882,"o":"m 413 -10 q 268 31 332 -3 q 159 122 203 65 q 92 255 115 178 q 68 421 68 331 q 108 658 68 551 q 219 843 149 766 q 385 964 290 921 q 590 1006 480 1006 q 685 997 642 1006 q 764 971 728 988 q 828 929 799 953 q 882 875 857 905 l 838 821 q 825 809 832 814 q 808 805 818 805 q 781 819 795 805 q 743 849 767 833 q 682 879 719 865 q 583 893 644 893 q 432 861 502 893 q 311 768 363 828 q 230 623 260 708 q 201 431 201 538 q 221 293 201 354 q 277 189 241 232 q 362 124 313 147 q 470 101 411 101 q 551 108 516 101 q 614 127 587 116 q 660 152 641 138 q 693 176 679 165 q 717 195 708 188 q 735 203 727 203 q 745 200 741 203 q 752 194 749 198 l 797 138 q 661 34 738 73 q 484 -10 584 -4 l 467 -53 q 544 -86 520 -65 q 568 -140 568 -108 q 557 -185 568 -165 q 524 -219 545 -206 q 475 -241 503 -233 q 413 -248 447 -248 q 364 -242 387 -248 q 322 -226 341 -236 l 339 -188 q 356 -176 344 -176 q 365 -178 360 -176 q 376 -184 369 -181 q 391 -189 382 -187 q 413 -192 400 -192 q 456 -178 441 -192 q 470 -145 470 -165 q 445 -111 470 -122 q 376 -95 421 -101 l 413 -10 z "},"D":{"ha":983,"x_min":68,"x_max":932,"o":"m 932 567 q 893 336 932 440 q 784 157 853 231 q 619 41 715 82 q 411 0 524 0 l 68 0 l 190 995 l 534 995 q 699 964 626 995 q 825 876 773 933 q 904 741 876 819 q 932 567 932 662 m 798 565 q 779 700 798 640 q 725 802 760 760 q 638 867 689 844 q 522 890 586 890 l 308 890 l 211 105 l 424 105 q 576 136 507 105 q 694 227 644 168 q 770 372 743 287 q 798 565 798 457 z "},"Ð":{"ha":990,"x_min":10,"x_max":940,"o":"m 433 105 q 585 136 517 105 q 703 227 653 168 q 779 372 752 287 q 806 565 806 457 q 787 700 806 640 q 733 802 768 760 q 646 867 697 844 q 530 890 594 890 l 317 890 l 274 540 l 515 540 l 506 463 l 265 463 l 221 105 l 433 105 m 542 995 q 708 964 634 995 q 833 876 781 933 q 912 741 885 819 q 940 567 940 662 q 900 336 940 440 q 792 157 861 231 q 628 41 723 82 q 421 0 533 0 l 77 0 l 134 463 l 10 463 l 19 540 l 143 540 l 199 995 l 542 995 z "},"E":{"ha":747,"x_min":68,"x_max":757,"o":"m 308 889 l 267 553 l 619 553 l 606 451 l 254 451 l 212 106 l 649 106 l 635 0 l 68 0 l 190 995 l 757 995 l 744 889 l 308 889 z "},"Ę":{"ha":747,"x_min":68,"x_max":757,"o":"m 308 889 l 267 553 l 619 553 l 606 451 l 254 451 l 212 106 l 649 106 l 635 0 l 589 0 q 559 -20 574 -8 q 531 -46 543 -31 q 510 -78 518 -60 q 501 -115 501 -95 q 515 -150 501 -137 q 550 -163 528 -163 q 574 -161 564 -163 q 590 -155 583 -158 q 601 -149 597 -152 q 608 -147 605 -147 q 619 -156 617 -147 l 633 -201 q 580 -227 611 -217 q 516 -237 549 -237 q 433 -213 462 -237 q 404 -149 404 -189 q 434 -67 404 -105 q 511 0 463 -29 l 68 0 l 190 995 l 757 995 l 744 889 l 308 889 z "},"F":{"ha":736,"x_min":68,"x_max":757,"o":"m 308 889 l 265 535 l 637 535 l 623 429 l 251 429 l 199 0 l 68 0 l 190 995 l 757 995 l 744 889 l 308 889 z "},"G":{"ha":945,"x_min":68,"x_max":914,"o":"m 589 476 l 874 476 l 827 97 q 750 49 790 69 q 666 16 710 29 q 572 -5 622 2 q 466 -11 523 -11 q 302 21 376 -11 q 176 111 228 53 q 96 250 124 169 q 68 426 68 331 q 108 661 68 555 q 218 845 148 768 q 386 964 289 922 q 597 1006 483 1006 q 702 997 656 1006 q 788 969 749 987 q 857 928 826 952 q 914 877 888 905 l 872 823 q 848 805 862 808 q 818 811 833 801 q 784 834 803 820 q 740 861 766 849 q 676 884 713 874 q 588 893 640 893 q 431 860 502 893 q 309 767 360 828 q 230 622 258 707 q 201 431 201 536 q 222 290 201 353 q 280 184 242 228 q 370 117 317 140 q 488 94 423 94 q 555 98 524 94 q 614 109 586 102 q 667 127 642 117 q 717 152 692 138 l 744 377 l 606 377 q 586 384 593 377 q 581 402 579 392 l 589 476 z "},"H":{"ha":986,"x_min":68,"x_max":938,"o":"m 938 995 l 815 0 l 684 0 l 740 454 l 254 454 l 199 0 l 68 0 l 190 995 l 321 995 l 266 549 l 751 549 l 806 995 l 938 995 z "},"Ħ":{"ha":1000,"x_min":66,"x_max":1028,"o":"m 782 721 l 297 721 l 276 549 l 761 549 l 782 721 m 1019 721 l 913 721 l 824 0 l 694 0 l 749 454 l 264 454 l 208 0 l 78 0 l 166 721 l 66 721 l 75 799 l 176 799 l 200 995 l 331 995 l 306 799 l 792 799 l 816 995 l 947 995 l 923 799 l 1028 799 l 1019 721 z "},"I":{"ha":370,"x_min":68,"x_max":320,"o":"m 199 0 l 68 0 l 190 995 l 320 995 l 199 0 z "},"Į":{"ha":370,"x_min":-6,"x_max":320,"o":"m 178 0 q 148 -20 164 -8 q 120 -46 133 -31 q 99 -78 108 -60 q 91 -115 91 -95 q 104 -150 91 -137 q 140 -163 117 -163 q 163 -161 153 -163 q 180 -155 173 -158 q 190 -149 186 -152 q 198 -147 194 -147 q 209 -156 206 -147 l 223 -201 q 170 -227 201 -217 q 106 -237 139 -237 q 23 -213 51 -237 q -6 -149 -6 -189 q 23 -67 -6 -105 q 101 0 53 -29 l 68 0 l 190 995 l 320 995 l 199 0 l 178 0 z "},"J":{"ha":556,"x_min":-25,"x_max":516,"o":"m 434 330 q 398 184 424 247 q 330 77 372 120 q 234 11 289 33 q 110 -11 178 -11 q 40 -6 72 -11 q -25 8 8 -1 l -16 84 q -8 102 -14 94 q 13 110 -1 110 q 29 108 20 110 q 49 104 38 106 q 75 100 60 101 q 110 98 90 98 q 178 110 147 98 q 236 149 210 122 q 279 219 261 176 q 304 327 297 263 l 386 995 l 516 995 l 434 330 z "},"K":{"ha":858,"x_min":68,"x_max":903,"o":"m 265 557 l 311 557 q 351 564 335 557 q 381 586 367 570 l 726 964 q 756 989 740 983 q 793 995 772 995 l 903 995 l 506 565 q 452 521 478 533 q 482 502 469 514 q 505 472 494 491 l 805 0 l 693 0 q 657 7 667 0 q 639 28 647 15 l 378 425 q 353 450 367 442 q 310 457 340 457 l 253 457 l 197 0 l 68 0 l 190 995 l 319 995 l 265 557 z "},"L":{"ha":660,"x_min":68,"x_max":604,"o":"m 604 110 l 591 0 l 68 0 l 190 995 l 320 995 l 211 110 l 604 110 z "},"Ł":{"ha":683,"x_min":6,"x_max":626,"o":"m 626 110 l 613 0 l 90 0 l 137 386 l 6 320 l 17 409 q 36 436 18 428 l 151 496 l 212 995 l 342 995 l 288 559 l 543 692 l 533 606 q 512 576 529 584 l 274 450 l 233 110 l 626 110 z "},"Ľ":{"ha":660,"x_min":68,"x_max":612,"o":"m 592 1023 q 608 1018 604 1023 q 612 1006 612 1013 q 609 988 612 999 q 599 958 607 978 q 576 906 591 938 q 536 822 561 873 q 517 802 528 807 q 490 798 506 798 l 449 798 l 513 1023 l 592 1023 m 604 110 l 591 0 l 68 0 l 190 995 l 320 995 l 211 110 l 604 110 z "},"M":{"ha":1198,"x_min":68,"x_max":1149,"o":"m 1149 995 l 1026 0 l 913 0 l 1003 735 q 1009 766 1006 749 q 1016 801 1012 783 l 628 175 q 578 145 610 145 l 559 145 q 532 153 544 145 q 516 175 521 160 l 276 801 q 274 768 275 784 q 272 738 274 751 l 183 0 l 68 0 l 190 995 l 286 995 q 311 991 303 995 q 328 973 319 986 l 569 347 q 578 319 574 333 q 585 291 581 306 q 599 319 592 306 q 614 347 606 333 l 1006 973 q 1026 991 1017 987 q 1053 995 1035 995 l 1149 995 z "},"N":{"ha":986,"x_min":68,"x_max":938,"o":"m 938 995 l 815 0 l 750 0 q 724 6 734 0 q 706 24 715 12 l 276 785 q 274 759 275 772 q 272 736 274 747 l 183 0 l 68 0 l 190 995 l 258 995 q 283 991 275 995 q 299 973 290 987 l 728 213 q 731 243 730 228 q 733 270 732 258 l 823 995 l 938 995 z "},"Ŋ":{"ha":986,"x_min":68,"x_max":937,"o":"m 818 32 l 815 3 q 791 -100 808 -53 q 743 -180 773 -147 q 671 -231 713 -212 q 573 -249 629 -249 q 517 -243 542 -249 q 466 -224 493 -237 l 485 -172 q 499 -152 491 -157 q 515 -148 507 -148 q 536 -153 524 -148 q 573 -158 549 -158 q 658 -122 626 -158 q 699 -10 690 -85 l 703 28 l 275 779 q 273 748 274 763 q 270 718 272 732 l 182 0 l 68 0 l 190 994 l 257 994 q 282 990 274 994 q 299 972 290 986 l 731 216 q 732 250 731 233 q 735 281 733 266 l 823 994 l 937 994 l 819 32 l 818 32 z "},"O":{"ha":1035,"x_min":68,"x_max":986,"o":"m 986 568 q 947 335 986 441 q 838 152 908 228 q 673 32 768 75 q 465 -10 577 -10 q 300 22 373 -10 q 175 113 226 55 q 95 251 123 171 q 68 426 68 331 q 108 659 68 553 q 217 843 147 766 q 383 963 288 920 q 590 1006 478 1006 q 755 973 682 1006 q 880 882 828 940 q 959 743 931 824 q 986 568 986 663 m 853 565 q 833 702 853 641 q 778 807 814 764 q 691 874 742 850 q 574 897 639 897 q 424 864 492 897 q 306 770 356 831 q 229 623 256 709 q 201 429 201 536 q 220 292 201 353 q 276 188 240 231 q 363 122 312 145 q 479 99 415 99 q 631 131 562 99 q 749 225 699 164 q 825 372 798 285 q 853 565 853 458 z "},"Ø":{"ha":1035,"x_min":32,"x_max":1020,"o":"m 313 152 q 388 112 347 126 q 479 99 429 99 q 631 131 562 99 q 749 225 699 164 q 825 372 798 285 q 853 565 853 458 q 841 677 853 626 q 805 769 828 728 l 313 152 m 755 831 q 674 880 719 863 q 574 897 629 897 q 424 864 492 897 q 306 770 356 831 q 229 623 256 709 q 201 429 201 536 q 216 307 201 362 q 260 210 231 252 l 755 831 m 888 873 q 961 737 935 815 q 986 568 986 660 q 947 335 986 441 q 838 152 908 228 q 673 32 768 75 q 465 -10 577 -10 q 340 7 397 -10 q 237 57 283 24 l 161 -38 q 123 -67 144 -58 q 84 -76 103 -76 l 32 -76 l 178 108 q 97 248 125 167 q 68 426 68 328 q 108 659 68 553 q 217 843 147 766 q 383 963 288 920 q 590 1006 478 1006 q 723 986 663 1006 q 832 928 784 965 l 894 1006 q 908 1021 901 1015 q 920 1032 914 1028 q 935 1038 927 1036 q 953 1040 942 1040 l 1020 1040 l 888 873 z "},"Œ":{"ha":1402,"x_min":69,"x_max":1412,"o":"m 447 95 q 586 129 523 95 q 694 226 649 163 q 765 376 740 288 q 790 572 790 464 q 773 707 790 646 q 726 810 757 767 q 649 877 694 853 q 547 901 604 901 q 408 866 471 901 q 299 769 344 832 q 228 618 253 706 q 203 422 203 530 q 219 288 203 348 q 267 185 236 228 q 344 118 299 142 q 447 95 390 95 m 965 889 l 924 553 l 1274 553 l 1262 451 l 911 451 l 869 106 l 1303 106 l 1290 0 l 740 0 l 760 158 q 611 34 697 78 q 422 -10 526 -10 q 274 22 340 -10 q 164 111 209 54 q 94 246 118 167 q 69 419 69 325 q 106 655 69 547 q 206 841 142 763 q 357 963 269 919 q 545 1006 444 1006 q 725 955 650 1006 q 840 815 799 903 l 863 995 l 1412 995 l 1399 889 l 965 889 z "},"P":{"ha":781,"x_min":68,"x_max":773,"o":"m 400 476 q 504 494 459 476 q 580 545 549 513 q 626 622 610 577 q 642 719 642 667 q 631 792 642 760 q 595 846 619 824 q 535 881 572 869 q 451 893 499 893 l 307 893 l 256 476 l 400 476 m 464 995 q 601 976 543 995 q 698 923 660 958 q 754 840 735 888 q 773 731 773 791 q 747 587 773 653 q 673 474 722 522 q 552 400 624 427 q 388 374 480 374 l 243 374 l 197 0 l 68 0 l 190 995 l 464 995 z "},"Þ":{"ha":778,"x_min":68,"x_max":751,"o":"m 378 292 q 482 310 437 292 q 558 361 527 328 q 604 438 588 393 q 620 535 620 483 q 573 661 620 616 q 428 707 526 707 l 284 707 l 233 292 l 378 292 m 442 809 q 579 790 521 809 q 675 737 637 772 q 732 655 713 703 q 751 547 751 606 q 725 403 751 469 q 650 290 699 338 q 529 216 601 242 q 365 190 458 190 l 221 190 l 197 0 l 68 0 l 190 995 l 319 995 l 297 809 l 442 809 z "},"Q":{"ha":1035,"x_min":68,"x_max":986,"o":"m 201 429 q 220 292 201 353 q 276 188 240 231 q 363 122 312 145 q 479 99 415 99 q 631 131 562 99 q 749 225 699 164 q 825 372 798 285 q 853 565 853 458 q 833 702 853 641 q 778 807 814 764 q 691 874 742 850 q 574 897 639 897 q 424 864 492 897 q 306 770 356 831 q 229 623 256 709 q 201 429 201 536 m 623 14 q 465 -10 548 -10 q 300 22 373 -10 q 175 113 226 55 q 95 251 123 171 q 68 426 68 331 q 108 659 68 553 q 217 843 147 766 q 383 963 288 920 q 590 1006 478 1006 q 755 973 682 1006 q 880 882 828 940 q 959 743 931 824 q 986 568 986 663 q 968 409 986 484 q 918 270 951 334 q 840 154 886 206 q 736 67 793 103 l 938 -206 l 833 -206 q 791 -199 808 -206 q 759 -176 773 -192 l 623 14 z "},"R":{"ha":810,"x_min":68,"x_max":759,"o":"m 388 512 q 492 528 447 512 q 568 575 537 545 q 614 647 599 606 q 630 738 630 688 q 582 853 630 813 q 440 893 535 893 l 308 893 l 260 512 l 388 512 m 451 995 q 589 978 531 995 q 684 931 647 962 q 741 856 722 900 q 759 758 759 812 q 741 645 759 697 q 689 552 723 593 q 607 482 655 511 q 499 440 559 453 q 535 397 521 424 l 750 0 l 635 0 q 586 28 599 0 l 399 386 q 378 410 390 403 q 340 417 366 417 l 249 417 l 197 0 l 68 0 l 190 995 l 451 995 z "},"S":{"ha":706,"x_min":9,"x_max":682,"o":"m 644 841 q 629 826 636 831 q 613 821 622 821 q 588 833 601 821 q 554 859 574 845 q 504 886 533 874 q 431 898 475 898 q 352 884 387 898 q 293 846 317 870 q 257 790 269 822 q 244 722 244 758 q 261 661 244 685 q 305 618 278 636 q 367 587 332 601 q 438 559 402 574 q 509 528 474 545 q 572 485 544 510 q 615 423 599 459 q 632 335 632 387 q 608 202 632 265 q 538 92 583 139 q 428 17 492 44 q 283 -11 363 -11 q 124 24 194 -11 q 9 119 54 59 l 55 181 q 69 193 60 188 q 87 198 77 198 q 115 182 100 198 q 154 148 131 167 q 213 113 178 128 q 299 97 247 97 q 386 113 347 97 q 451 155 424 128 q 492 220 478 182 q 507 303 507 258 q 490 367 507 342 q 447 410 474 392 q 385 440 419 427 q 314 466 350 453 q 243 496 278 479 q 181 538 208 513 q 138 601 154 564 q 121 694 121 639 q 143 811 121 755 q 207 910 165 867 q 309 979 249 953 q 444 1005 369 1005 q 581 976 520 1005 q 682 896 642 947 l 644 841 z "},"Ş":{"ha":706,"x_min":9,"x_max":682,"o":"m 644 841 q 629 826 636 831 q 613 821 622 821 q 588 833 601 821 q 554 859 574 845 q 504 886 533 874 q 431 898 475 898 q 352 884 387 898 q 293 846 317 870 q 257 790 269 822 q 244 722 244 758 q 261 661 244 685 q 305 618 278 636 q 367 587 332 601 q 438 559 402 574 q 509 528 474 545 q 572 485 544 510 q 615 423 599 459 q 632 335 632 387 q 610 209 632 269 q 548 102 588 149 q 449 26 507 56 q 318 -10 391 -3 l 301 -53 q 378 -86 354 -65 q 402 -140 402 -108 q 391 -185 402 -165 q 358 -219 379 -206 q 309 -241 338 -233 q 247 -248 281 -248 q 198 -242 221 -248 q 156 -226 175 -236 l 173 -188 q 190 -176 178 -176 q 199 -178 194 -176 q 210 -184 203 -181 q 225 -189 216 -187 q 247 -192 234 -192 q 290 -178 275 -192 q 304 -145 304 -165 q 280 -111 304 -122 q 210 -95 255 -101 l 247 -10 q 110 31 171 -3 q 9 119 49 65 l 55 181 q 69 193 60 188 q 87 198 77 198 q 115 182 100 198 q 154 148 131 167 q 213 113 178 128 q 299 97 247 97 q 386 113 347 97 q 451 155 424 128 q 492 220 478 182 q 507 303 507 258 q 490 367 507 342 q 447 410 474 392 q 385 440 419 427 q 314 466 350 453 q 243 496 278 479 q 181 538 208 513 q 138 601 154 564 q 121 694 121 639 q 143 811 121 755 q 207 910 165 867 q 309 979 249 953 q 444 1005 369 1005 q 581 976 520 1005 q 682 896 642 947 l 644 841 z "},"T":{"ha":758,"x_min":76,"x_max":808,"o":"m 794 886 l 501 886 l 392 0 l 263 0 l 371 886 l 76 886 l 89 995 l 808 995 l 794 886 z "},"Ŧ":{"ha":783,"x_min":89,"x_max":820,"o":"m 514 886 l 477 591 l 683 591 l 674 515 l 468 515 l 404 0 l 275 0 l 338 515 l 129 515 l 138 591 l 347 591 l 383 886 l 89 886 l 101 995 l 820 995 l 807 886 l 514 886 z "},"U":{"ha":951,"x_min":94,"x_max":913,"o":"m 436 102 q 539 124 492 102 q 621 183 585 145 q 679 274 656 221 q 709 389 701 326 l 783 995 l 913 995 l 839 389 q 794 230 828 303 q 705 103 759 157 q 579 19 651 49 q 422 -12 508 -12 q 273 19 338 -12 q 168 103 209 49 q 111 230 127 157 q 105 389 94 303 l 178 995 l 308 995 l 234 390 q 236 274 226 327 q 272 183 246 222 q 339 124 297 145 q 436 102 380 102 z "},"Ų":{"ha":950,"x_min":94,"x_max":913,"o":"m 913 995 l 839 389 q 802 249 829 315 q 732 132 774 184 q 632 45 689 81 q 507 -3 575 10 q 477 -23 492 -12 q 449 -49 461 -35 q 428 -81 436 -64 q 419 -118 419 -99 q 433 -153 419 -140 q 468 -167 446 -167 q 492 -164 482 -167 q 508 -159 501 -162 q 519 -153 515 -156 q 526 -150 523 -150 q 538 -159 535 -150 l 551 -205 q 498 -231 529 -221 q 434 -241 467 -241 q 351 -217 380 -241 q 322 -152 322 -192 q 348 -76 322 -111 q 416 -12 374 -40 q 269 20 333 -10 q 166 105 206 51 q 110 232 126 159 q 105 389 94 304 l 178 995 l 308 995 l 234 390 q 236 274 226 327 q 272 183 246 222 q 339 124 297 145 q 436 102 380 102 q 539 124 492 102 q 621 183 585 145 q 679 274 656 221 q 709 389 701 326 l 783 995 l 913 995 z "},"V":{"ha":874,"x_min":76,"x_max":939,"o":"m 939 995 l 444 0 l 327 0 l 76 995 l 180 995 q 207 986 197 995 q 219 964 217 977 l 386 253 q 397 204 392 231 q 405 148 401 177 q 425 204 415 177 q 447 253 435 231 l 787 964 q 805 985 792 976 q 835 995 818 995 l 939 995 z "},"W":{"ha":1326,"x_min":87,"x_max":1376,"o":"m 1376 995 l 968 0 l 851 0 l 716 766 q 713 790 715 777 q 710 817 711 803 q 700 790 705 803 q 691 766 695 777 l 367 0 l 251 0 l 87 995 l 189 995 q 217 986 206 995 q 228 964 227 978 l 336 260 q 339 220 338 242 q 342 177 340 199 q 357 221 349 200 q 372 260 364 242 l 669 964 q 687 985 674 976 q 716 995 699 995 l 746 995 q 773 986 763 995 q 787 964 783 978 l 911 260 q 917 222 915 242 q 921 179 919 201 q 933 222 927 201 q 946 260 940 242 l 1226 964 q 1243 985 1229 976 q 1274 995 1258 995 l 1376 995 z "},"X":{"ha":846,"x_min":-47,"x_max":876,"o":"m 528 537 l 790 0 l 674 0 q 652 8 660 0 q 640 25 644 16 l 438 460 q 425 438 433 448 l 125 25 q 105 6 116 11 q 82 0 94 0 l -47 0 l 348 531 l 115 995 l 232 995 q 252 990 246 995 q 264 976 258 985 l 442 601 q 449 613 445 607 q 456 626 452 619 l 709 975 q 724 990 717 985 q 742 995 731 995 l 876 995 l 528 537 z "},"Y":{"ha":808,"x_min":74,"x_max":875,"o":"m 467 398 l 417 0 l 288 0 l 337 397 l 74 995 l 189 995 q 216 987 206 995 q 231 965 226 978 l 395 566 q 416 491 408 526 q 434 527 424 509 q 456 566 444 546 l 720 965 q 739 986 728 976 q 767 995 751 995 l 875 995 l 467 398 z "},"Z":{"ha":772,"x_min":-18,"x_max":801,"o":"m 795 953 q 789 936 794 944 q 779 919 785 928 l 172 106 l 683 106 l 669 0 l -18 0 l -12 41 q -7 58 -11 51 q 3 74 -3 66 l 612 889 l 116 889 l 129 995 l 801 995 l 795 953 z "},"a":{"ha":710,"x_min":35,"x_max":652,"o":"m 523 617 q 493 622 508 621 q 463 623 478 623 q 383 609 422 623 q 310 572 344 596 q 248 514 276 547 q 200 440 220 480 q 169 354 181 399 q 158 260 158 308 q 265 93 158 93 q 332 114 299 93 q 394 173 365 135 q 449 263 424 211 q 493 376 474 315 l 523 617 m 476 185 q 422 105 451 141 q 361 43 393 69 q 293 4 328 18 q 219 -10 257 -10 q 143 7 177 -10 q 85 55 109 23 q 48 132 61 86 q 35 238 35 178 q 50 360 35 301 q 95 472 66 419 q 164 569 124 525 q 254 645 204 613 q 360 695 303 678 q 480 713 417 713 q 568 706 525 713 q 652 681 610 699 l 568 0 l 504 0 q 471 13 480 0 q 463 43 463 25 l 476 185 z "},"ą":{"ha":710,"x_min":35,"x_max":653,"o":"m 524 617 q 493 622 508 621 q 464 623 478 623 q 383 609 422 623 q 310 572 344 596 q 249 514 276 547 q 201 440 221 480 q 170 354 181 399 q 159 260 159 308 q 266 93 159 93 q 333 114 300 93 q 395 173 365 135 q 449 263 424 211 q 494 376 474 315 l 524 617 m 555 0 q 525 -20 540 -8 q 497 -46 509 -31 q 476 -78 484 -60 q 467 -115 467 -95 q 481 -150 467 -137 q 516 -163 494 -163 q 540 -161 530 -163 q 556 -155 549 -158 q 567 -149 563 -152 q 574 -147 571 -147 q 585 -156 583 -147 l 599 -201 q 546 -227 577 -217 q 482 -237 515 -237 q 399 -213 428 -237 q 370 -149 370 -189 q 378 -105 370 -126 q 402 -64 387 -83 q 438 -28 417 -45 q 483 4 458 -10 q 467 20 472 10 q 463 43 463 30 l 476 185 q 423 105 451 141 q 361 43 394 69 q 293 4 329 18 q 219 -10 258 -10 q 144 7 178 -10 q 86 55 110 23 q 49 132 62 86 q 35 238 35 178 q 51 360 35 301 q 95 472 67 419 q 165 569 124 525 q 255 645 205 613 q 361 695 304 678 q 481 713 418 713 q 568 706 526 713 q 653 681 611 699 l 569 0 l 555 0 z "},"æ":{"ha":1031,"x_min":13,"x_max":972,"o":"m 430 333 q 289 317 347 329 q 195 283 231 304 q 144 234 160 263 q 128 171 128 206 q 156 97 128 121 q 228 73 183 73 q 296 86 264 73 q 355 124 328 99 q 399 189 381 150 q 423 278 417 227 l 430 333 m 752 625 q 676 609 710 625 q 617 565 642 594 q 574 495 592 536 q 549 403 557 454 q 698 421 639 408 q 791 451 756 433 q 839 491 825 469 q 853 538 853 513 q 827 601 853 578 q 752 625 801 625 m 972 130 q 903 67 937 94 q 834 24 869 41 q 760 -1 799 7 q 677 -10 722 -10 q 549 30 605 -10 q 467 149 494 69 q 414 75 444 106 q 348 26 383 45 q 276 -2 313 6 q 206 -11 240 -11 q 63 30 113 -11 q 13 155 13 72 q 35 249 13 204 q 108 328 58 294 q 239 384 158 363 q 439 408 320 405 l 444 450 q 428 575 455 533 q 340 617 402 617 q 269 606 299 617 q 218 580 240 594 q 179 555 196 566 q 147 543 163 543 q 127 549 135 543 q 114 565 119 556 l 98 603 q 220 688 158 660 q 353 715 281 715 q 471 682 429 715 q 528 590 513 649 q 630 681 570 648 q 767 713 690 713 q 844 700 809 713 q 906 665 880 688 q 947 611 932 642 q 961 544 961 580 q 942 467 961 505 q 875 400 923 430 q 747 352 828 371 q 542 331 665 333 q 541 317 541 324 q 541 303 541 310 q 583 141 541 195 q 701 88 626 88 q 760 94 734 88 q 807 111 787 101 q 843 134 828 122 q 872 156 859 146 q 896 173 885 166 q 918 180 907 180 q 931 177 925 180 q 942 168 936 174 l 972 130 z "},"b":{"ha":734,"x_min":41,"x_max":678,"o":"m 180 154 q 243 102 206 117 q 318 86 281 86 q 386 101 354 86 q 444 143 418 117 q 491 204 471 169 q 526 279 512 239 q 548 361 541 319 q 556 446 556 404 q 526 572 556 528 q 442 615 497 615 q 375 594 409 615 q 309 536 341 573 q 250 448 277 499 q 202 336 222 397 l 180 154 m 225 525 q 282 603 251 568 q 345 662 312 638 q 415 700 378 687 q 488 714 451 714 q 628 649 578 714 q 678 458 678 583 q 667 344 678 401 q 633 235 655 287 q 580 139 611 183 q 511 61 549 94 q 429 9 474 28 q 336 -10 385 -10 q 235 14 280 -10 q 160 81 190 38 l 150 36 q 136 9 144 18 q 106 0 128 0 l 41 0 l 165 1023 l 285 1023 l 225 525 z "},"c":{"ha":631,"x_min":40,"x_max":601,"o":"m 568 126 q 499 60 532 87 q 434 18 467 34 q 366 -3 401 3 q 291 -10 331 -10 q 183 11 230 -10 q 105 70 136 32 q 57 161 73 108 q 40 278 40 214 q 67 442 40 363 q 142 581 94 520 q 256 677 190 641 q 401 713 322 713 q 518 689 471 713 q 601 617 565 664 l 562 570 q 551 561 557 565 q 538 558 545 558 q 518 566 528 558 q 494 586 509 575 q 456 605 478 597 q 398 614 433 614 q 308 588 350 614 q 233 517 265 562 q 183 410 201 472 q 165 277 165 348 q 174 199 165 234 q 203 139 184 164 q 251 101 223 115 q 317 88 279 88 q 395 101 363 88 q 448 132 426 115 q 484 162 469 148 q 514 176 499 176 q 538 164 527 176 l 568 126 l 568 126 z "},"ç":{"ha":631,"x_min":40,"x_max":601,"o":"m 562 570 q 551 561 557 565 q 538 558 545 558 q 518 566 528 558 q 494 586 509 575 q 456 605 478 597 q 398 614 433 614 q 308 588 350 614 q 233 517 265 562 q 183 410 201 472 q 165 277 165 348 q 174 199 165 234 q 203 139 184 164 q 251 101 223 115 q 317 88 279 88 q 395 101 363 88 q 448 132 426 115 q 484 162 469 148 q 514 176 499 176 q 538 164 527 176 l 568 126 q 506 65 535 90 q 446 25 476 40 q 386 1 417 9 q 320 -9 355 -7 l 303 -53 q 380 -86 356 -65 q 404 -140 404 -108 q 393 -185 404 -165 q 360 -219 381 -206 q 311 -241 340 -233 q 249 -248 283 -248 q 200 -242 223 -248 q 158 -226 177 -236 l 175 -188 q 192 -176 180 -176 q 201 -178 197 -176 q 212 -184 206 -181 q 227 -189 218 -187 q 249 -192 236 -192 q 292 -178 277 -192 q 306 -145 306 -165 q 282 -111 306 -122 q 212 -95 257 -101 l 251 -7 q 160 23 199 0 q 94 84 121 47 q 54 170 67 121 q 40 278 40 219 q 67 442 40 363 q 142 581 94 520 q 256 677 190 641 q 401 713 322 713 q 518 689 471 713 q 601 617 565 664 l 562 570 z "},"d":{"ha":735,"x_min":38,"x_max":717,"o":"m 538 550 q 474 602 511 588 q 399 617 437 617 q 300 585 344 617 q 225 500 256 552 q 178 385 194 449 q 161 259 161 321 q 191 133 161 176 q 275 90 220 90 q 342 110 308 90 q 408 168 376 131 q 467 256 440 206 q 515 367 494 307 l 538 550 m 717 1023 l 591 0 l 526 0 q 494 13 502 0 q 485 43 485 25 l 499 191 q 441 108 472 145 q 375 45 410 72 q 304 5 341 19 q 228 -10 267 -10 q 88 56 138 -10 q 38 247 38 122 q 50 360 38 303 q 84 469 62 417 q 136 566 106 522 q 206 644 167 611 q 288 695 244 676 q 381 714 332 714 q 475 693 433 714 q 548 635 518 673 l 596 1023 l 717 1023 z "},"ď":{"ha":735,"x_min":38,"x_max":898,"o":"m 878 1023 q 894 1018 890 1023 q 898 1006 898 1013 q 895 988 898 999 q 885 958 893 978 q 862 906 877 938 q 822 822 847 873 q 803 802 814 807 q 776 798 793 798 l 746 798 l 810 1023 l 878 1023 m 538 550 q 474 602 511 588 q 399 617 437 617 q 300 585 344 617 q 225 500 256 552 q 178 385 194 449 q 161 259 161 321 q 191 133 161 176 q 275 90 220 90 q 342 110 308 90 q 408 168 376 131 q 467 256 440 206 q 515 367 494 307 l 538 550 m 717 1023 l 591 0 l 526 0 q 494 13 502 0 q 485 43 485 25 l 499 191 q 441 108 472 145 q 375 45 410 72 q 304 5 341 19 q 228 -10 267 -10 q 88 56 138 -10 q 38 247 38 122 q 50 360 38 303 q 84 469 62 417 q 136 566 106 522 q 206 644 167 611 q 288 695 244 676 q 381 714 332 714 q 475 693 433 714 q 548 635 518 673 l 596 1023 l 717 1023 z "},"đ":{"ha":735,"x_min":38,"x_max":790,"o":"m 536 538 q 473 589 510 574 q 399 603 435 603 q 300 573 344 603 q 225 493 256 542 q 178 383 194 444 q 161 259 161 321 q 191 133 161 176 q 275 90 220 90 q 342 110 308 90 q 408 168 376 131 q 467 256 440 206 q 515 367 494 307 l 536 538 m 781 794 l 689 794 l 591 0 l 526 0 q 494 13 502 0 q 485 43 485 25 l 499 191 q 441 108 472 145 q 375 45 410 72 q 304 5 341 19 q 228 -10 267 -10 q 88 56 138 -10 q 38 247 38 122 q 64 414 38 333 q 136 559 90 495 q 245 661 183 622 q 381 699 308 699 q 474 680 432 699 q 547 623 517 660 l 567 794 l 460 794 q 426 806 435 794 q 421 839 417 817 l 426 871 l 577 871 l 596 1023 l 717 1023 l 698 871 l 790 871 l 781 794 z "},"ð":{"ha":732,"x_min":39,"x_max":673,"o":"m 315 84 q 398 102 360 84 q 467 157 437 119 q 519 254 498 195 q 552 396 541 313 q 532 454 545 426 q 497 503 518 482 q 447 538 476 525 q 379 551 418 551 q 286 530 327 551 q 216 473 244 509 q 173 387 188 436 q 158 282 158 338 q 169 199 158 235 q 202 136 181 162 q 252 98 224 111 q 315 84 281 84 m 551 843 q 640 701 608 785 q 673 503 673 617 q 649 294 673 388 q 577 133 624 200 q 460 28 530 65 q 301 -9 391 -9 q 195 11 243 -9 q 113 68 147 31 q 58 157 78 105 q 39 276 39 210 q 63 418 39 351 q 130 535 87 485 q 234 614 174 585 q 367 644 294 644 q 489 612 435 644 q 576 517 543 581 q 549 680 575 611 q 469 796 522 748 l 337 700 l 315 740 q 311 758 309 749 q 322 772 314 767 l 411 838 q 350 868 383 855 q 278 892 317 881 q 253 911 257 899 q 257 942 249 924 l 275 981 q 393 947 336 969 q 498 890 449 925 l 619 976 l 639 936 q 643 918 644 928 q 630 901 642 908 l 551 843 z "},"e":{"ha":665,"x_min":40,"x_max":611,"o":"m 399 624 q 318 606 355 624 q 253 557 281 588 q 204 482 224 525 q 173 390 184 440 q 344 420 280 403 q 444 457 409 438 q 490 500 478 477 q 501 548 501 523 q 495 574 501 560 q 477 599 490 588 q 446 617 465 610 q 399 624 426 624 m 594 130 q 525 67 559 93 q 456 24 491 41 q 382 -2 421 6 q 299 -10 344 -10 q 191 10 239 -10 q 110 68 143 31 q 58 158 76 105 q 40 276 40 210 q 52 384 40 330 q 85 486 63 438 q 139 576 107 535 q 211 648 170 618 q 300 696 251 678 q 406 713 349 713 q 498 698 459 713 q 562 659 537 683 q 599 607 587 635 q 611 553 611 578 q 592 468 611 507 q 524 399 574 430 q 386 345 474 368 q 161 308 299 322 q 161 293 161 301 q 160 278 160 286 q 201 136 160 185 q 324 88 242 88 q 383 94 357 88 q 430 111 409 101 q 466 134 450 122 q 494 156 481 146 q 518 173 507 166 q 540 180 529 180 q 564 168 553 180 l 594 130 z "},"ę":{"ha":665,"x_min":40,"x_max":611,"o":"m 399 624 q 318 606 355 624 q 253 557 281 588 q 204 482 224 525 q 173 390 184 440 q 344 420 280 403 q 444 457 409 438 q 490 500 478 477 q 501 548 501 523 q 495 574 501 560 q 477 599 490 588 q 446 617 465 610 q 399 624 426 624 m 435 -201 q 382 -227 413 -217 q 317 -237 351 -237 q 234 -213 263 -237 q 206 -149 206 -189 q 231 -73 206 -108 q 297 -10 256 -37 q 190 11 238 -10 q 109 68 142 31 q 58 158 76 106 q 40 276 40 210 q 52 384 40 330 q 85 486 63 438 q 139 576 107 535 q 211 648 170 618 q 300 696 251 678 q 406 713 349 713 q 498 698 459 713 q 562 659 537 683 q 599 607 587 635 q 611 553 611 578 q 592 468 611 507 q 524 399 574 430 q 386 345 474 368 q 161 308 299 322 q 161 293 161 301 q 160 278 160 286 q 201 136 160 185 q 324 88 242 88 q 383 94 357 88 q 430 111 409 101 q 466 134 450 122 q 494 156 481 146 q 518 173 507 166 q 540 180 529 180 q 564 168 553 180 l 594 130 q 494 45 542 76 q 390 0 446 13 l 390 0 q 360 -20 376 -8 q 332 -46 344 -31 q 311 -78 319 -60 q 303 -115 303 -95 q 316 -150 303 -137 q 351 -163 329 -163 q 375 -161 365 -163 q 391 -155 385 -158 q 402 -149 398 -152 q 410 -147 406 -147 q 421 -156 418 -147 l 435 -201 z "},"f":{"ha":445,"x_min":56,"x_max":512,"o":"m 274 601 l 204 23 l 172 -121 q 149 -159 164 -146 q 108 -173 134 -173 l 60 -173 l 153 599 l 83 608 q 64 618 71 611 q 58 640 56 625 l 64 690 l 164 690 l 172 758 q 202 865 180 818 q 259 944 225 912 q 338 993 294 976 q 433 1010 382 1010 q 512 996 476 1010 l 500 932 q 481 918 497 918 q 441 918 465 918 q 386 909 411 918 q 341 881 360 901 q 308 831 322 862 q 289 754 294 799 l 281 690 l 457 690 l 445 601 l 274 601 z "},"ﬀ":{"ha":857,"x_min":56,"x_max":915,"o":"m 685 690 l 870 690 l 859 603 l 678 603 l 608 23 l 576 -121 q 553 -159 568 -146 q 512 -173 538 -173 l 463 -173 l 557 603 l 276 603 l 205 23 l 173 -121 q 150 -159 165 -146 q 109 -173 135 -173 l 60 -173 l 155 601 l 86 610 q 64 620 72 613 q 58 641 56 627 l 64 690 l 166 690 l 173 747 q 203 855 181 808 q 259 934 225 901 q 336 983 292 966 q 430 999 380 999 q 508 985 472 999 l 497 921 q 490 911 494 914 q 477 908 485 908 q 459 907 469 907 q 438 908 449 908 q 384 900 408 908 q 340 874 359 892 q 308 826 321 856 q 290 751 295 796 l 281 690 l 567 690 l 576 765 q 607 873 584 826 q 663 952 629 919 q 741 1001 697 984 q 837 1017 785 1017 q 915 1003 880 1017 l 903 940 q 897 930 901 933 q 884 926 892 927 q 866 925 876 925 q 844 926 856 926 q 790 917 815 926 q 745 889 765 908 q 713 838 726 869 q 694 762 699 807 l 685 690 z "},"ﬁ":{"ha":741,"x_min":56,"x_max":675,"o":"m 281 690 l 675 690 l 591 0 l 469 0 l 543 600 l 275 600 l 204 22 l 172 -122 q 149 -160 164 -147 q 108 -174 134 -174 l 59 -174 l 154 599 l 86 607 q 64 617 72 610 q 58 638 56 624 l 63 690 l 165 690 l 170 728 q 203 847 178 793 q 271 938 229 900 q 372 998 313 976 q 505 1019 431 1019 q 531 1018 517 1019 q 558 1015 544 1017 q 584 1011 572 1013 q 605 1005 596 1008 l 592 942 q 586 933 591 935 q 572 929 581 930 q 553 929 564 928 q 527 930 542 930 q 427 917 469 930 q 356 880 385 905 q 309 817 326 855 q 286 726 292 778 l 281 690 z "},"ﬃ":{"ha":1144,"x_min":56,"x_max":1078,"o":"m 1067 603 l 994 0 l 874 0 l 948 603 l 678 603 l 608 22 l 575 -122 q 552 -160 567 -147 q 511 -174 538 -174 l 463 -174 l 558 603 l 276 603 l 205 23 l 173 -121 q 150 -159 165 -146 q 109 -173 135 -173 l 60 -173 l 155 601 l 86 610 q 64 620 72 613 q 58 641 56 627 l 64 690 l 166 690 l 173 747 q 203 855 181 808 q 259 934 225 901 q 336 983 292 966 q 430 999 380 999 q 508 985 472 999 l 497 921 q 490 911 494 914 q 477 908 485 908 q 459 907 469 907 q 438 908 449 908 q 384 900 408 908 q 340 874 359 892 q 308 826 321 856 q 290 751 295 796 l 281 690 l 569 690 l 574 728 q 607 847 581 793 q 675 938 633 900 q 775 998 717 976 q 908 1019 834 1019 q 934 1018 920 1019 q 961 1015 948 1017 q 987 1011 975 1013 q 1008 1005 999 1008 l 996 942 q 989 933 994 935 q 976 929 984 930 q 956 929 967 928 q 931 930 945 930 q 759 880 816 930 q 690 726 702 830 l 685 690 l 1078 690 l 1068 603 l 1067 603 z "},"ﬂ":{"ha":763,"x_min":56,"x_max":738,"o":"m 276 601 l 204 22 l 172 -122 q 149 -160 164 -147 q 108 -174 134 -174 l 59 -174 l 154 599 l 86 607 q 64 617 72 610 q 58 638 56 624 l 64 690 l 165 690 l 170 728 q 200 838 177 786 q 261 929 223 890 q 351 991 299 968 q 472 1013 404 1013 q 566 1009 522 1013 q 655 1004 611 1005 l 738 1004 l 615 0 l 494 0 l 606 914 q 542 920 575 917 q 479 924 510 924 q 348 873 398 924 q 286 728 297 822 l 282 690 l 447 690 l 437 601 l 276 601 z "},"ﬄ":{"ha":1165,"x_min":56,"x_max":1140,"o":"m 279 689 l 567 689 l 572 728 q 602 838 579 786 q 663 929 625 890 q 754 991 701 968 q 874 1013 807 1013 q 976 1009 928 1013 q 1072 1004 1025 1004 l 1140 1004 l 1017 0 l 897 0 l 1008 914 q 944 920 977 917 q 882 924 912 924 q 750 873 800 924 q 689 728 699 822 l 685 689 l 870 689 l 859 601 l 678 601 l 606 22 l 574 -122 q 552 -160 567 -147 q 510 -174 537 -174 l 462 -174 l 556 601 l 273 601 l 203 23 l 171 -121 q 148 -159 163 -146 q 107 -173 133 -173 l 58 -173 l 153 601 l 86 609 q 64 619 72 612 q 58 640 56 626 l 64 689 l 163 689 l 171 747 q 201 855 178 808 q 257 934 223 901 q 334 983 290 966 q 428 999 378 999 q 506 985 471 999 l 494 921 q 488 911 492 914 q 475 908 483 908 q 457 907 467 907 q 435 908 447 908 q 382 900 406 908 q 338 874 357 892 q 306 826 319 856 q 288 751 293 796 l 279 689 z "},"g":{"ha":672,"x_min":-39,"x_max":681,"o":"m 305 317 q 371 334 342 317 q 420 377 400 350 q 450 437 440 403 q 460 504 460 470 q 430 597 460 565 q 344 628 399 628 q 278 613 307 628 q 230 572 250 597 q 200 513 210 546 q 190 445 190 481 q 220 350 190 383 q 305 317 251 317 m 444 -17 q 441 17 444 1 q 432 47 438 33 q 274 57 340 61 q 164 37 207 53 q 99 -6 120 20 q 78 -63 78 -33 q 120 -140 78 -113 q 240 -166 163 -166 q 323 -154 285 -166 q 388 -122 361 -142 q 430 -74 415 -101 q 444 -17 444 -47 m 681 678 l 676 637 q 648 603 672 612 l 560 588 q 573 508 573 552 q 565 446 573 474 q 545 394 557 418 q 519 350 533 371 q 494 309 506 329 q 474 266 482 288 q 466 219 466 244 q 473 183 466 200 q 489 150 479 166 q 511 117 499 133 q 534 81 524 100 q 550 41 544 63 q 557 -8 557 19 q 533 -101 556 -57 q 468 -179 510 -145 q 365 -233 426 -213 q 229 -253 305 -253 q 119 -240 169 -253 q 34 -205 69 -228 q -20 -150 -1 -182 q -39 -78 -39 -117 q -20 0 -39 -34 q 31 59 -1 34 q 105 99 63 83 q 195 123 147 115 q 292 130 242 131 q 390 123 342 130 q 380 150 384 136 q 376 181 376 165 q 383 226 376 203 q 405 278 390 249 q 346 250 378 260 q 272 240 313 240 q 196 253 231 240 q 135 292 161 266 q 93 356 108 317 q 78 446 78 394 q 96 544 78 496 q 150 630 115 592 q 238 691 185 668 q 358 714 290 714 q 429 705 395 714 q 490 678 463 696 l 681 678 z "},"h":{"ha":735,"x_min":41,"x_max":660,"o":"m 231 548 q 352 672 285 630 q 489 714 419 714 q 568 696 534 714 q 623 644 602 678 q 652 561 644 610 q 652 448 660 511 l 599 0 l 476 0 l 528 448 q 519 572 539 531 q 444 612 499 612 q 379 595 413 612 q 315 547 346 578 q 257 471 284 515 q 209 372 229 426 l 164 0 l 41 0 l 165 1023 l 288 1023 l 231 548 z "},"ĥ":{"ha":735,"x_min":20,"x_max":660,"o":"m 144 1083 q 128 1076 138 1078 q 110 1074 119 1074 l 20 1074 l 190 1219 l 308 1219 l 443 1074 l 352 1074 q 336 1076 344 1074 q 322 1083 327 1079 l 249 1150 q 242 1156 247 1152 q 238 1153 240 1155 q 233 1150 235 1151 l 144 1083 m 231 548 q 352 672 285 630 q 489 714 419 714 q 568 696 534 714 q 623 644 602 678 q 652 561 644 610 q 652 448 660 511 l 599 0 l 476 0 l 528 448 q 519 572 539 531 q 444 612 499 612 q 379 595 413 612 q 315 547 346 578 q 257 471 284 515 q 209 372 229 426 l 164 0 l 41 0 l 165 1023 l 288 1023 l 231 548 z "},"ħ":{"ha":735,"x_min":30,"x_max":658,"o":"m 228 531 q 350 656 283 614 q 488 699 417 699 q 567 681 533 699 q 622 630 601 663 q 651 546 643 596 q 651 433 658 497 l 599 0 l 476 0 l 527 433 q 517 556 538 516 q 442 597 497 597 q 377 580 410 597 q 313 531 344 563 q 255 455 282 499 q 207 354 227 410 l 164 0 l 41 0 l 137 794 l 30 794 l 40 872 l 147 872 l 165 1023 l 288 1023 l 270 872 l 442 872 l 435 828 q 392 794 429 794 l 260 794 l 228 531 z "},"i":{"ha":319,"x_min":48,"x_max":301,"o":"m 254 703 l 169 0 l 48 0 l 133 703 l 254 703 m 301 924 q 294 891 301 906 q 275 863 287 875 q 247 844 263 851 q 215 837 231 837 q 183 844 199 837 q 157 863 168 851 q 138 891 145 875 q 131 924 131 906 q 138 958 131 942 q 157 986 145 974 q 184 1006 169 999 q 215 1013 199 1013 q 248 1006 232 1013 q 275 987 263 999 q 294 959 287 975 q 301 924 301 942 z "},"į":{"ha":319,"x_min":-33,"x_max":301,"o":"m 152 0 q 122 -20 138 -8 q 94 -46 106 -31 q 73 -78 81 -60 q 65 -115 65 -95 q 78 -150 65 -137 q 113 -163 91 -163 q 137 -161 127 -163 q 153 -155 147 -158 q 164 -149 160 -152 q 172 -147 168 -147 q 183 -156 180 -147 l 197 -201 q 143 -227 174 -217 q 79 -237 113 -237 q -4 -213 25 -237 q -33 -149 -33 -189 q -3 -67 -33 -105 q 74 0 26 -29 l 48 0 l 133 703 l 254 703 l 169 0 l 152 0 m 215 1013 q 248 1006 232 1013 q 275 987 263 999 q 294 959 287 975 q 301 924 301 942 q 294 891 301 906 q 275 863 287 875 q 247 844 263 851 q 215 837 231 837 q 183 844 199 837 q 157 863 168 851 q 138 891 145 875 q 131 924 131 906 q 138 958 131 942 q 157 986 145 974 q 184 1006 169 999 q 215 1013 199 1013 z "},"ı":{"ha":319,"x_min":48,"x_max":254,"o":"m 254 703 l 169 0 l 48 0 l 133 703 l 254 703 z "},"j":{"ha":318,"x_min":-123,"x_max":298,"o":"m 254 703 l 161 -52 q 140 -131 156 -94 q 98 -194 124 -167 q 35 -237 72 -222 q -48 -253 -1 -253 q -89 -249 -72 -253 q -123 -239 -106 -246 l -110 -172 q -105 -163 -108 -166 q -97 -159 -102 -160 q -84 -159 -92 -158 q -64 -159 -76 -159 q 9 -134 -15 -159 q 40 -52 33 -108 l 133 703 l 254 703 m 298 924 q 291 891 298 906 q 271 863 283 875 q 244 844 259 851 q 212 837 228 837 q 180 844 195 837 q 154 863 165 851 q 135 891 142 875 q 128 924 128 906 q 135 958 128 942 q 154 986 142 974 q 181 1006 166 999 q 213 1013 196 1013 q 244 1006 229 1013 q 272 987 260 999 q 291 959 284 975 q 298 924 298 942 z "},"ȷ":{"ha":318,"x_min":-123,"x_max":254,"o":"m 254 703 l 161 -52 q 140 -131 156 -94 q 98 -194 124 -167 q 35 -237 72 -222 q -48 -253 -1 -253 q -89 -249 -72 -253 q -123 -239 -106 -246 l -110 -172 q -105 -163 -108 -166 q -97 -159 -102 -160 q -84 -159 -92 -158 q -64 -159 -76 -159 q 9 -134 -15 -159 q 40 -52 33 -108 l 133 703 l 254 703 z "},"k":{"ha":658,"x_min":40,"x_max":668,"o":"m 287 1023 l 213 421 l 234 421 q 258 425 249 421 q 277 440 267 428 l 510 678 q 531 697 520 690 q 558 703 542 703 l 668 703 l 397 428 q 354 391 376 403 q 373 372 365 383 q 388 347 381 361 l 599 0 l 493 0 q 468 5 478 0 q 451 24 458 10 l 272 313 q 255 332 264 327 q 226 336 246 336 l 203 336 l 162 0 l 40 0 l 165 1023 l 287 1023 z "},"ĸ":{"ha":658,"x_min":40,"x_max":667,"o":"m 249 703 l 214 421 l 235 421 q 256 424 247 421 q 278 440 266 428 l 510 678 q 531 697 520 690 q 558 703 542 703 l 667 703 l 398 428 q 356 390 378 403 q 374 371 366 382 q 388 347 381 360 l 599 0 l 494 0 q 468 5 478 0 q 452 24 458 10 l 272 313 q 255 332 264 327 q 226 336 246 336 l 203 336 l 162 0 l 40 0 l 127 703 l 249 703 z "},"ł":{"ha":401,"x_min":35,"x_max":406,"o":"m 406 678 l 406 607 q 386 576 406 584 l 281 529 l 216 0 l 94 0 l 153 483 l 35 431 l 35 504 q 52 532 35 523 l 165 583 l 219 1023 l 340 1023 l 292 629 l 406 678 z "},"ľ":{"ha":313,"x_min":44,"x_max":483,"o":"m 463 1023 q 479 1018 475 1023 q 483 1006 483 1013 q 480 988 483 999 q 469 958 477 978 q 446 906 461 938 q 406 822 431 873 q 388 802 399 807 q 361 798 377 798 l 331 798 l 395 1023 l 463 1023 m 44 0 l 169 1023 l 290 1023 l 166 0 l 44 0 z "},"m":{"ha":1093,"x_min":41,"x_max":1025,"o":"m 41 0 l 126 704 l 187 704 q 229 663 229 704 l 219 538 q 334 669 272 624 q 464 714 396 714 q 569 665 535 714 q 603 525 603 616 q 721 668 656 622 q 860 714 787 714 q 988 644 950 714 q 1010 448 1025 575 l 957 0 l 835 0 l 888 448 q 883 571 898 531 q 816 611 868 611 q 757 596 786 611 q 699 552 727 581 q 648 481 672 524 q 605 383 624 438 l 605 382 l 560 0 l 438 0 l 490 448 q 488 571 501 531 q 422 611 474 611 q 358 594 389 611 q 300 546 327 578 q 249 469 272 515 q 206 367 225 424 l 162 0 l 41 0 z "},"n":{"ha":736,"x_min":41,"x_max":660,"o":"m 218 526 q 345 666 274 619 q 491 714 416 714 q 569 696 535 714 q 624 644 603 678 q 653 561 645 610 q 653 448 660 511 l 600 0 l 477 0 l 530 448 q 519 571 540 531 q 445 611 499 611 q 377 593 412 611 q 311 542 343 575 q 252 461 279 508 q 205 357 224 415 l 165 0 l 41 0 l 126 704 l 187 704 q 228 663 228 704 l 218 526 z "},"ŋ":{"ha":736,"x_min":41,"x_max":660,"o":"m 218 526 q 345 666 274 619 q 491 714 416 714 q 569 696 535 714 q 624 644 603 678 q 653 561 645 610 q 653 448 660 511 l 607 52 l 600 -2 q 575 -106 593 -60 q 527 -185 557 -153 q 454 -236 497 -218 q 354 -254 411 -254 q 303 -251 324 -254 q 256 -238 282 -247 l 266 -180 q 275 -159 269 -165 q 296 -153 280 -153 q 316 -157 303 -153 q 353 -160 329 -160 q 436 -126 406 -160 q 475 -16 466 -91 l 482 40 l 530 448 q 519 571 540 531 q 445 611 499 611 q 377 593 412 611 q 311 542 343 575 q 252 461 279 508 q 205 357 224 415 l 165 0 l 41 0 l 126 704 l 187 704 q 228 663 229 704 l 218 526 z "},"o":{"ha":721,"x_min":41,"x_max":663,"o":"m 315 87 q 407 115 365 87 q 477 189 448 142 q 523 295 507 235 q 539 422 539 356 q 500 568 539 519 q 390 617 462 617 q 297 589 338 617 q 226 516 256 562 q 181 410 197 470 q 165 283 165 349 q 203 136 165 186 q 315 87 242 87 m 303 -10 q 197 10 245 -10 q 115 67 149 30 q 60 159 80 105 q 41 283 41 213 q 69 450 41 372 q 145 587 97 528 q 259 680 194 646 q 401 714 325 714 q 506 694 458 714 q 589 637 554 674 q 643 545 624 599 q 663 422 663 491 q 635 256 663 334 q 559 118 607 177 q 444 25 510 59 q 303 -10 378 -10 z "},"ø":{"ha":719,"x_min":6,"x_max":694,"o":"m 222 110 q 314 79 260 79 q 407 106 365 79 q 481 179 450 133 q 529 288 512 225 q 546 422 546 350 q 541 479 546 453 q 528 527 537 505 l 222 110 m 483 594 q 390 625 444 625 q 296 599 338 625 q 223 526 253 572 q 175 417 192 480 q 158 283 158 355 q 176 176 158 222 l 483 594 m 606 617 q 648 531 633 580 q 663 422 663 483 q 635 256 663 334 q 558 118 607 177 q 444 25 510 59 q 303 -10 378 -10 q 154 33 217 -10 l 129 -1 q 93 -31 114 -22 q 53 -40 73 -40 l 6 -40 l 99 86 q 56 172 71 123 q 41 283 41 222 q 69 450 41 372 q 145 588 97 528 q 259 681 193 647 q 401 715 324 715 q 551 671 487 715 l 574 702 q 599 729 588 722 q 632 737 610 737 l 694 737 l 606 617 z "},"œ":{"ha":1117,"x_min":40,"x_max":1057,"o":"m 295 84 q 390 108 349 84 q 460 176 431 133 q 505 281 489 220 q 526 416 522 342 q 523 500 529 463 q 501 564 517 538 q 458 606 485 591 q 395 620 432 620 q 298 594 341 620 q 224 519 254 567 q 177 402 193 470 q 160 250 160 334 q 167 188 160 217 q 190 135 174 158 q 232 98 206 112 q 295 84 258 84 m 842 626 q 765 610 801 626 q 702 563 730 594 q 655 489 674 533 q 628 388 636 444 q 792 418 728 401 q 891 456 855 435 q 940 498 927 476 q 953 544 953 521 q 947 575 953 560 q 926 602 940 590 q 892 620 913 613 q 842 626 871 626 m 622 303 q 664 141 622 195 q 781 88 706 88 q 841 94 815 88 q 887 111 867 101 q 923 134 908 122 q 952 156 939 146 q 976 173 965 166 q 998 180 987 180 q 1022 168 1011 180 l 1052 130 q 983 67 1017 94 q 914 24 949 41 q 840 -1 878 7 q 757 -10 801 -10 q 629 31 685 -10 q 547 150 573 71 q 427 32 499 74 q 265 -10 356 -10 q 167 11 209 -10 q 96 66 124 31 q 54 147 68 101 q 40 243 40 193 q 69 445 40 357 q 149 593 99 533 q 266 684 200 653 q 407 715 333 715 q 531 679 481 715 q 606 581 581 644 q 713 679 649 644 q 860 715 777 715 q 942 702 906 715 q 1004 668 978 690 q 1043 616 1029 647 q 1057 548 1057 585 q 1049 493 1057 519 q 1022 443 1041 467 q 970 400 1002 420 q 890 363 938 380 q 775 333 841 346 q 622 311 709 320 l 622 303 z "},"p":{"ha":734,"x_min":12,"x_max":678,"o":"m 180 154 q 243 102 206 117 q 318 86 280 86 q 386 101 354 86 q 444 143 418 117 q 492 204 471 169 q 527 279 513 239 q 549 361 541 319 q 556 446 556 404 q 526 572 556 528 q 442 615 497 615 q 375 594 409 615 q 309 537 341 574 q 250 449 278 500 q 203 338 223 399 l 180 154 m 217 513 q 275 595 244 558 q 341 659 306 633 q 413 700 376 685 q 489 714 450 714 q 629 649 579 714 q 678 458 678 583 q 667 344 678 401 q 633 235 655 287 q 580 139 611 183 q 511 61 549 94 q 429 9 474 28 q 336 -10 385 -10 q 242 11 284 -10 q 169 69 199 31 l 132 -238 l 12 -238 l 126 704 l 188 704 q 229 663 229 704 l 217 513 z "},"þ":{"ha":734,"x_min":12,"x_max":678,"o":"m 180 155 q 243 102 206 117 q 318 86 280 86 q 386 101 354 86 q 444 143 418 117 q 492 204 471 169 q 527 279 513 239 q 549 361 541 319 q 556 446 556 404 q 526 572 556 528 q 442 615 497 615 q 375 594 409 615 q 309 536 341 573 q 250 449 278 499 q 202 338 222 398 l 180 155 m 226 526 q 282 603 252 569 q 346 663 313 638 q 415 701 379 688 q 489 714 451 714 q 629 649 579 714 q 678 458 678 583 q 667 344 678 401 q 633 235 655 287 q 580 139 611 183 q 511 61 549 94 q 429 9 474 28 q 336 -10 385 -10 q 241 11 284 -10 q 169 69 199 31 l 137 -194 q 121 -225 135 -212 q 87 -238 108 -238 l 12 -238 l 165 1023 l 287 1023 l 226 526 z "},"q":{"ha":710,"x_min":35,"x_max":652,"o":"m 524 617 q 493 622 508 621 q 464 623 478 623 q 383 609 422 623 q 310 572 344 596 q 248 514 276 547 q 200 440 220 480 q 169 354 181 399 q 158 260 158 308 q 186 135 158 177 q 266 93 213 93 q 332 114 299 93 q 394 172 365 135 q 448 260 423 209 q 492 372 473 311 l 524 617 m 467 169 q 414 95 442 128 q 355 39 386 63 q 290 3 324 15 q 219 -10 256 -10 q 144 7 178 -10 q 85 55 110 23 q 48 132 61 86 q 35 238 35 178 q 50 360 35 301 q 95 472 66 419 q 164 569 124 525 q 255 645 205 613 q 361 695 304 678 q 481 713 418 713 q 568 706 526 713 q 652 681 610 699 l 539 -238 l 461 -238 q 440 -234 449 -238 q 427 -222 432 -229 q 422 -205 423 -215 q 422 -185 420 -195 l 467 169 z "},"r":{"ha":475,"x_min":41,"x_max":494,"o":"m 217 508 q 277 610 245 567 q 345 678 310 653 q 418 708 381 703 q 494 697 456 713 l 472 578 q 313 551 382 614 q 201 326 244 489 l 162 0 l 41 0 l 126 704 l 187 704 q 229 663 229 704 l 217 508 z "},"s":{"ha":556,"x_min":-1,"x_max":526,"o":"m 494 591 q 483 579 489 583 q 469 575 478 575 q 448 583 460 575 q 420 600 437 590 q 381 617 404 609 q 324 625 357 625 q 267 616 292 625 q 223 592 241 608 q 194 557 204 577 q 184 513 184 536 q 206 461 184 481 q 260 427 227 442 q 330 400 292 413 q 400 367 367 387 q 454 315 433 347 q 476 234 476 284 q 457 141 476 185 q 402 63 438 97 q 316 9 366 29 q 203 -11 265 -11 q 84 13 135 -11 q -1 74 32 37 l 30 122 q 43 135 36 131 q 63 140 51 140 q 85 131 74 140 q 113 109 96 121 q 155 87 129 97 q 219 77 180 77 q 280 88 253 77 q 327 115 308 98 q 356 156 346 133 q 366 206 366 179 q 344 262 366 241 q 290 297 323 283 q 220 323 258 310 q 150 354 183 335 q 96 403 117 373 q 74 485 74 434 q 92 570 74 529 q 143 644 110 612 q 224 695 176 676 q 331 714 272 714 q 443 693 394 714 q 526 635 491 672 l 494 591 z "},"ş":{"ha":556,"x_min":-1,"x_max":526,"o":"m 30 122 q 43 135 36 131 q 63 140 51 140 q 85 131 74 140 q 113 109 96 121 q 155 87 129 97 q 219 77 180 77 q 280 88 253 77 q 327 115 308 98 q 356 156 346 133 q 366 206 366 179 q 344 262 366 241 q 290 297 323 283 q 220 323 258 310 q 150 354 183 335 q 96 403 117 373 q 74 485 74 434 q 92 570 74 529 q 143 644 110 612 q 224 695 176 676 q 331 714 272 714 q 443 693 394 714 q 526 635 491 672 l 494 591 q 483 579 489 583 q 469 575 478 575 q 448 583 460 575 q 420 600 437 590 q 381 617 404 609 q 324 625 357 625 q 267 616 292 625 q 223 592 241 608 q 194 557 204 577 q 184 513 184 536 q 206 461 184 481 q 260 427 227 442 q 330 400 292 413 q 400 367 367 387 q 454 315 433 347 q 476 234 476 284 q 459 148 476 189 q 412 73 442 106 q 337 18 381 40 q 238 -9 293 -3 l 222 -53 q 298 -86 274 -65 q 322 -140 322 -108 q 311 -185 322 -165 q 278 -219 299 -206 q 229 -241 258 -233 q 167 -248 201 -248 q 118 -242 141 -248 q 76 -226 95 -236 l 93 -188 q 110 -176 98 -176 q 119 -178 115 -176 q 130 -184 124 -181 q 145 -189 136 -187 q 167 -192 154 -192 q 210 -178 195 -192 q 224 -145 224 -165 q 200 -111 224 -122 q 130 -95 175 -101 l 167 -9 q 70 19 113 -3 q -1 74 28 42 l 30 122 z "},"ß":{"ha":804,"x_min":52,"x_max":756,"o":"m 173 688 q 222 810 189 752 q 301 913 255 868 q 403 983 347 957 q 525 1009 460 1009 q 630 990 586 1009 q 702 943 674 972 q 743 879 730 914 q 756 811 756 844 q 740 731 756 764 q 700 672 724 697 q 647 628 676 647 q 595 592 619 610 q 555 555 571 574 q 538 509 538 535 q 553 468 538 485 q 590 438 568 452 q 639 409 613 424 q 687 373 665 394 q 724 321 709 351 q 739 245 739 290 q 717 138 739 185 q 659 57 696 90 q 574 7 623 24 q 471 -11 525 -11 q 360 13 408 -11 q 278 74 313 37 l 312 120 q 326 133 318 128 q 346 138 334 138 q 369 128 358 138 q 397 106 381 118 q 435 84 413 94 q 491 74 458 74 q 545 85 520 74 q 587 115 569 96 q 615 159 605 133 q 624 213 624 184 q 608 268 624 247 q 569 306 592 290 q 517 336 545 322 q 466 368 490 350 q 426 411 442 386 q 410 475 410 436 q 427 549 410 518 q 470 603 444 579 q 526 647 496 627 q 581 690 556 667 q 624 740 607 712 q 641 806 641 767 q 634 846 641 826 q 611 883 627 867 q 570 910 595 900 q 508 921 544 921 q 427 898 465 921 q 360 834 390 874 q 310 741 331 794 q 283 628 290 688 l 209 23 l 176 -121 q 154 -159 169 -146 q 113 -173 139 -173 l 64 -173 l 158 599 l 83 608 q 60 619 68 612 q 55 639 52 626 l 60 688 l 173 688 z "},"ſ":{"ha":375,"x_min":52,"x_max":513,"o":"m 177 758 q 206 865 185 818 q 261 944 228 912 q 338 992 294 976 q 433 1009 382 1009 q 475 1005 456 1009 q 513 994 495 1001 l 501 933 q 495 924 500 926 q 482 920 490 921 q 464 920 474 919 q 442 921 454 921 q 389 912 413 921 q 347 883 365 903 q 316 832 328 863 q 298 754 303 800 l 209 23 l 176 -121 q 154 -159 169 -146 q 113 -173 139 -173 l 64 -173 l 158 599 l 83 608 q 60 619 68 612 q 55 639 52 626 l 60 688 l 169 688 l 177 758 z "},"t":{"ha":492,"x_min":51,"x_max":467,"o":"m 97 133 q 97 143 97 137 q 98 163 97 150 q 101 195 99 175 q 108 248 103 215 l 151 600 l 72 600 q 57 607 63 600 q 52 627 51 613 l 58 676 l 166 691 l 219 908 q 230 925 222 919 q 248 932 237 932 l 313 932 l 283 690 l 467 690 l 457 600 l 272 600 l 229 254 q 224 208 226 226 q 220 181 222 191 q 219 166 219 170 q 219 160 219 162 q 235 107 219 124 q 280 90 252 90 q 312 95 299 90 q 336 107 326 101 q 353 118 347 113 q 365 124 360 124 q 375 121 372 124 q 381 112 378 118 l 407 53 q 330 6 373 23 q 242 -11 286 -11 q 136 26 175 -11 q 97 133 98 63 z "},"ť":{"ha":492,"x_min":51,"x_max":535,"o":"m 515 1023 q 531 1018 527 1023 q 535 1006 535 1013 q 532 988 535 999 q 522 958 530 978 q 499 906 514 938 q 459 822 484 873 q 440 802 451 807 q 413 798 430 798 l 383 798 l 448 1023 l 515 1023 m 97 133 q 97 143 97 137 q 98 163 97 150 q 101 195 99 175 q 108 248 103 215 l 151 600 l 72 600 q 57 607 63 600 q 52 627 51 613 l 58 676 l 166 691 l 219 908 q 230 925 222 919 q 248 932 237 932 l 313 932 l 283 690 l 467 690 l 457 600 l 272 600 l 229 254 q 224 208 226 226 q 220 181 222 191 q 219 166 219 170 q 219 160 219 162 q 235 107 219 124 q 280 90 252 90 q 312 95 299 90 q 336 107 326 101 q 353 118 347 113 q 365 124 360 124 q 375 121 372 124 q 381 112 378 118 l 407 53 q 330 6 373 23 q 242 -11 286 -11 q 136 26 175 -11 q 97 133 98 63 z "},"ŧ":{"ha":499,"x_min":25,"x_max":474,"o":"m 103 133 q 103 143 103 137 q 104 163 103 150 q 107 195 105 175 q 114 248 110 215 l 133 402 l 51 402 q 32 409 40 402 q 26 431 25 417 l 33 481 l 142 481 l 157 600 l 78 600 q 63 607 69 600 q 58 627 57 613 l 64 676 l 172 691 l 225 908 q 236 925 228 919 q 254 932 243 932 l 319 932 l 289 690 l 474 690 l 463 600 l 278 600 l 263 481 l 441 481 l 431 402 l 253 402 l 235 254 q 230 208 232 226 q 227 181 228 191 q 225 166 226 170 q 225 160 225 162 q 242 107 225 124 q 286 90 258 90 q 318 95 305 90 q 342 107 332 101 q 360 118 353 113 q 372 124 367 124 q 381 121 378 124 q 387 112 384 118 l 413 53 q 336 6 379 23 q 249 -11 292 -11 q 143 26 181 -11 q 103 133 104 63 z "},"u":{"ha":735,"x_min":58,"x_max":677,"o":"m 677 703 l 592 0 l 531 0 q 486 44 486 0 l 497 173 q 371 36 441 83 q 228 -10 301 -10 q 149 8 183 -10 q 94 60 115 26 q 65 143 73 94 q 66 256 58 192 l 119 703 l 242 703 l 189 256 q 199 133 179 174 q 274 93 219 93 q 340 110 306 93 q 405 160 374 128 q 464 237 436 192 q 510 338 491 283 l 554 703 l 677 703 z "},"ų":{"ha":735,"x_min":58,"x_max":677,"o":"m 576 0 q 546 -20 562 -8 q 518 -46 531 -31 q 497 -78 506 -60 q 489 -115 489 -95 q 502 -150 489 -137 q 538 -163 515 -163 q 561 -161 551 -163 q 577 -155 571 -158 q 588 -149 584 -152 q 596 -147 592 -147 q 607 -156 604 -147 l 621 -201 q 568 -227 599 -217 q 503 -237 537 -237 q 420 -213 449 -237 q 392 -149 392 -189 q 424 -64 392 -103 q 506 5 456 -24 q 486 44 486 15 l 497 173 q 371 36 441 83 q 228 -10 301 -10 q 149 8 183 -10 q 94 60 115 26 q 65 143 73 94 q 66 256 58 192 l 119 703 l 242 703 l 189 256 q 199 133 179 174 q 274 93 219 93 q 340 110 306 93 q 405 160 374 128 q 464 237 436 192 q 510 338 491 283 l 554 703 l 677 703 l 592 0 l 576 0 z "},"v":{"ha":665,"x_min":49,"x_max":686,"o":"m 686 703 l 333 0 l 231 0 l 49 703 l 149 703 q 171 696 163 703 q 182 678 179 688 l 286 225 q 293 173 290 199 q 298 121 296 147 q 315 172 306 147 q 335 225 324 198 l 553 678 q 568 696 558 689 q 590 703 578 703 l 686 703 z "},"w":{"ha":1004,"x_min":54,"x_max":1016,"o":"m 1016 703 l 721 0 l 627 0 q 606 24 610 0 l 521 501 q 518 523 519 513 q 516 546 517 534 q 499 500 508 523 l 297 24 q 268 0 287 0 l 178 0 l 54 703 l 147 703 q 169 697 160 703 q 180 678 177 690 l 244 225 q 247 178 246 201 q 249 133 249 155 q 266 178 257 155 q 285 225 275 201 l 477 681 q 490 698 481 691 q 512 705 500 705 l 563 705 q 584 698 576 705 q 593 681 592 691 l 672 225 q 678 178 676 201 q 683 133 681 156 q 697 178 690 155 q 713 225 704 201 l 891 678 q 905 696 894 689 q 926 703 915 703 l 1016 703 z "},"x":{"ha":644,"x_min":-44,"x_max":647,"o":"m 397 378 l 583 0 l 474 0 q 452 7 460 0 q 439 24 444 14 l 307 306 q 292 279 301 292 l 101 24 q 85 7 93 14 q 64 0 76 0 l -44 0 l 240 378 l 72 703 l 182 703 q 202 700 196 703 q 213 686 208 696 l 331 444 q 348 474 338 459 l 507 684 q 536 703 518 703 l 647 703 l 397 378 z "},"y":{"ha":666,"x_min":50,"x_max":689,"o":"m 689 703 l 214 -210 q 196 -231 206 -224 q 171 -238 186 -238 l 80 -238 l 233 42 l 50 703 l 152 703 q 174 696 167 703 q 185 678 181 689 l 298 235 q 303 206 301 220 q 307 176 306 191 q 319 206 313 191 q 333 235 326 221 l 555 679 q 570 697 560 690 q 591 703 581 703 l 689 703 z "},"z":{"ha":589,"x_min":-12,"x_max":581,"o":"m 581 703 l 574 651 q 566 625 572 638 q 553 603 560 613 l 147 97 l 494 97 l 483 0 l -12 0 l -6 51 q 0 73 -6 60 q 15 96 6 85 l 422 606 l 81 606 l 93 703 l 581 703 z "},"ª":{"ha":476,"x_min":96,"x_max":446,"o":"m 347 766 q 270 758 301 765 q 218 741 238 752 q 190 716 199 731 q 181 683 181 701 q 195 649 181 660 q 232 639 210 639 q 289 652 264 639 q 338 690 313 665 l 347 766 m 148 940 q 227 990 185 974 q 316 1006 269 1006 q 375 993 350 1006 q 417 959 401 981 q 439 908 433 937 q 442 848 446 879 l 409 583 l 369 583 q 352 587 357 583 q 342 603 347 591 l 338 637 q 305 611 321 622 q 272 592 289 600 q 237 581 256 585 q 197 577 219 577 q 124 601 153 577 q 96 672 96 625 q 109 726 96 700 q 152 773 122 752 q 231 807 182 794 q 354 822 281 820 l 357 848 q 347 911 360 888 q 297 935 334 935 q 256 928 272 935 q 226 915 239 922 q 204 901 214 908 q 183 895 194 895 q 168 900 174 895 q 160 912 163 906 l 148 940 z "},"º":{"ha":522,"x_min":104,"x_max":506,"o":"m 332 1006 q 405 993 372 1006 q 459 956 437 980 q 493 898 481 932 q 506 823 506 865 q 489 720 506 766 q 443 642 472 674 q 372 592 413 610 q 280 575 330 575 q 206 588 239 575 q 151 625 174 601 q 116 683 128 649 q 104 758 104 717 q 121 860 104 815 q 168 939 138 906 q 240 988 198 971 q 332 1006 282 1006 m 289 647 q 382 694 351 647 q 413 823 413 742 q 390 905 413 875 q 324 934 368 934 q 265 921 289 934 q 226 884 241 908 q 204 828 211 861 q 197 757 197 796 q 220 676 197 705 q 289 647 242 647 z "},"ⁿ":{"ha":415,"x_min":80,"x_max":422,"o":"m 190 943 q 246 984 217 968 q 315 1000 276 1000 q 366 990 344 1000 q 400 961 387 980 q 418 918 413 943 q 419 863 422 893 l 391 635 l 306 635 l 334 863 q 325 915 338 897 q 281 933 313 933 q 237 923 258 933 q 196 894 216 913 l 164 635 l 80 635 l 124 994 l 168 994 q 189 976 185 994 l 190 943 z "},"`":{"ha":511,"x_min":197,"x_max":428,"o":"m 305 1006 q 335 999 326 1006 q 352 976 345 992 l 428 808 l 363 808 q 342 812 350 808 q 326 827 334 817 l 197 1006 l 305 1006 z "},"´":{"ha":511,"x_min":276,"x_max":555,"o":"m 555 1006 l 385 827 q 367 812 376 817 q 344 808 358 808 l 276 808 l 390 976 q 411 999 400 992 q 444 1006 423 1006 l 555 1006 z "},"ˆ":{"ha":511,"x_min":151,"x_max":542,"o":"m 542 812 l 466 812 q 452 815 459 812 q 440 825 446 817 l 371 917 q 366 923 369 920 q 362 930 364 926 q 356 923 358 926 q 350 917 353 919 l 260 825 q 231 812 247 812 l 151 812 l 315 995 l 420 995 l 542 812 z "},"ˇ":{"ha":511,"x_min":172,"x_max":563,"o":"m 563 995 l 400 812 l 294 812 l 172 995 l 251 995 q 265 992 258 995 q 275 985 272 988 l 347 890 q 351 883 349 887 q 356 876 353 880 q 362 883 359 880 q 368 890 365 887 l 460 985 q 473 992 465 988 q 487 995 480 995 l 563 995 z "},"̕":{"ha":0,"x_min":288,"x_max":455,"o":"m 435 1024 q 451 1018 447 1024 q 455 1006 455 1013 q 452 990 455 1000 q 442 960 450 980 q 418 907 433 940 q 378 822 403 874 q 358 802 369 807 q 331 797 347 797 l 288 797 l 352 1024 l 435 1024 z "},"˜":{"ha":511,"x_min":165,"x_max":554,"o":"m 430 920 q 485 980 476 920 l 554 980 q 540 920 551 947 q 511 873 528 892 q 472 843 494 853 q 424 832 450 832 q 384 842 402 832 q 349 864 365 852 q 319 886 333 876 q 290 896 305 896 q 236 835 244 896 l 165 835 q 180 895 169 868 q 209 943 192 923 q 249 973 226 963 q 296 984 271 984 q 337 974 319 984 q 371 952 355 964 q 401 930 387 940 q 430 920 415 920 z "},"¯":{"ha":511,"x_min":168,"x_max":544,"o":"m 178 936 l 544 936 l 535 855 l 168 855 l 178 936 z "},"˘":{"ha":511,"x_min":188,"x_max":542,"o":"m 347 808 q 266 823 298 808 q 216 864 234 838 q 193 923 199 889 q 192 995 188 957 l 274 995 q 273 952 271 972 q 284 919 275 933 q 311 897 294 905 q 356 889 328 889 q 402 897 383 889 q 433 919 421 905 q 452 952 446 933 q 462 995 459 972 l 542 995 q 525 923 538 957 q 489 864 513 889 q 431 823 466 838 q 347 808 395 808 z "},"˚":{"ha":511,"x_min":227,"x_max":490,"o":"m 231 913 q 247 966 233 942 q 279 1007 260 990 q 323 1034 299 1024 q 372 1043 347 1043 q 420 1034 398 1043 q 459 1007 443 1024 q 483 966 475 990 q 487 913 490 942 q 470 861 483 885 q 438 821 458 838 q 394 795 419 804 q 343 785 369 785 q 295 795 317 785 q 258 821 274 804 q 235 861 242 838 q 231 913 227 885 m 294 913 q 306 863 291 883 q 351 844 321 844 q 400 863 380 844 q 423 913 419 883 q 411 964 426 944 q 367 983 395 983 q 317 964 337 983 q 294 913 298 944 z "},"˝":{"ha":511,"x_min":210,"x_max":647,"o":"m 447 1006 l 299 827 q 281 812 290 816 q 258 808 272 808 l 210 808 l 318 976 q 339 999 328 992 q 371 1006 350 1006 l 447 1006 m 647 1006 l 472 827 q 453 812 463 817 q 431 808 444 808 l 376 808 l 510 976 q 532 999 522 991 q 564 1006 542 1006 l 647 1006 z "},"˙":{"ha":511,"x_min":276,"x_max":447,"o":"m 447 924 q 439 891 447 906 q 420 863 432 875 q 392 844 408 851 q 360 837 376 837 q 328 844 344 837 q 302 863 313 851 q 283 891 290 875 q 276 924 276 906 q 283 958 276 942 q 302 986 290 974 q 329 1006 314 999 q 360 1013 344 1013 q 393 1006 377 1013 q 420 987 408 999 q 439 959 432 975 q 447 924 447 942 z "},"¸":{"ha":511,"x_min":125,"x_max":371,"o":"m 270 -53 q 347 -86 323 -65 q 371 -140 371 -108 q 359 -185 371 -165 q 327 -219 348 -206 q 278 -241 306 -233 q 216 -248 249 -248 q 167 -242 190 -248 q 125 -226 144 -236 l 142 -188 q 159 -176 147 -176 q 168 -178 163 -176 q 178 -184 172 -181 q 194 -189 185 -187 q 216 -192 203 -192 q 258 -178 244 -192 q 273 -145 273 -165 q 248 -111 273 -122 q 178 -95 224 -101 l 228 17 l 297 17 l 270 -53 z "},"˛":{"ha":511,"x_min":125,"x_max":354,"o":"m 329 -147 q 340 -156 338 -147 l 354 -201 q 301 -227 332 -217 q 237 -237 270 -237 q 154 -213 183 -237 q 125 -149 125 -189 q 134 -103 125 -125 q 159 -61 143 -81 q 198 -23 176 -41 q 247 9 221 -6 l 310 0 q 280 -20 295 -8 q 251 -46 264 -31 q 231 -78 239 -60 q 222 -115 222 -95 q 235 -150 222 -137 q 271 -163 249 -163 q 294 -161 285 -163 q 311 -155 304 -158 q 322 -149 317 -152 q 329 -147 326 -147 z "},"Γ":{"ha":713,"x_min":67,"x_max":756,"o":"m 744 892 l 308 892 l 198 0 l 67 0 l 190 994 l 756 994 l 744 892 z "},"Δ":{"ha":888,"x_min":-47,"x_max":831,"o":"m 138 104 l 673 104 l 513 781 q 505 816 509 797 q 498 858 501 835 q 464 780 480 813 l 138 104 m 831 0 l -47 0 l 456 994 l 573 994 l 831 0 z "},"Θ":{"ha":1035,"x_min":68,"x_max":986,"o":"m 353 556 l 710 556 l 697 451 l 341 451 l 353 556 m 986 568 q 947 335 986 441 q 838 152 908 228 q 673 32 768 75 q 465 -10 577 -10 q 300 22 373 -10 q 175 113 226 55 q 95 251 123 171 q 68 426 68 331 q 108 659 68 553 q 217 843 147 766 q 383 963 288 920 q 590 1006 478 1006 q 755 973 682 1006 q 880 882 828 940 q 959 743 931 824 q 986 568 986 663 m 853 565 q 833 702 853 641 q 778 807 814 764 q 691 874 742 850 q 574 897 639 897 q 424 864 492 897 q 306 770 356 831 q 229 623 256 709 q 201 429 201 536 q 220 292 201 353 q 276 188 240 231 q 363 122 312 145 q 479 99 415 99 q 631 131 562 99 q 749 225 699 164 q 825 372 798 285 q 853 565 853 458 z "},"Λ":{"ha":876,"x_min":-46,"x_max":817,"o":"m 817 0 l 713 0 q 686 9 696 0 q 672 31 676 17 l 507 742 q 496 790 501 764 q 488 846 491 817 q 445 742 468 787 l 106 31 q 87 9 100 19 q 58 0 74 0 l -46 0 l 449 994 l 567 994 l 817 0 z "},"Ξ":{"ha":799,"x_min":6,"x_max":815,"o":"m 815 994 l 801 885 l 114 885 l 127 994 l 815 994 m 706 110 l 693 0 l 6 0 l 18 110 l 706 110 m 233 560 l 601 560 l 587 447 l 218 447 l 233 560 z "},"Π":{"ha":985,"x_min":67,"x_max":936,"o":"m 815 0 l 684 0 l 794 892 l 308 892 l 198 0 l 67 0 l 190 994 l 936 994 l 815 0 z "},"Σ":{"ha":782,"x_min":-10,"x_max":800,"o":"m 341 892 q 285 895 310 892 q 235 902 260 897 q 282 867 262 886 q 316 824 302 848 l 464 571 q 485 532 479 544 q 489 508 490 520 q 478 480 488 494 q 447 439 469 465 l 210 156 q 176 120 192 134 q 142 96 160 106 q 189 101 167 99 q 229 102 210 102 l 690 102 l 678 0 l -10 0 l -3 49 q 7 78 -2 63 q 26 103 15 92 l 379 496 l 117 900 q 108 918 111 908 q 106 938 104 928 l 112 994 l 800 994 l 788 892 l 341 892 z "},"Φ":{"ha":1072,"x_min":52,"x_max":1040,"o":"m 565 156 q 661 171 616 157 q 745 211 707 185 q 815 272 784 236 q 868 350 847 307 q 901 441 890 392 q 913 543 913 490 q 895 658 913 604 q 844 753 878 713 q 761 819 810 794 q 649 844 712 843 l 565 156 m 526 844 q 386 811 449 842 q 276 728 322 781 q 204 605 230 675 q 178 457 178 535 q 196 342 178 396 q 248 247 214 288 q 331 181 282 206 q 442 156 380 157 l 526 844 m 662 945 q 822 912 752 944 q 941 826 892 880 q 1014 701 989 772 q 1040 549 1040 629 q 1004 358 1040 448 q 905 201 969 269 q 751 95 841 134 q 553 55 661 56 l 536 -80 l 413 -80 l 430 55 q 269 88 340 56 q 150 174 199 119 q 77 299 102 228 q 52 451 52 371 q 88 642 52 552 q 188 798 124 731 q 342 905 253 865 q 538 945 431 944 l 554 1074 l 678 1074 l 662 945 z "},"Ψ":{"ha":1050,"x_min":81,"x_max":1055,"o":"m 1055 994 l 1011 640 q 966 480 1001 551 q 876 357 932 408 q 742 276 819 306 q 567 243 665 247 l 537 0 l 406 0 l 436 243 q 270 277 340 247 q 157 358 200 306 q 97 480 113 409 q 91 640 81 551 l 135 994 l 221 994 q 252 981 242 994 q 260 949 262 968 l 222 640 q 222 520 213 572 q 257 431 230 467 q 332 373 285 394 q 449 349 380 353 l 528 994 l 659 994 l 580 349 q 703 373 651 352 q 792 431 756 394 q 851 520 829 467 q 881 640 872 572 l 919 949 q 934 981 921 968 q 968 994 947 994 l 1055 994 z "},"Ω":{"ha":985,"x_min":24,"x_max":942,"o":"m 613 110 l 878 110 l 870 42 q 855 12 869 24 q 821 0 841 0 l 499 0 l 535 301 q 643 339 594 313 q 730 406 693 365 q 787 506 766 448 q 808 642 808 565 q 789 753 808 705 q 737 834 771 801 q 657 883 703 867 q 553 900 610 900 q 422 877 483 900 q 317 810 362 854 q 248 700 273 765 q 223 550 223 635 q 238 455 223 497 q 278 382 252 413 q 342 331 305 351 q 423 301 378 310 l 387 0 l 64 0 q 34 12 44 0 q 26 42 24 24 l 33 110 l 299 110 l 314 234 q 220 278 261 249 q 150 349 178 308 q 106 441 121 390 q 90 550 90 492 q 127 735 90 651 q 228 878 164 819 q 379 972 292 938 q 565 1005 466 1005 q 719 978 650 1005 q 838 905 789 952 q 915 792 888 858 q 942 649 942 726 q 919 501 942 569 q 855 380 897 433 q 756 289 814 326 q 628 233 699 251 l 613 110 z "},"α":{"ha":770,"x_min":38,"x_max":744,"o":"m 272 90 q 336 107 305 90 q 397 154 368 124 q 453 228 426 185 q 504 325 480 272 q 511 434 509 381 q 503 528 513 487 q 470 593 494 569 q 401 618 447 618 q 309 590 353 618 q 233 513 265 561 q 181 400 200 464 q 161 265 161 335 q 189 134 161 178 q 272 90 217 90 m 744 703 q 672 486 713 588 q 583 299 631 384 q 582 223 581 258 q 591 162 583 188 q 613 121 598 136 q 657 106 628 106 l 699 106 l 688 38 q 682 22 686 30 q 669 8 678 15 q 648 -2 661 2 q 614 -6 634 -6 q 565 7 585 -6 q 533 42 545 19 q 515 101 521 66 q 507 181 509 135 q 367 40 440 90 q 218 -10 294 -10 q 144 6 177 -10 q 88 53 111 22 q 51 133 64 85 q 38 246 38 181 q 51 366 38 308 q 86 477 63 425 q 141 573 109 529 q 212 648 173 617 q 295 697 251 679 q 388 715 340 715 q 466 699 433 715 q 520 655 499 683 q 555 590 542 627 q 573 510 567 553 q 582 543 578 526 q 592 576 587 560 q 611 643 603 618 q 627 682 619 668 q 642 699 635 695 q 660 703 650 703 l 744 703 z "},"β":{"ha":722,"x_min":11,"x_max":656,"o":"m 179 154 q 242 104 203 121 q 325 87 281 87 q 415 106 376 87 q 482 158 455 125 q 523 234 509 190 q 537 328 537 278 q 523 405 537 372 q 485 458 509 437 q 428 489 461 479 q 358 499 396 499 l 319 499 l 331 594 l 356 594 q 428 606 394 594 q 488 641 463 617 q 527 701 513 665 q 541 786 541 737 q 508 882 541 847 q 418 916 476 916 q 350 900 380 916 q 299 850 321 885 q 262 761 277 816 q 237 629 247 707 l 179 154 m 117 633 q 152 792 128 723 q 213 909 175 862 q 303 981 250 956 q 426 1005 356 1005 q 524 989 481 1005 q 596 944 567 972 q 640 877 625 916 q 655 795 655 839 q 608 639 655 701 q 482 551 562 576 q 611 471 566 529 q 656 328 656 413 q 633 195 656 257 q 570 89 611 134 q 473 17 530 43 q 347 -10 416 -10 q 249 11 297 -10 q 169 73 201 31 l 155 -43 l 122 -186 q 100 -225 115 -211 q 58 -239 85 -239 l 11 -239 l 66 216 l 117 633 z "},"γ":{"ha":701,"x_min":52,"x_max":715,"o":"m 715 703 q 648 529 685 615 q 566 363 610 444 q 472 206 522 282 q 371 60 423 130 l 334 -238 l 215 -238 l 251 59 q 231 286 243 183 q 198 463 219 389 q 147 577 178 536 q 72 618 117 618 l 52 618 l 58 662 q 61 681 58 672 q 72 695 65 689 q 92 704 79 701 q 124 707 104 707 q 223 671 182 707 q 289 566 263 635 q 327 394 315 496 q 341 159 340 292 q 410 274 378 213 q 472 398 443 334 q 524 529 500 463 q 569 661 549 595 q 587 694 576 685 q 615 703 599 703 l 715 703 z "},"δ":{"ha":713,"x_min":37,"x_max":651,"o":"m 316 83 q 399 101 360 83 q 467 154 438 119 q 513 237 496 188 q 529 347 529 285 q 517 430 529 393 q 485 498 506 467 q 439 553 465 528 q 385 600 413 578 q 300 557 341 583 q 228 493 260 531 q 179 402 197 454 q 160 281 160 350 q 170 205 160 241 q 198 142 179 169 q 247 99 217 115 q 316 83 276 83 m 633 903 q 622 882 629 888 q 599 876 614 876 q 571 882 590 876 q 527 893 552 887 q 473 905 502 899 q 415 910 444 910 q 364 903 385 910 q 330 887 343 897 q 310 863 316 876 q 303 833 303 849 q 318 791 303 810 q 358 751 333 771 q 413 709 382 731 q 476 663 444 688 q 539 608 508 638 q 594 540 570 578 q 634 456 619 502 q 649 351 649 409 q 624 206 649 272 q 553 92 599 140 q 445 17 508 44 q 307 -9 383 -9 q 191 13 242 -9 q 107 73 141 35 q 55 163 72 112 q 37 274 37 215 q 111 505 37 414 q 334 638 185 596 q 280 680 306 659 q 234 723 254 700 q 203 772 215 746 q 191 831 191 799 q 206 900 191 868 q 251 955 222 931 q 325 991 281 978 q 427 1004 369 1004 q 481 1002 452 1004 q 540 995 510 999 q 598 986 569 992 q 651 976 627 981 l 633 903 z "},"ε":{"ha":586,"x_min":28,"x_max":562,"o":"m 511 98 q 456 50 486 70 q 393 17 426 30 q 328 -3 361 3 q 263 -9 294 -9 q 171 5 214 -9 q 96 43 128 18 q 47 103 65 68 q 28 181 28 138 q 39 244 28 215 q 72 298 50 274 q 125 341 93 323 q 201 370 158 360 q 145 397 167 381 q 108 432 122 413 q 89 473 94 451 q 83 515 83 494 q 100 589 83 553 q 152 652 118 624 q 237 697 187 680 q 351 714 287 714 q 476 691 423 714 q 562 631 529 668 l 530 588 q 515 573 522 576 q 499 569 508 569 q 480 578 491 569 q 453 596 469 586 q 411 615 436 606 q 349 623 386 623 q 284 614 312 623 q 236 589 256 604 q 208 552 217 573 q 198 508 198 531 q 207 468 198 487 q 233 437 216 450 q 276 416 251 424 q 334 408 301 408 l 440 408 l 430 328 l 324 328 q 248 318 281 328 q 194 292 215 309 q 162 250 173 274 q 151 196 151 226 q 160 151 151 172 q 185 115 169 130 q 226 91 202 99 q 282 83 251 83 q 352 94 324 83 q 401 118 381 105 q 435 142 422 131 q 461 153 449 153 q 483 142 476 153 l 511 98 z "},"ζ":{"ha":501,"x_min":38,"x_max":585,"o":"m 584 954 q 582 934 585 944 q 572 913 580 925 q 547 884 563 901 q 504 843 531 867 q 428 773 468 810 q 350 694 388 736 q 276 607 311 653 q 215 513 242 562 q 173 410 188 463 q 157 302 157 358 q 167 237 157 265 q 196 189 177 209 q 243 153 215 168 q 306 126 271 138 q 388 90 356 109 q 439 51 420 71 q 465 9 458 31 q 472 -35 472 -12 q 452 -133 472 -86 q 395 -231 431 -180 l 307 -193 q 324 -166 315 -181 q 341 -136 333 -151 q 352 -103 348 -120 q 357 -71 357 -87 q 352 -47 357 -59 q 334 -22 347 -34 q 297 4 321 -9 q 235 29 273 17 q 152 66 188 45 q 90 116 115 87 q 51 182 65 144 q 38 269 38 220 q 70 439 38 358 q 159 597 103 519 q 293 752 216 675 q 459 912 369 830 q 364 901 415 906 q 251 896 312 896 l 197 896 q 160 909 170 896 q 152 935 151 922 l 160 994 l 580 994 l 584 954 z "},"η":{"ha":751,"x_min":36,"x_max":676,"o":"m 42 667 q 59 697 44 685 q 110 709 74 709 q 169 699 142 709 q 213 669 195 690 q 240 618 231 649 q 244 542 248 586 q 367 670 299 626 q 506 714 435 714 q 584 696 551 714 q 639 644 618 678 q 668 561 660 610 q 668 448 676 511 l 584 -238 l 465 -238 l 549 448 l 549 448 q 539 571 560 531 q 461 611 517 611 q 401 597 432 611 q 341 555 370 582 q 286 490 312 528 q 239 405 260 452 l 190 0 l 71 0 l 133 514 q 123 594 140 569 q 64 620 106 620 l 36 620 l 42 667 z "},"θ":{"ha":777,"x_min":76,"x_max":717,"o":"m 194 463 q 192 417 192 441 q 191 369 191 393 q 231 158 191 231 q 349 85 271 85 q 441 110 400 85 q 514 184 483 135 q 565 303 544 233 q 594 463 585 374 l 194 463 m 600 547 q 602 627 602 585 q 563 839 602 767 q 449 912 524 912 q 355 887 397 912 q 283 816 314 863 q 231 701 251 769 q 201 547 210 633 l 600 547 m 456 1006 q 565 979 516 1006 q 647 902 613 953 q 699 780 681 852 q 717 615 717 707 q 690 350 717 466 q 613 153 663 233 q 494 32 564 74 q 341 -10 425 -10 q 230 17 278 -10 q 146 93 181 43 q 94 216 112 143 q 76 382 76 289 q 103 647 76 531 q 180 842 130 763 q 300 964 230 922 q 456 1006 370 1006 z "},"ι":{"ha":343,"x_min":52,"x_max":305,"o":"m 122 703 l 241 703 l 178 190 q 189 109 172 137 q 251 81 206 81 l 305 81 l 301 44 q 290 22 299 31 q 266 5 281 12 q 233 -5 252 -1 q 194 -8 215 -8 q 127 6 155 -8 q 82 45 99 19 q 58 106 65 70 q 58 184 52 141 l 122 703 z "},"λ":{"ha":694,"x_min":-23,"x_max":653,"o":"m 653 83 l 647 35 q 628 1 644 9 q 583 -7 612 -7 q 525 -1 551 -7 q 480 23 500 6 q 446 74 460 41 q 422 160 431 106 l 361 423 q 353 479 356 456 q 351 522 351 502 q 317 435 338 483 l 119 25 q 104 7 114 14 q 76 0 94 0 l -23 0 l 309 645 l 269 840 q 258 874 265 860 q 241 897 251 888 q 215 910 231 906 q 175 914 199 914 l 134 914 l 140 959 q 145 976 140 968 q 158 990 149 984 q 182 1000 167 997 q 219 1003 197 1003 q 271 998 246 1003 q 316 979 296 992 q 352 943 337 966 q 374 886 367 920 l 533 160 q 561 101 542 119 q 617 83 579 83 l 653 83 z "},"μ":{"ha":770,"x_min":14,"x_max":726,"o":"m 726 86 l 720 36 q 695 7 718 20 q 633 -7 672 -7 q 582 1 606 -7 q 540 27 558 10 q 510 70 522 44 q 497 132 499 97 q 400 38 451 71 q 287 4 348 4 q 157 62 199 4 q 156 7 158 35 q 151 -44 154 -21 l 127 -238 l 66 -238 q 27 -224 40 -238 q 17 -185 14 -210 l 126 703 l 251 703 l 196 259 q 218 147 190 188 q 307 106 246 106 q 410 140 364 106 q 492 235 456 174 l 549 703 l 673 703 l 610 190 q 625 111 603 136 q 687 86 646 86 l 726 86 z "},"ν":{"ha":662,"x_min":49,"x_max":675,"o":"m 675 703 q 515 327 610 503 q 301 0 419 150 l 226 0 l 49 703 l 147 703 q 169 695 160 703 q 180 678 178 688 l 282 219 q 290 175 287 197 q 295 131 293 153 q 368 250 335 187 q 431 381 402 313 q 485 520 460 449 q 533 665 510 592 q 550 694 538 686 q 574 703 561 703 l 675 703 z "},"ξ":{"ha":506,"x_min":36,"x_max":566,"o":"m 560 944 q 541 910 557 922 q 507 898 525 898 l 451 898 q 364 882 403 898 q 296 840 324 867 q 252 776 268 813 q 237 699 237 740 q 279 608 237 642 q 401 575 321 575 l 459 575 l 448 480 l 362 480 q 270 465 309 480 q 207 424 232 450 q 169 362 181 398 q 157 284 157 326 q 168 226 157 251 q 202 181 180 201 q 258 144 225 160 q 333 110 290 127 q 391 81 367 96 q 428 48 415 65 q 449 11 442 31 q 455 -30 455 -8 q 435 -130 455 -82 q 377 -230 415 -178 l 289 -193 q 306 -165 297 -180 q 323 -135 315 -151 q 335 -102 330 -119 q 340 -68 340 -85 q 336 -44 340 -56 q 323 -22 332 -33 q 297 -2 313 -12 q 256 15 281 7 q 168 53 208 31 q 98 106 127 76 q 52 175 69 135 q 36 264 36 214 q 47 344 36 303 q 82 421 58 385 q 145 487 106 458 q 239 533 183 517 q 152 594 179 554 q 125 685 125 633 q 140 760 125 726 q 180 821 155 794 q 238 869 205 849 q 308 904 271 890 q 281 903 294 903 q 252 903 267 903 l 168 903 q 132 915 142 903 q 125 949 122 928 l 131 994 l 566 994 l 560 944 z "},"π":{"ha":795,"x_min":6,"x_max":787,"o":"m 780 638 q 766 610 778 622 q 735 599 755 599 l 642 599 q 628 522 635 556 q 616 448 622 487 q 607 360 610 409 q 604 242 604 311 q 608 162 604 192 q 621 115 613 132 q 641 93 629 99 q 669 88 653 88 l 695 88 l 689 38 q 663 7 687 17 q 603 -4 638 -4 q 506 39 538 -4 q 474 170 474 81 q 481 256 474 213 q 498 349 488 299 q 520 461 508 400 q 544 599 533 522 l 316 599 q 281 388 299 479 q 242 229 263 296 q 200 117 222 162 q 155 44 178 72 q 106 6 131 17 q 55 -6 81 -6 q 38 -4 47 -6 q 22 0 29 -3 q 10 8 15 3 q 7 19 6 13 l 17 103 l 30 103 q 72 130 49 103 q 119 216 95 157 q 166 369 142 274 q 209 599 189 463 l 70 599 l 76 651 q 82 666 77 658 q 93 681 86 674 q 109 692 99 688 q 130 697 118 697 l 787 697 l 780 638 z "},"ρ":{"ha":726,"x_min":1,"x_max":667,"o":"m 172 181 q 241 106 200 130 q 322 83 281 83 q 411 106 370 83 q 482 174 452 130 q 527 279 511 217 q 544 418 544 341 q 533 507 544 469 q 503 570 522 545 q 457 607 484 594 q 396 619 429 619 q 328 605 360 619 q 269 561 295 590 q 223 487 242 532 q 197 381 204 442 l 172 181 m 77 376 q 115 523 88 460 q 185 629 142 586 q 283 693 227 672 q 408 715 340 715 q 511 694 464 715 q 593 635 559 674 q 647 540 628 597 q 667 413 667 484 q 642 249 667 326 q 573 115 617 172 q 468 24 529 57 q 335 -10 408 -10 q 238 15 283 -10 q 160 81 192 39 l 121 -238 l 1 -238 l 77 376 z "},"σ":{"ha":774,"x_min":42,"x_max":800,"o":"m 435 607 q 313 585 364 607 q 229 521 262 563 q 180 419 196 479 q 165 285 165 360 q 205 136 165 188 q 325 83 246 83 q 423 107 381 83 q 493 174 465 130 q 536 280 522 217 q 550 421 550 342 q 545 484 550 453 q 528 539 540 514 q 501 581 517 563 q 463 607 485 599 l 435 607 m 800 700 l 793 648 q 779 619 791 631 q 741 607 767 607 l 577 607 q 645 519 620 572 q 670 397 670 465 q 644 235 670 309 q 572 106 619 160 q 459 21 525 52 q 315 -10 394 -10 q 201 11 252 -10 q 115 70 151 32 q 61 164 80 109 q 42 288 42 219 q 70 456 42 380 q 152 586 99 531 q 280 670 205 640 q 449 700 356 700 l 800 700 z "},"ς":{"ha":600,"x_min":46,"x_max":601,"o":"m 565 580 q 552 569 558 573 q 537 565 547 565 q 517 573 527 565 q 490 593 506 582 q 451 612 474 603 q 394 621 428 621 q 301 599 342 621 q 231 539 260 577 q 186 448 201 501 q 170 335 170 396 q 184 248 170 283 q 225 189 199 213 q 287 148 251 165 q 367 114 324 131 q 431 84 406 99 q 471 51 456 68 q 492 14 486 33 q 499 -30 499 -6 q 478 -131 499 -83 q 422 -231 458 -178 l 333 -193 q 350 -166 341 -181 q 366 -135 359 -151 q 378 -101 374 -119 q 383 -66 383 -84 q 379 -43 383 -53 q 366 -22 376 -32 q 339 -2 356 -12 q 294 17 322 8 q 199 58 244 35 q 119 116 153 81 q 66 201 85 151 q 46 324 46 251 q 70 477 46 406 q 139 601 94 549 q 249 684 184 654 q 396 714 314 714 q 515 690 465 714 q 601 624 565 667 l 565 580 z "},"τ":{"ha":600,"x_min":38,"x_max":610,"o":"m 605 648 q 590 616 602 628 q 558 605 578 605 l 356 605 l 306 194 q 316 112 299 140 q 379 85 333 85 l 433 85 l 428 47 q 418 25 427 35 q 394 9 408 15 q 361 -1 379 2 q 322 -5 342 -5 q 255 9 283 -5 q 209 48 226 23 q 186 109 192 74 q 185 187 180 144 l 237 605 l 38 605 l 44 657 q 58 684 47 673 q 90 696 69 696 l 610 696 l 605 648 z "},"υ":{"ha":713,"x_min":57,"x_max":646,"o":"m 641 703 q 643 659 642 683 q 644 612 644 635 q 645 566 645 588 q 646 529 646 544 q 615 276 646 379 q 534 109 584 172 q 421 17 484 45 q 292 -11 358 -11 q 185 7 231 -11 q 110 60 139 26 q 69 144 81 94 q 65 255 57 193 l 119 703 l 240 703 l 185 255 q 186 183 179 215 q 210 129 193 151 q 252 95 226 107 q 312 84 278 84 q 386 103 348 84 q 455 166 424 122 q 506 285 486 211 q 526 472 526 360 q 525 515 526 491 q 524 564 524 539 q 522 615 523 590 q 521 662 521 640 q 525 681 521 673 q 534 694 528 689 q 546 701 540 699 q 558 703 552 703 l 641 703 z "},"φ":{"ha":956,"x_min":42,"x_max":898,"o":"m 489 81 q 613 108 558 81 q 703 182 667 135 q 759 289 740 228 q 778 422 778 351 q 769 503 778 466 q 744 567 760 540 q 704 609 728 594 q 649 624 680 624 q 577 592 606 624 q 540 494 548 561 l 489 81 m 427 494 q 500 660 441 606 q 656 714 559 714 q 757 691 713 714 q 833 630 802 669 q 881 538 865 591 q 898 424 898 485 q 867 249 898 328 q 781 113 837 170 q 648 23 726 56 q 478 -10 571 -9 l 450 -238 l 338 -238 l 365 -10 q 229 16 289 -9 q 127 83 169 40 q 64 182 86 125 q 42 307 42 240 q 62 441 42 378 q 118 555 82 503 q 205 645 154 606 q 315 710 255 685 l 342 661 q 342 632 349 647 q 324 610 335 617 q 255 559 285 590 q 205 490 225 528 q 173 406 184 451 q 163 312 163 361 q 176 222 163 263 q 216 149 190 180 q 283 100 243 118 q 376 81 323 81 l 427 494 z "},"χ":{"ha":615,"x_min":-58,"x_max":628,"o":"m 449 -81 q 477 -140 460 -122 q 532 -158 495 -158 l 555 -158 l 549 -206 q 544 -227 547 -219 q 535 -240 541 -235 q 519 -246 529 -244 q 495 -248 510 -248 q 444 -243 468 -248 q 401 -223 421 -237 q 366 -184 381 -209 q 339 -117 350 -158 l 261 160 q 249 123 256 141 q 235 91 242 105 l 65 -212 q 52 -229 61 -222 q 26 -237 42 -237 l -58 -237 l 222 258 l 141 547 q 127 581 135 567 q 109 604 120 595 q 83 617 99 613 q 46 621 68 621 l 23 621 l 29 665 q 31 683 30 674 q 38 697 33 691 q 53 706 43 703 q 84 710 64 710 q 189 683 150 710 q 247 592 228 656 l 322 326 q 334 363 327 345 q 347 396 340 381 l 503 678 q 518 695 508 688 q 542 703 527 703 l 628 703 l 361 231 l 449 -81 z "},"ψ":{"ha":985,"x_min":53,"x_max":919,"o":"m 914 703 q 916 659 915 683 q 918 612 917 635 q 919 566 919 588 q 919 529 919 544 q 903 350 919 428 q 859 214 888 272 q 792 116 831 156 q 706 50 753 76 q 608 11 660 24 q 501 -7 556 -3 l 473 -238 l 353 -238 l 382 -8 q 130 91 208 3 q 71 330 53 178 l 117 703 l 199 703 q 224 689 215 703 q 231 656 233 674 l 190 330 q 195 235 184 277 q 232 163 206 193 q 299 114 258 133 q 394 89 340 95 l 505 994 l 624 994 l 513 88 q 625 115 574 94 q 715 180 677 135 q 775 296 753 224 q 797 476 797 368 q 792 574 797 527 q 790 662 788 620 q 803 694 792 684 q 828 703 815 703 l 914 703 z "},"ω":{"ha":990,"x_min":45,"x_max":926,"o":"m 877 703 q 897 636 888 672 q 912 564 906 601 q 922 489 919 526 q 926 417 926 451 q 902 237 926 317 q 839 102 879 158 q 744 18 799 47 q 629 -11 690 -11 q 563 -1 592 -11 q 513 27 534 9 q 478 71 492 46 q 458 126 465 96 q 423 71 443 96 q 378 27 403 46 q 322 -1 353 9 q 254 -11 291 -11 q 168 9 207 -11 q 102 68 130 30 q 60 160 75 106 q 45 281 45 215 q 56 397 45 342 q 84 504 66 452 q 127 605 103 556 q 181 703 152 655 l 258 703 q 275 700 267 703 q 288 690 283 697 q 291 672 292 683 q 280 646 290 661 q 236 572 257 610 q 200 490 215 533 q 175 398 184 447 q 166 290 166 348 q 176 192 166 231 q 203 128 187 152 q 239 94 219 104 q 278 84 259 84 q 330 98 307 84 q 371 138 353 113 q 400 200 389 164 q 417 281 412 237 l 440 470 l 560 470 l 535 269 q 535 193 531 227 q 549 135 538 159 q 579 97 560 110 q 626 84 598 84 q 684 99 653 84 q 743 149 716 113 q 787 244 769 184 q 805 394 805 303 q 800 465 805 428 q 789 535 796 501 q 774 599 782 569 q 757 649 765 628 q 755 674 753 664 q 764 691 758 685 q 777 700 769 697 q 792 703 785 703 l 877 703 z "},"΄":{"ha":511,"x_min":310,"x_max":478,"o":"m 310 797 l 381 1037 l 451 1037 q 474 1025 469 1037 q 470 992 478 1013 l 378 797 l 310 797 z "},"΅":{"ha":511,"x_min":160,"x_max":606,"o":"m 310 801 l 380 1041 l 451 1041 q 473 1029 468 1041 q 469 997 477 1017 l 377 801 l 310 801 m 604 890 q 596 865 603 877 q 580 845 590 853 q 559 831 571 836 q 536 826 548 826 q 513 831 524 826 q 495 845 503 836 q 484 865 488 853 q 482 890 481 877 q 490 916 483 904 q 505 938 496 928 q 526 952 515 947 q 550 958 538 958 q 573 952 563 958 q 591 938 584 947 q 602 916 599 928 q 604 890 606 904 m 283 890 q 275 865 281 877 q 259 845 269 853 q 238 831 250 836 q 214 826 226 826 q 192 831 202 826 q 174 845 181 836 q 163 865 167 853 q 161 890 160 877 q 169 916 163 904 q 184 938 175 928 q 205 952 194 947 q 228 958 217 958 q 252 952 241 958 q 270 938 263 947 q 281 916 277 928 q 283 890 284 904 z "},"ʹ":{"ha":274,"x_min":113,"x_max":306,"o":"m 300 1047 q 272 853 306 948 q 157 679 237 759 l 123 703 q 114 720 113 710 q 119 737 114 729 q 155 786 139 762 q 181 835 172 810 q 190 887 190 860 q 180 943 191 914 l 188 1014 q 199 1038 190 1028 q 225 1047 208 1047 l 300 1047 z "},"͵":{"ha":276,"x_min":21,"x_max":214,"o":"m 208 226 q 179 32 214 126 q 65 -142 144 -62 l 31 -119 q 21 -102 21 -111 q 27 -85 22 -92 q 63 -35 47 -60 q 88 14 79 -11 q 98 66 97 39 q 88 122 99 92 l 96 192 q 107 216 98 206 q 133 226 115 226 l 208 226 z "},"Б":{"ha":806,"x_min":67,"x_max":786,"o":"m 254 462 l 210 103 l 384 103 q 481 117 440 103 q 550 160 522 132 q 591 227 577 188 q 604 316 604 266 q 563 424 604 385 q 428 462 521 462 l 254 462 m 307 892 l 267 565 l 442 565 q 573 547 518 565 q 664 499 628 530 q 717 426 700 468 q 734 333 734 383 q 709 196 734 258 q 638 91 685 135 q 524 24 591 47 q 372 0 456 0 l 67 0 l 190 994 l 786 994 l 774 892 l 307 892 z "},"Г":{"ha":699,"x_min":67,"x_max":743,"o":"m 731 892 l 308 892 l 198 0 l 67 0 l 190 994 l 743 994 l 731 892 z "},"Ґ":{"ha":699,"x_min":67,"x_max":771,"o":"m 731 892 l 308 892 l 198 0 l 67 0 l 190 994 l 642 994 l 670 1219 l 771 1219 l 731 892 z "},"Д":{"ha":1011,"x_min":-68,"x_max":943,"o":"m 663 102 l 760 892 l 465 892 q 405 590 435 719 q 343 365 374 460 q 280 206 312 269 q 215 102 247 142 l 663 102 m 943 102 l 906 -204 q 890 -232 903 -222 q 859 -242 877 -242 l 781 -242 l 811 0 l 81 0 l 56 -204 q 41 -232 54 -222 q 10 -242 28 -242 l -68 -242 l -26 102 l 67 102 q 111 136 88 113 q 157 203 133 160 q 204 313 180 247 q 253 475 228 379 q 303 699 278 570 q 354 994 328 827 l 903 994 l 794 102 l 943 102 z "},"Ж":{"ha":1338,"x_min":-38,"x_max":1374,"o":"m 1062 596 q 1018 548 1040 567 q 967 520 997 530 q 1020 489 999 510 q 1059 432 1042 467 l 1274 0 l 1188 0 q 1140 13 1158 0 q 1111 47 1121 25 l 928 403 q 894 444 914 431 q 840 458 874 458 l 735 458 l 678 0 l 556 0 l 612 458 l 508 458 q 450 444 474 458 q 406 403 427 431 l 136 47 q 99 13 121 25 q 49 0 77 0 l -38 0 l 282 432 q 334 489 307 467 q 395 520 362 510 q 351 548 369 530 q 319 596 333 567 l 105 995 l 207 995 q 243 985 227 995 q 267 956 260 974 l 449 608 q 485 567 465 577 q 535 558 506 558 l 624 558 l 678 995 l 801 995 l 747 558 l 838 558 q 889 567 866 558 q 935 608 911 577 l 1202 956 q 1233 985 1215 974 q 1272 995 1251 995 l 1374 995 l 1062 596 z "},"З":{"ha":745,"x_min":-8,"x_max":694,"o":"m 124 902 q 260 977 185 951 q 422 1004 335 1004 q 538 987 487 1004 q 623 940 588 970 q 676 868 658 910 q 694 778 694 827 q 646 625 694 689 q 516 530 599 560 q 626 446 588 501 q 665 319 665 391 q 640 191 665 251 q 568 86 615 131 q 454 16 521 42 q 303 -10 387 -10 q 121 26 200 -10 q -8 122 42 62 l 37 182 q 51 194 43 190 q 69 199 60 199 q 100 184 83 199 q 144 149 117 168 q 210 114 171 130 q 308 99 250 99 q 407 114 363 99 q 480 158 450 130 q 526 227 510 187 q 542 316 542 267 q 530 380 542 351 q 495 430 518 409 q 438 463 472 451 q 360 474 404 474 l 236 474 l 249 581 l 369 581 q 449 593 412 581 q 513 628 485 605 q 555 684 540 651 q 570 759 570 717 q 560 815 570 790 q 529 859 549 840 q 477 887 508 877 q 406 897 447 897 q 317 885 355 897 q 251 859 279 874 q 206 833 224 844 q 176 821 188 821 q 149 841 158 821 l 124 902 z "},"И":{"ha":985,"x_min":67,"x_max":936,"o":"m 936 995 l 815 0 l 684 0 l 770 701 q 779 763 774 731 q 794 831 785 794 q 763 773 779 799 q 732 725 747 746 l 228 41 q 200 13 217 26 q 163 0 183 0 l 67 0 l 190 995 l 320 995 l 234 294 q 225 233 231 265 q 210 166 219 201 q 272 269 242 228 l 776 954 q 805 982 788 969 q 840 995 821 995 l 936 995 z "},"К":{"ha":868,"x_min":67,"x_max":903,"o":"m 579 585 q 490 520 543 537 q 544 490 523 510 q 583 432 565 469 l 806 0 l 688 0 q 657 10 669 0 q 635 41 645 21 l 444 408 q 430 431 438 422 q 413 447 423 441 q 391 455 403 452 q 362 458 378 458 l 253 458 l 197 0 l 67 0 l 190 995 l 319 995 l 266 558 l 360 558 q 409 567 388 558 q 453 605 431 576 l 731 958 q 759 984 743 974 q 794 995 774 995 l 903 995 l 579 585 z "},"Л":{"ha":940,"x_min":-50,"x_max":891,"o":"m 769 0 l 638 0 l 748 892 l 452 892 q 388 558 420 700 q 321 317 355 417 q 252 153 287 217 q 180 53 217 90 q 103 4 143 17 q 22 -9 64 -9 q -32 -2 -13 -9 q -48 17 -50 4 l -38 99 l 7 99 q 58 110 32 99 q 111 154 84 121 q 166 248 138 187 q 223 408 194 308 q 281 651 251 508 q 342 994 311 795 l 891 994 l 769 0 z "},"Љ":{"ha":1359,"x_min":-50,"x_max":1306,"o":"m 956 103 q 1052 117 1011 103 q 1121 160 1094 132 q 1162 227 1149 188 q 1176 316 1176 266 q 1134 424 1176 385 q 1000 462 1092 462 l 826 462 l 781 103 l 956 103 m 1013 565 q 1144 547 1089 565 q 1236 499 1200 530 q 1289 426 1272 468 q 1306 333 1306 383 q 1281 196 1306 258 q 1209 91 1256 135 q 1095 24 1163 47 q 942 0 1028 0 l 638 0 l 748 892 l 452 892 q 388 558 420 700 q 321 317 355 417 q 252 153 287 217 q 180 53 217 90 q 103 4 143 17 q 22 -9 64 -9 q -32 -2 -13 -9 q -48 17 -50 4 l -38 99 l 7 99 q 58 110 32 99 q 111 154 84 121 q 166 248 138 187 q 223 408 194 308 q 281 651 251 508 q 342 994 311 795 l 891 994 l 838 565 l 1013 565 z "},"Њ":{"ha":1401,"x_min":68,"x_max":1348,"o":"m 998 103 q 1095 117 1053 103 q 1164 160 1136 132 q 1205 227 1191 188 q 1218 316 1218 266 q 1176 424 1218 385 q 1042 462 1135 462 l 872 462 l 827 103 l 998 103 m 1056 565 q 1187 547 1132 565 q 1278 499 1242 530 q 1331 426 1314 468 q 1348 333 1348 383 q 1323 196 1348 258 q 1252 91 1299 135 q 1138 24 1205 47 q 985 0 1070 0 l 684 0 l 740 454 l 254 454 l 199 0 l 68 0 l 190 995 l 321 995 l 266 549 l 751 549 l 806 995 l 938 995 l 884 565 l 1056 565 z "},"Ѳ":{"ha":1035,"x_min":68,"x_max":986,"o":"m 202 458 q 201 444 201 451 q 201 429 201 437 q 220 292 201 353 q 276 188 240 231 q 363 122 312 145 q 479 99 415 99 q 612 124 551 99 q 721 195 674 149 q 801 308 769 241 q 845 458 833 374 l 202 458 m 853 565 q 833 702 853 641 q 778 807 814 764 q 691 874 742 850 q 574 897 639 897 q 446 874 506 897 q 339 806 386 850 q 260 699 292 762 q 213 556 227 635 l 853 556 l 853 565 m 590 1006 q 755 973 682 1006 q 880 882 828 940 q 959 743 931 824 q 986 568 986 663 q 947 335 986 441 q 838 152 908 228 q 673 32 768 75 q 465 -10 577 -10 q 300 22 373 -10 q 175 113 226 55 q 95 251 123 171 q 68 426 68 331 q 108 659 68 553 q 217 843 147 766 q 383 963 288 920 q 590 1006 478 1006 z "},"П":{"ha":950,"x_min":67,"x_max":901,"o":"m 779 0 l 648 0 l 758 892 l 308 892 l 198 0 l 67 0 l 190 994 l 901 994 l 779 0 z "},"У":{"ha":814,"x_min":74,"x_max":875,"o":"m 875 994 l 397 129 q 351 62 374 89 q 303 20 328 35 q 253 -2 278 4 q 199 -9 227 -9 q 138 -1 158 -9 q 120 27 118 8 l 129 99 l 174 99 q 242 117 213 99 q 299 184 271 135 l 357 288 l 74 994 l 192 994 q 219 986 210 994 q 233 964 228 978 l 397 505 q 424 397 415 450 q 446 451 433 424 q 473 505 459 478 l 717 964 q 736 985 724 976 q 765 994 749 994 l 875 994 z "},"Ѵ":{"ha":903,"x_min":75,"x_max":953,"o":"m 704 867 q 779 966 733 934 q 892 999 825 999 q 925 997 913 999 q 944 992 938 996 q 951 982 950 988 q 951 965 953 975 l 943 892 l 908 892 q 856 873 880 892 q 816 818 833 855 l 443 0 l 326 0 l 75 994 l 176 994 q 203 986 193 994 q 217 963 213 977 l 383 253 q 393 204 388 231 q 401 149 398 178 q 444 253 420 207 l 704 867 z "},"Ф":{"ha":1012,"x_min":61,"x_max":975,"o":"m 543 222 q 664 250 608 223 q 759 324 719 278 q 822 431 799 370 q 845 560 845 492 q 830 660 845 613 q 784 743 814 708 q 713 800 755 779 q 617 822 670 821 l 543 222 m 494 822 q 373 794 428 821 q 278 721 318 767 q 215 614 238 675 q 192 485 192 553 q 207 384 192 431 q 252 301 223 337 q 324 244 281 266 q 420 222 366 223 l 494 822 m 629 924 q 773 892 709 922 q 882 814 838 863 q 951 701 927 765 q 975 565 975 637 q 960 449 975 505 q 916 345 944 394 q 848 255 888 296 q 759 185 808 215 q 651 139 709 156 q 531 120 594 122 l 516 0 l 393 0 l 408 120 q 264 152 328 122 q 155 230 199 181 q 85 343 110 278 q 61 479 61 407 q 77 595 61 540 q 120 700 92 651 q 189 790 149 749 q 278 859 229 830 q 385 905 328 888 q 506 924 442 922 l 520 1040 l 644 1040 l 629 924 z "},"Ц":{"ha":1003,"x_min":67,"x_max":930,"o":"m 930 102 l 893 -204 q 877 -232 890 -222 q 847 -242 865 -242 l 769 -242 l 799 0 l 67 0 l 190 994 l 320 994 l 210 102 l 660 102 l 770 994 l 901 994 l 792 102 l 930 102 z "},"Џ":{"ha":950,"x_min":67,"x_max":901,"o":"m 901 994 l 779 0 l 483 0 l 458 -204 q 442 -232 456 -222 q 411 -242 429 -242 l 334 -242 l 363 0 l 67 0 l 190 994 l 320 994 l 210 102 l 660 102 l 770 994 l 901 994 z "},"Ч":{"ha":856,"x_min":82,"x_max":806,"o":"m 806 994 l 683 0 l 553 0 l 607 433 q 460 400 531 413 q 329 388 390 388 q 220 404 269 389 q 141 452 172 419 q 95 539 109 485 q 92 670 82 592 l 131 994 l 262 994 l 222 669 q 232 557 213 599 q 300 499 251 515 q 428 490 349 482 q 618 528 508 497 l 676 994 l 806 994 z "},"Ш":{"ha":1385,"x_min":67,"x_max":1336,"o":"m 1336 994 l 1215 0 l 67 0 l 190 994 l 320 994 l 210 102 l 587 102 l 697 994 l 827 994 l 717 102 l 1097 102 l 1206 994 l 1336 994 z "},"Щ":{"ha":1439,"x_min":67,"x_max":1365,"o":"m 1365 102 l 1328 -204 q 1313 -232 1326 -222 q 1282 -242 1300 -242 l 1204 -242 l 1235 0 l 67 0 l 190 994 l 320 994 l 210 102 l 587 102 l 697 994 l 827 994 l 717 102 l 1097 102 l 1206 994 l 1336 994 l 1227 102 l 1365 102 z "},"Ъ":{"ha":949,"x_min":72,"x_max":897,"o":"m 547 103 q 643 117 602 103 q 712 160 685 132 q 753 227 740 188 q 767 316 767 266 q 725 424 767 385 q 591 462 683 462 l 417 462 l 372 103 l 547 103 m 604 565 q 736 547 681 565 q 827 499 791 530 q 880 426 863 468 q 897 333 897 383 q 872 196 897 258 q 800 91 847 135 q 686 24 753 47 q 534 0 619 0 l 230 0 l 339 889 l 72 889 l 85 994 l 482 994 l 429 565 l 604 565 z "},"Ы":{"ha":1139,"x_min":67,"x_max":1090,"o":"m 384 103 q 481 117 440 103 q 550 160 522 132 q 591 227 577 188 q 604 316 604 266 q 563 424 604 385 q 428 462 521 462 l 254 462 l 210 103 l 384 103 m 442 565 q 573 547 518 565 q 664 499 628 530 q 717 426 700 468 q 734 333 734 383 q 709 196 734 258 q 638 91 685 135 q 524 24 591 47 q 372 0 456 0 l 67 0 l 190 994 l 319 994 l 267 565 l 442 565 m 968 0 l 838 0 l 959 995 l 1090 995 l 968 0 z "},"Ь":{"ha":788,"x_min":67,"x_max":734,"o":"m 384 103 q 481 117 440 103 q 550 160 522 132 q 591 227 577 188 q 604 316 604 266 q 563 424 604 385 q 428 462 521 462 l 254 462 l 210 103 l 384 103 m 442 565 q 573 547 518 565 q 664 499 628 530 q 717 426 700 468 q 734 333 734 383 q 709 196 734 258 q 638 91 685 135 q 524 24 591 47 q 372 0 456 0 l 67 0 l 190 994 l 319 994 l 267 565 l 442 565 z "},"Э":{"ha":872,"x_min":3,"x_max":821,"o":"m 109 882 q 255 973 175 940 q 433 1006 334 1006 q 595 973 524 1006 q 717 883 667 941 q 794 745 767 825 q 821 569 821 665 q 784 335 821 442 q 681 152 747 228 q 523 32 615 75 q 321 -11 431 -11 q 217 -1 264 -11 q 131 29 170 10 q 60 75 92 48 q 3 138 29 103 l 62 193 q 82 202 71 202 q 103 192 94 202 q 147 151 124 168 q 195 122 169 133 q 252 106 221 111 q 322 100 283 100 q 445 124 387 100 q 552 194 504 148 q 633 306 600 240 q 680 458 667 373 l 219 458 l 231 556 l 688 556 l 688 564 q 669 701 688 640 q 616 805 651 762 q 531 871 581 848 q 419 894 481 894 q 319 881 361 894 q 248 851 277 867 q 199 822 218 835 q 169 808 181 808 q 152 813 158 808 q 143 824 147 817 l 109 882 z "},"Є":{"ha":872,"x_min":69,"x_max":875,"o":"m 798 138 q 648 28 733 68 q 449 -11 563 -11 q 290 21 360 -11 q 170 110 219 53 q 95 247 121 167 q 69 422 69 326 q 108 658 69 551 q 216 843 147 765 q 379 963 285 920 q 583 1006 473 1006 q 753 972 681 1006 q 875 880 826 938 l 825 820 q 813 809 819 814 q 796 805 806 805 q 778 811 788 805 q 757 828 769 818 q 729 849 745 838 q 690 870 713 860 q 638 886 667 880 q 569 893 608 893 q 445 870 503 893 q 340 804 387 847 q 261 698 294 760 q 213 556 228 635 l 673 556 l 660 458 l 202 458 l 202 433 q 222 294 202 356 q 277 189 242 232 q 363 124 313 147 q 470 101 412 101 q 542 106 509 101 q 603 122 574 111 q 658 151 632 133 q 712 192 685 168 q 733 202 722 200 q 753 194 744 205 l 798 138 l 798 138 z "},"Ю":{"ha":1369,"x_min":68,"x_max":1319,"o":"m 844 99 q 982 133 919 99 q 1090 228 1045 166 q 1160 377 1135 290 q 1185 573 1185 465 q 1169 706 1185 647 q 1121 808 1152 766 q 1044 874 1090 851 q 942 897 999 897 q 803 863 866 897 q 695 767 740 829 q 624 617 649 705 q 599 422 599 529 q 616 288 599 347 q 664 186 633 228 q 741 122 695 144 q 844 99 786 99 m 478 548 q 536 734 494 650 q 641 879 578 819 q 783 972 703 939 q 956 1006 863 1006 q 1108 974 1041 1006 q 1223 884 1176 942 q 1294 748 1269 827 q 1319 576 1319 669 q 1282 340 1319 447 q 1181 155 1246 232 q 1026 34 1116 77 q 831 -10 937 -10 q 678 22 745 -10 q 564 111 610 54 q 492 247 517 168 q 467 419 467 326 q 467 433 467 426 q 468 446 467 439 l 253 446 l 199 0 l 68 0 l 190 995 l 320 995 l 265 548 l 478 548 z "},"Я":{"ha":860,"x_min":-52,"x_max":810,"o":"m 624 533 l 668 891 l 490 891 q 324 836 378 891 q 270 681 270 782 q 312 572 270 612 q 446 533 353 533 l 624 533 m 688 0 l 558 0 l 611 430 l 490 430 q 458 427 474 430 q 428 416 443 424 q 398 393 413 408 q 366 356 383 379 l 133 47 q 96 13 118 25 q 46 0 74 0 l -52 0 l 226 364 q 276 417 251 397 q 331 451 301 438 q 188 533 235 473 q 142 676 142 592 q 166 807 142 748 q 238 907 191 865 q 351 972 285 949 q 503 994 418 994 l 810 994 l 688 0 z "},"Ђ":{"ha":959,"x_min":77,"x_max":908,"o":"m 615 565 q 748 547 692 565 q 839 499 803 530 q 891 426 874 468 q 908 333 908 383 q 884 196 908 258 q 812 91 859 135 q 698 24 765 47 q 546 0 631 0 l 485 0 l 498 103 l 558 103 q 655 117 614 103 q 724 160 697 132 q 765 227 751 188 q 778 316 778 266 q 737 424 778 385 q 603 462 696 462 l 408 462 l 351 0 l 222 0 l 331 890 l 77 890 l 90 994 l 760 994 l 748 890 l 461 890 l 421 565 l 615 565 z "},"Ћ":{"ha":963,"x_min":77,"x_max":902,"o":"m 421 561 q 563 594 496 582 q 685 605 629 606 q 783 588 740 603 q 854 540 826 573 q 892 453 881 506 q 892 322 902 399 l 853 -1 l 723 -1 l 763 323 q 757 435 771 392 q 700 495 742 478 q 587 504 658 512 q 409 467 515 497 l 352 0 l 222 0 l 331 890 l 77 890 l 90 994 l 761 994 l 748 890 l 461 890 l 421 561 z "},"Ѣ":{"ha":935,"x_min":75,"x_max":881,"o":"m 531 103 q 627 117 586 103 q 696 160 669 132 q 737 227 724 188 q 751 316 751 266 q 709 424 751 385 q 575 462 667 462 l 401 462 l 356 103 l 531 103 m 588 565 q 720 547 665 565 q 811 499 775 530 q 864 426 847 468 q 881 333 881 383 q 856 196 881 258 q 784 91 831 135 q 670 24 738 47 q 518 0 603 0 l 214 0 l 305 742 l 75 742 l 88 840 l 317 840 l 336 994 l 466 994 l 447 840 l 729 840 l 717 742 l 435 742 l 413 565 l 588 565 z "},"б":{"ha":749,"x_min":72,"x_max":737,"o":"m 443 601 q 343 573 389 601 q 264 500 297 545 q 212 398 231 455 q 193 281 193 340 q 230 133 193 183 q 334 83 267 83 q 430 113 386 83 q 504 192 473 143 q 552 304 535 242 q 569 431 569 367 q 536 558 569 515 q 443 601 503 601 m 737 1043 l 737 981 q 727 945 737 960 q 697 926 717 931 l 506 895 q 398 864 444 885 q 316 812 351 842 q 257 745 281 782 q 217 667 233 708 q 192 582 201 626 q 178 496 183 539 q 233 576 201 540 q 304 637 265 612 q 389 676 343 663 q 485 690 435 690 q 567 675 529 690 q 633 630 605 660 q 676 552 660 599 q 692 440 692 505 q 680 330 692 385 q 645 225 668 275 q 591 132 623 175 q 518 58 559 90 q 430 8 478 26 q 326 -10 381 -10 q 227 9 273 -10 q 146 69 181 28 q 92 175 112 110 q 72 335 72 241 q 78 457 72 391 q 99 592 83 524 q 142 726 114 660 q 215 847 170 792 q 324 941 260 901 q 478 996 389 980 l 737 1043 z "},"в":{"ha":661,"x_min":38,"x_max":592,"o":"m 161 305 q 160 292 160 299 q 160 280 160 286 q 168 199 159 235 q 194 136 176 163 q 240 97 213 110 q 306 83 268 83 q 370 97 340 84 q 423 131 401 110 q 459 180 446 152 q 472 239 472 208 q 463 285 472 264 q 434 321 454 307 q 382 339 414 335 q 303 335 349 344 l 161 305 m 294 409 q 393 437 356 421 q 452 471 431 453 q 479 509 472 490 q 486 549 486 529 q 482 577 486 563 q 467 603 477 592 q 439 621 456 614 q 397 628 422 628 q 320 609 356 628 q 256 557 285 590 q 205 479 226 524 q 172 382 183 434 l 294 409 m 417 388 q 485 377 454 387 q 539 348 517 367 q 573 303 561 330 q 585 240 585 276 q 564 147 585 192 q 505 67 543 102 q 412 11 466 32 q 292 -10 358 -10 q 183 10 231 -10 q 103 66 135 30 q 55 152 71 102 q 38 263 38 203 q 51 376 38 321 q 86 482 63 432 q 143 574 110 532 q 218 647 176 617 q 309 695 260 678 q 413 713 358 713 q 492 701 458 713 q 548 669 526 689 q 581 624 570 649 q 592 572 592 599 q 582 517 592 544 q 551 467 572 491 q 497 423 530 443 q 417 388 463 403 z "},"г":{"ha":564,"x_min":15,"x_max":513,"o":"m 314 713 q 390 703 353 713 q 453 675 426 694 q 497 627 481 656 q 513 560 513 599 q 497 493 513 524 q 454 435 481 462 q 394 385 428 408 q 325 340 360 361 q 256 297 290 318 q 196 255 222 276 q 153 211 169 234 q 138 163 138 189 q 168 109 138 131 q 250 88 198 88 q 314 97 285 88 q 366 118 343 106 q 406 139 389 129 q 433 148 423 148 q 449 144 442 148 q 460 133 455 140 l 488 90 q 367 16 434 41 q 231 -10 299 -10 q 141 3 181 -10 q 73 38 101 15 q 30 89 45 60 q 15 153 15 119 q 32 223 15 191 q 74 282 48 254 q 135 334 101 310 q 205 381 169 359 q 274 424 240 403 q 335 466 308 445 q 377 507 361 486 q 394 551 394 528 q 369 597 394 578 q 299 616 345 616 q 242 608 269 616 q 195 590 216 600 q 158 572 174 580 q 133 563 142 563 q 121 566 127 563 q 110 579 115 569 l 83 629 q 134 664 106 649 q 191 691 161 680 q 252 707 221 701 q 314 713 283 713 z "},"ґ":{"ha":530,"x_min":-27,"x_max":587,"o":"m 587 877 l 533 616 l 396 616 q 316 581 346 616 q 272 469 285 545 l 224 195 q 157 46 207 99 q 23 -6 107 -6 q -16 -1 -4 -6 q -26 17 -27 4 l -17 88 l -2 88 q 68 116 40 88 q 106 201 97 143 l 153 465 q 233 647 175 590 q 385 703 291 703 l 446 703 l 475 823 q 540 877 489 877 l 587 877 z "},"д":{"ha":731,"x_min":42,"x_max":668,"o":"m 548 550 q 489 598 525 579 q 406 616 452 616 q 306 589 351 616 q 231 515 262 561 q 182 409 199 469 q 165 284 165 349 q 176 197 165 233 q 205 136 186 160 q 250 100 224 112 q 307 88 276 88 q 398 115 355 88 q 475 199 442 142 q 527 343 508 256 q 547 550 547 430 l 548 550 m 181 999 q 384 992 294 1010 q 538 920 474 974 q 634 775 601 867 q 668 549 668 684 q 638 310 668 414 q 556 135 608 206 q 436 27 505 64 q 292 -9 368 -9 q 191 10 237 -9 q 112 66 145 29 q 61 158 79 103 q 42 285 42 213 q 66 440 42 365 q 134 575 90 516 q 241 670 178 634 q 381 706 303 706 q 479 686 436 706 q 555 629 522 667 q 521 766 547 710 q 451 855 495 822 q 344 903 407 889 q 199 914 281 917 q 177 921 183 914 q 174 942 172 928 l 181 999 z "},"ж":{"ha":1210,"x_min":-8,"x_max":1199,"o":"m 641 278 q 707 390 671 335 q 782 493 743 444 q 862 582 822 541 q 941 651 903 622 q 1015 697 980 681 q 1080 713 1051 713 q 1141 702 1111 713 q 1199 667 1170 692 l 1170 616 q 1157 601 1163 605 q 1142 597 1150 597 q 1130 599 1137 597 q 1115 605 1124 601 q 1097 610 1107 608 q 1074 613 1087 613 q 1010 586 1042 613 q 955 512 979 560 q 915 399 930 465 q 900 253 900 333 q 905 176 900 208 q 921 125 910 144 q 947 96 931 105 q 982 88 962 88 q 1014 93 999 88 q 1039 106 1028 99 q 1058 118 1050 113 q 1073 124 1067 124 q 1086 123 1080 124 q 1097 113 1093 121 l 1124 60 q 1082 28 1104 41 q 1038 6 1060 15 q 995 -6 1016 -2 q 955 -9 974 -9 q 838 44 881 -9 q 795 206 795 97 q 808 341 795 276 q 845 461 821 405 q 780 377 813 424 q 717 277 747 330 q 660 166 686 224 q 617 49 635 108 l 613 -1 l 508 -1 l 552 428 q 486 315 522 370 q 411 212 450 260 q 331 123 372 163 q 252 53 291 83 q 177 7 213 24 q 113 -9 142 -9 q 52 1 81 -9 q -8 36 22 12 l 22 88 q 36 103 29 99 q 50 107 42 107 q 62 105 56 108 q 77 100 69 103 q 95 94 85 97 q 118 91 106 91 q 182 117 151 91 q 238 192 213 144 q 277 306 263 240 q 292 451 292 372 q 287 528 292 497 q 272 579 282 559 q 246 607 261 599 q 210 616 231 616 q 178 610 192 616 q 153 598 165 605 q 134 585 142 591 q 119 579 126 580 q 106 581 113 579 q 95 590 99 583 l 68 643 q 110 676 88 663 q 154 698 132 690 q 198 710 176 706 q 238 713 219 713 q 354 660 311 713 q 397 497 397 607 q 384 363 397 427 q 347 243 372 299 q 413 328 379 281 q 477 430 447 376 q 533 541 508 483 q 576 659 559 599 l 581 704 l 685 703 l 641 278 z "},"з":{"ha":601,"x_min":-10,"x_max":543,"o":"m 78 615 q 126 654 98 636 q 186 685 153 672 q 257 706 219 699 q 334 714 294 714 q 428 700 389 714 q 493 665 467 687 q 531 614 519 642 q 543 554 543 585 q 535 503 543 529 q 509 454 527 477 q 461 412 490 431 q 388 383 431 393 q 487 330 453 370 q 521 231 521 290 q 502 144 521 187 q 445 67 483 101 q 351 11 407 33 q 221 -10 294 -10 q 93 13 151 -10 q -10 77 35 35 l 21 128 q 31 139 24 134 q 46 144 38 144 q 72 135 58 144 q 106 114 86 125 q 155 92 126 102 q 226 83 183 83 q 303 94 269 83 q 360 127 337 106 q 395 175 383 147 q 408 234 408 202 q 372 312 408 287 q 271 337 336 337 q 224 334 250 337 q 174 327 198 331 q 175 373 174 351 q 186 419 177 396 q 224 415 206 417 q 262 413 242 413 q 337 423 305 413 q 390 449 369 433 q 422 488 411 466 q 432 532 432 509 q 426 566 432 550 q 405 594 419 582 q 367 614 390 606 q 311 621 344 621 q 237 611 267 621 q 186 591 207 602 q 153 569 166 579 q 131 558 140 559 q 117 560 123 558 q 104 573 111 563 l 78 615 z "},"и":{"ha":735,"x_min":58,"x_max":677,"o":"m 677 703 l 592 0 l 531 0 q 486 44 486 0 l 497 173 q 371 36 441 83 q 228 -10 301 -10 q 149 8 183 -10 q 94 60 115 26 q 65 143 73 94 q 66 256 58 192 l 119 703 l 242 703 l 189 256 q 199 133 179 174 q 274 93 219 93 q 340 110 306 93 q 405 160 374 128 q 464 237 436 192 q 510 338 491 283 l 554 703 l 677 703 z "},"к":{"ha":669,"x_min":40,"x_max":660,"o":"m 447 589 q 485 641 469 619 q 519 677 502 663 q 558 698 537 691 q 608 704 578 704 l 660 704 l 648 640 q 636 620 645 625 q 616 613 628 616 q 589 602 603 609 q 560 576 575 595 l 457 440 q 437 415 447 426 q 417 395 427 403 q 394 382 406 388 q 367 372 382 376 q 431 343 406 365 q 472 282 456 322 l 601 0 l 531 0 q 483 11 499 0 q 457 42 467 22 l 354 263 q 321 307 342 290 q 270 325 299 325 l 197 311 l 159 0 l 40 0 l 126 703 l 244 703 l 206 392 l 267 405 q 291 411 281 408 q 310 420 301 415 q 326 433 319 425 q 342 451 334 440 l 447 589 z "},"л":{"ha":752,"x_min":-19,"x_max":694,"o":"m 186 376 q 238 526 208 464 q 312 627 268 588 q 418 685 356 667 q 565 703 480 703 l 694 703 l 608 0 l 490 0 l 564 609 l 541 609 q 452 597 490 609 q 388 557 415 585 q 340 483 360 529 q 303 369 319 437 q 250 189 278 262 q 191 73 223 117 q 120 10 158 28 q 35 -9 82 -9 q -8 -4 4 -9 q -18 15 -19 1 l -10 85 l 13 85 q 69 100 46 85 q 111 150 92 115 q 148 240 131 184 q 186 376 165 295 z "},"љ":{"ha":1091,"x_min":-19,"x_max":1040,"o":"m 638 158 q 659 101 634 124 q 736 78 685 78 q 808 97 774 78 q 868 147 842 116 q 909 215 894 177 q 924 292 924 253 q 920 330 924 312 q 906 363 916 349 q 879 385 896 377 q 838 394 863 394 q 772 376 805 394 q 711 330 739 358 q 665 265 684 301 q 642 192 646 228 l 638 158 m 662 357 q 709 408 683 385 q 764 447 735 431 q 821 472 792 463 q 878 481 850 481 q 945 468 915 481 q 996 433 975 456 q 1028 379 1017 411 q 1040 309 1040 347 q 1012 188 1040 245 q 938 86 985 130 q 829 16 891 42 q 699 -10 767 -10 q 614 3 650 -10 q 555 39 578 15 q 524 94 533 62 q 519 167 515 127 l 573 609 l 555 609 q 464 597 503 609 q 394 557 425 585 q 342 483 364 529 q 303 369 319 437 q 250 189 278 262 q 191 73 223 117 q 120 10 158 28 q 35 -9 82 -9 q -8 -4 4 -9 q -18 15 -19 1 l -10 85 l 13 85 q 69 100 46 85 q 111 150 92 115 q 148 240 131 184 q 186 376 165 295 q 240 526 208 464 q 319 627 272 588 q 430 685 366 667 q 579 703 494 703 l 584 703 l 584 703 l 704 703 l 704 703 l 662 357 z "},"м":{"ha":967,"x_min":1,"x_max":910,"o":"m 910 706 l 824 0 l 712 0 l 773 489 q 778 519 774 503 q 785 552 781 536 l 483 42 q 466 26 476 33 q 445 20 457 20 l 428 20 q 409 26 417 20 q 397 42 401 33 l 242 549 q 236 511 240 531 q 230 477 233 492 q 209 367 219 421 q 186 259 199 313 q 160 151 174 206 q 126 39 145 97 q 107 10 119 21 q 75 0 94 0 l 1 0 q 52 168 28 83 q 99 340 77 252 q 140 518 121 427 q 176 706 160 609 l 273 706 q 298 700 285 706 q 315 678 310 695 l 458 249 q 466 217 463 232 q 473 188 470 202 q 482 210 477 199 q 494 232 488 221 l 758 678 q 781 700 768 694 q 806 706 794 706 l 910 706 z "},"н":{"ha":733,"x_min":41,"x_max":675,"o":"m 675 703 l 590 0 l 467 0 l 506 323 l 203 323 l 164 0 l 41 0 l 126 703 l 249 703 l 214 415 l 517 415 l 552 703 l 675 703 z "},"њ":{"ha":1058,"x_min":40,"x_max":1007,"o":"m 606 158 q 627 101 601 124 q 703 78 652 78 q 775 97 741 78 q 835 147 810 116 q 876 215 861 177 q 892 292 892 253 q 888 330 892 312 q 873 363 883 349 q 847 385 863 377 q 805 394 830 394 q 739 376 772 394 q 679 330 706 358 q 632 265 651 301 q 609 192 613 228 l 606 158 m 629 357 q 677 408 651 385 q 731 447 703 431 q 788 472 759 463 q 845 481 817 481 q 913 468 883 481 q 964 433 942 456 q 996 379 985 411 q 1007 309 1007 347 q 980 188 1007 245 q 905 86 952 130 q 797 16 858 42 q 667 -10 735 -10 q 581 3 617 -10 q 523 39 545 15 q 491 94 500 62 q 487 167 482 127 l 506 326 l 203 326 l 164 0 l 40 0 l 125 703 l 249 703 l 214 417 l 517 417 l 551 703 l 672 703 l 629 357 z "},"ѳ":{"ha":721,"x_min":41,"x_max":663,"o":"m 162 315 q 161 298 161 306 q 160 281 160 289 q 200 130 160 181 q 313 79 239 79 q 390 97 355 79 q 453 147 425 115 q 501 222 481 179 q 532 315 522 265 l 162 315 m 542 395 q 543 409 543 403 q 543 424 543 416 q 504 574 543 524 q 391 624 465 624 q 315 607 350 624 q 252 558 280 589 q 204 486 224 528 q 173 395 184 444 l 542 395 m 401 714 q 506 694 458 714 q 589 637 554 674 q 643 545 624 599 q 663 422 663 491 q 635 256 663 334 q 559 118 607 177 q 444 25 510 59 q 303 -10 378 -10 q 197 10 245 -10 q 115 67 149 30 q 60 159 80 105 q 41 283 41 213 q 53 397 41 342 q 89 499 66 451 q 145 587 113 547 q 218 655 178 626 q 304 698 258 683 q 401 714 350 714 z "},"п":{"ha":736,"x_min":41,"x_max":660,"o":"m 218 526 q 345 666 274 619 q 491 714 416 714 q 569 696 535 714 q 624 644 603 678 q 653 561 645 610 q 653 448 660 511 l 600 0 l 477 0 l 530 448 q 519 571 540 531 q 445 611 499 611 q 377 593 412 611 q 311 542 343 575 q 252 461 279 508 q 205 357 224 415 l 165 0 l 41 0 l 126 704 l 187 704 q 228 663 228 704 l 218 526 z "},"т":{"ha":1093,"x_min":41,"x_max":1025,"o":"m 41 0 l 126 704 l 187 704 q 229 663 229 704 l 219 538 q 334 669 272 624 q 464 714 396 714 q 569 665 535 714 q 603 525 603 616 q 721 668 656 622 q 860 714 787 714 q 988 644 950 714 q 1010 448 1025 575 l 957 0 l 835 0 l 888 448 q 883 571 898 531 q 816 611 868 611 q 757 596 786 611 q 699 552 727 581 q 648 481 672 524 q 605 383 624 438 l 605 382 l 560 0 l 438 0 l 490 448 q 488 571 501 531 q 422 611 474 611 q 358 594 389 611 q 300 546 327 578 q 249 469 272 515 q 206 367 225 424 l 162 0 l 41 0 z "},"ѵ":{"ha":693,"x_min":48,"x_max":703,"o":"m 488 590 q 522 651 503 628 q 560 688 540 675 q 603 706 581 701 q 649 710 625 710 q 676 708 665 710 q 693 703 687 706 q 701 698 699 701 q 703 692 703 694 l 694 625 l 676 625 q 628 612 648 625 q 594 569 608 599 l 331 0 l 223 0 l 48 703 l 146 703 q 169 695 160 703 q 179 678 178 688 l 283 219 q 291 177 288 198 q 296 137 294 157 q 310 177 303 157 q 325 219 317 197 l 488 590 z "},"ф":{"ha":1012,"x_min":40,"x_max":954,"o":"m 529 112 q 570 92 548 98 q 615 85 592 85 q 707 117 667 85 q 775 200 747 149 q 817 315 803 251 q 831 444 831 379 q 823 523 831 490 q 800 576 815 556 q 764 605 785 596 q 715 615 742 615 q 641 597 677 615 q 582 549 604 580 l 529 112 m 465 592 q 425 612 447 606 q 380 618 403 618 q 287 586 328 618 q 219 504 247 555 q 177 389 191 453 q 163 260 163 325 q 170 181 163 213 q 194 128 178 149 q 231 99 209 108 q 279 90 252 90 q 317 94 298 90 q 354 107 336 99 q 387 128 372 115 q 413 156 402 140 l 465 592 m 594 648 q 667 697 626 680 q 759 714 708 714 q 839 699 803 714 q 901 652 875 684 q 940 572 926 621 q 954 454 954 523 q 944 338 954 395 q 914 229 933 281 q 866 134 894 178 q 803 58 838 90 q 725 8 767 26 q 636 -10 683 -10 q 569 4 599 -10 q 520 38 540 18 l 493 -185 q 472 -226 490 -210 q 425 -242 454 -242 l 365 -242 l 401 57 q 327 7 368 24 q 235 -10 286 -10 q 156 5 192 -10 q 94 51 119 20 q 54 132 68 83 q 40 249 40 181 q 51 366 40 308 q 81 474 61 423 q 128 570 101 526 q 192 646 156 614 q 269 696 227 678 q 358 714 311 714 q 425 700 396 714 q 474 665 454 685 l 510 965 q 532 1006 514 990 q 578 1023 549 1023 l 639 1023 l 594 648 z "},"ц":{"ha":781,"x_min":58,"x_max":722,"o":"m 722 91 l 650 -206 q 637 -233 648 -223 q 610 -242 626 -242 l 538 -242 l 602 0 l 531 0 q 486 44 486 0 l 497 173 q 371 36 441 83 q 228 -10 301 -10 q 149 8 183 -10 q 94 60 115 26 q 65 143 73 94 q 66 256 58 192 l 119 703 l 242 703 l 189 256 q 199 133 179 174 q 274 93 219 93 q 340 110 306 93 q 405 160 374 128 q 464 237 436 192 q 510 338 491 283 l 554 703 l 677 703 l 601 74 l 603 91 l 722 91 z "},"џ":{"ha":735,"x_min":58,"x_max":677,"o":"m 677 703 l 592 0 l 531 0 q 486 44 486 0 l 497 173 q 420 76 461 115 q 333 15 378 37 l 306 -206 q 293 -233 303 -223 q 267 -242 282 -242 l 192 -242 l 222 -10 q 146 10 178 -8 q 93 62 113 28 q 66 145 73 96 q 66 256 58 194 l 119 703 l 242 703 l 189 256 q 199 133 179 174 q 274 93 219 93 q 340 110 306 93 q 405 160 374 128 q 464 237 436 192 q 510 338 491 283 l 554 703 l 677 703 z "},"ч":{"ha":665,"x_min":49,"x_max":607,"o":"m 607 703 l 523 0 l 399 0 l 439 331 q 338 246 395 277 q 211 215 281 215 q 133 232 165 215 q 81 279 100 249 q 55 352 61 310 q 55 444 49 394 l 86 703 l 210 703 l 178 444 q 178 394 175 417 q 191 354 181 371 q 218 327 201 337 q 263 317 236 317 q 322 328 293 317 q 377 359 351 339 q 422 407 402 379 q 456 470 442 435 l 484 703 l 607 703 z "},"ш":{"ha":1093,"x_min":50,"x_max":1035,"o":"m 1035 703 l 950 0 l 889 0 q 847 42 846 0 l 856 167 q 742 35 804 81 q 612 -10 680 -10 q 506 39 540 -10 q 472 180 472 88 q 355 36 420 83 q 216 -10 289 -10 q 88 60 126 -10 q 66 256 50 129 l 119 703 l 241 703 l 188 256 q 193 133 178 174 q 260 93 208 93 q 319 108 290 93 q 376 152 349 123 q 428 224 404 181 q 471 323 452 267 l 516 703 l 638 703 l 585 256 q 580 184 580 215 q 588 133 581 153 q 611 103 596 113 q 653 93 627 93 q 717 110 687 93 q 776 158 748 126 q 827 235 803 190 q 870 338 851 281 l 914 703 l 1035 703 z "},"щ":{"ha":1135,"x_min":50,"x_max":1074,"o":"m 1074 91 l 1003 -206 q 990 -233 1001 -223 q 963 -242 978 -242 l 890 -242 l 954 0 l 889 0 q 847 42 846 0 l 856 167 q 742 35 804 81 q 612 -10 680 -10 q 506 39 540 -10 q 472 180 472 88 q 355 36 420 83 q 216 -10 289 -10 q 88 60 126 -10 q 66 256 50 129 l 119 703 l 241 703 l 188 256 q 193 133 178 174 q 260 93 208 93 q 319 108 290 93 q 376 152 349 123 q 428 224 404 181 q 471 323 452 267 l 516 703 l 638 703 l 585 256 q 580 184 580 215 q 588 133 581 153 q 611 103 596 113 q 653 93 627 93 q 717 110 687 93 q 776 158 748 126 q 827 235 803 190 q 870 338 851 281 l 914 703 l 1035 703 l 961 91 l 1074 91 z "},"ъ":{"ha":719,"x_min":39,"x_max":667,"o":"m 367 78 q 438 96 405 78 q 497 144 472 115 q 536 213 522 174 q 551 292 551 251 q 547 330 551 312 q 533 363 543 349 q 506 385 523 377 q 465 394 490 394 q 395 377 431 394 q 331 331 360 360 q 284 265 302 302 q 265 187 265 227 q 294 105 265 133 q 367 78 323 78 m 397 640 q 320 500 347 570 q 283 358 294 431 q 332 409 305 386 q 389 448 360 432 q 450 472 419 464 q 510 481 481 481 q 574 468 545 481 q 624 433 603 456 q 656 378 644 410 q 667 308 667 347 q 657 233 667 271 q 627 160 647 195 q 581 93 608 124 q 518 40 553 63 q 441 3 483 17 q 351 -10 399 -10 q 267 4 305 -10 q 202 46 229 17 q 160 118 175 74 q 146 223 146 163 q 152 315 146 268 q 175 410 159 362 q 216 509 190 458 q 278 611 241 559 l 39 611 l 44 656 q 62 690 48 676 q 101 703 76 703 l 407 703 l 397 640 z "},"ы":{"ha":898,"x_min":52,"x_max":840,"o":"m 840 703 l 755 0 l 632 0 l 716 703 l 840 703 m 176 158 q 197 101 172 124 q 274 78 222 78 q 345 97 311 78 q 406 147 380 116 q 447 215 431 177 q 462 292 462 253 q 458 330 462 312 q 443 363 453 349 q 417 385 433 377 q 375 394 400 394 q 309 376 342 394 q 249 330 276 358 q 202 265 222 301 q 179 192 183 228 l 176 158 m 199 357 q 247 408 221 385 q 301 447 273 431 q 358 472 329 463 q 415 481 388 481 q 483 468 453 481 q 534 433 513 456 q 566 379 555 411 q 577 309 577 347 q 550 188 577 245 q 475 86 522 130 q 367 16 428 42 q 237 -10 305 -10 q 151 3 188 -10 q 93 39 115 15 q 61 94 70 62 q 57 167 52 127 l 122 703 l 242 703 l 199 357 z "},"ь":{"ha":628,"x_min":52,"x_max":577,"o":"m 176 158 q 197 101 172 124 q 274 78 222 78 q 345 97 311 78 q 406 147 380 116 q 447 215 431 177 q 462 292 462 253 q 458 330 462 312 q 443 363 453 349 q 417 385 433 377 q 375 394 400 394 q 309 376 342 394 q 249 330 276 358 q 202 265 222 301 q 179 192 183 228 l 176 158 m 199 357 q 247 408 221 385 q 301 447 273 431 q 358 472 329 463 q 415 481 388 481 q 483 468 453 481 q 534 433 513 456 q 566 379 555 411 q 577 309 577 347 q 550 188 577 245 q 475 86 522 130 q 367 16 428 42 q 237 -10 305 -10 q 151 3 188 -10 q 93 39 115 15 q 61 94 70 62 q 57 167 52 127 l 122 703 l 242 703 l 199 357 z "},"э":{"ha":635,"x_min":7,"x_max":574,"o":"m 61 628 q 116 665 89 649 q 172 692 143 681 q 232 708 201 702 q 299 713 264 713 q 418 691 367 713 q 505 627 470 668 q 557 528 539 586 q 574 401 574 471 q 548 241 574 316 q 474 110 522 166 q 360 22 426 54 q 215 -10 294 -10 q 94 15 145 -10 q 7 88 42 40 l 42 130 q 53 139 47 135 q 66 142 59 142 q 86 134 75 142 q 114 114 97 125 q 156 95 131 103 q 215 86 180 86 q 301 103 262 86 q 369 151 340 120 q 419 224 399 182 q 448 317 439 267 l 138 317 l 148 401 l 454 401 q 442 492 453 451 q 409 561 431 533 q 354 604 387 589 q 278 619 322 619 q 216 611 242 619 q 170 592 190 602 q 136 573 151 581 q 111 565 122 565 q 91 570 97 565 q 82 581 85 575 l 61 628 z "},"є":{"ha":635,"x_min":40,"x_max":601,"o":"m 568 126 q 499 60 532 87 q 434 18 467 34 q 366 -3 401 3 q 291 -10 331 -10 q 183 11 230 -10 q 105 70 136 32 q 57 161 73 108 q 40 278 40 214 q 67 442 40 363 q 142 581 94 520 q 256 677 190 641 q 401 713 322 713 q 518 689 471 713 q 601 617 565 664 l 565 574 q 555 565 561 569 q 541 561 549 561 q 522 570 531 561 q 498 589 513 578 q 460 609 483 600 q 402 617 438 617 q 327 601 363 617 q 261 557 291 585 q 210 488 232 528 q 175 401 188 449 l 475 401 l 465 317 l 162 317 q 160 299 160 308 q 160 281 160 290 q 170 202 160 238 q 200 140 181 166 q 250 99 220 113 q 320 84 280 84 q 376 91 351 84 q 419 107 400 97 q 452 128 438 117 q 477 149 466 140 q 498 166 489 159 q 517 172 508 172 q 541 160 531 172 l 568 126 l 568 126 z "},"ю":{"ha":973,"x_min":40,"x_max":915,"o":"m 590 87 q 673 115 635 87 q 736 190 710 143 q 777 299 763 238 q 791 426 791 360 q 758 569 791 522 q 662 617 725 617 q 579 589 616 617 q 515 514 542 561 q 475 406 489 467 q 460 278 460 345 q 494 135 461 184 q 590 87 526 87 m 356 398 q 400 524 370 466 q 471 624 429 582 q 564 690 513 666 q 674 714 616 714 q 770 694 726 714 q 847 638 815 675 q 897 548 879 601 q 915 426 915 494 q 889 258 915 338 q 817 119 863 179 q 709 25 772 60 q 576 -10 647 -10 q 481 10 524 -10 q 408 66 438 29 q 361 157 378 103 q 344 278 344 210 q 344 295 344 287 q 344 311 344 303 l 197 311 l 159 0 l 40 0 l 126 703 l 246 703 l 208 398 l 356 398 z "},"я":{"ha":694,"x_min":-24,"x_max":636,"o":"m 513 622 l 372 622 q 300 609 329 622 q 254 575 272 595 q 230 530 237 554 q 222 483 222 505 q 256 403 222 432 q 348 374 289 374 l 483 374 l 513 622 m 636 703 l 550 0 l 437 0 l 474 298 l 384 298 q 348 294 363 298 q 321 282 333 290 q 301 264 310 274 q 283 239 292 253 l 185 79 q 153 36 170 53 q 116 9 135 19 q 76 -3 97 0 q 33 -7 55 -7 q -12 -2 0 -7 q -23 17 -24 3 l -15 86 l 9 86 q 57 98 36 86 q 96 136 78 110 l 174 254 q 211 295 190 279 q 260 322 232 312 q 188 344 217 328 q 139 382 158 360 q 112 431 120 404 q 103 486 103 458 q 119 562 103 524 q 166 632 134 601 q 249 683 199 663 q 372 703 300 703 l 636 703 z "},"ђ":{"ha":716,"x_min":19,"x_max":642,"o":"m 222 508 q 335 615 274 575 q 466 655 397 655 q 544 638 510 655 q 599 589 577 621 q 632 513 621 558 q 642 412 642 467 q 579 89 642 248 q 402 -231 515 -70 l 310 -192 q 405 -30 365 -107 q 470 119 444 47 q 509 259 497 191 q 522 392 522 326 q 495 517 522 473 q 417 560 469 560 q 363 547 390 560 q 308 510 335 534 q 255 453 281 486 q 206 380 228 419 l 159 0 l 40 0 l 133 765 l 19 765 l 31 858 l 145 858 l 165 1022 l 285 1022 l 265 858 l 487 858 l 476 765 l 253 765 l 222 508 z "},"ѣ":{"ha":734,"x_min":40,"x_max":676,"o":"m 274 158 q 295 101 270 124 q 372 78 321 78 q 444 97 410 78 q 504 147 478 116 q 545 215 530 177 q 560 292 560 253 q 556 330 560 312 q 542 363 552 349 q 515 385 532 377 q 474 394 499 394 q 408 376 441 394 q 348 330 375 358 q 301 265 320 301 q 278 192 282 228 l 274 158 m 298 357 q 345 408 319 385 q 400 447 372 431 q 457 472 428 463 q 514 481 486 481 q 581 468 551 481 q 632 433 611 456 q 665 379 653 411 q 676 309 676 347 q 648 188 676 245 q 574 86 621 130 q 465 16 527 42 q 335 -10 403 -10 q 250 3 286 -10 q 191 39 214 15 q 160 94 169 62 q 156 167 151 127 l 196 501 l 195 501 l 209 611 l 40 611 l 51 703 l 220 703 l 244 901 l 365 901 l 341 703 l 540 703 l 528 611 l 330 611 l 316 501 l 315 501 l 298 357 z "},"!":{"ha":351,"x_min":52,"x_max":299,"o":"m 299 995 l 250 597 q 241 536 246 565 q 230 476 236 506 q 217 415 224 447 q 202 347 210 383 l 122 347 q 123 415 122 383 q 126 476 124 447 q 130 536 128 506 q 137 597 133 565 l 185 995 l 299 995 m 52 76 q 59 110 52 94 q 77 138 65 126 q 104 157 88 150 q 138 164 119 164 q 172 157 156 164 q 199 138 188 150 q 218 110 211 126 q 225 76 225 94 q 218 42 225 58 q 199 15 211 26 q 172 -4 188 3 q 138 -10 156 -10 q 104 -4 119 -10 q 77 15 88 3 q 59 42 65 26 q 52 76 52 58 z "},"?":{"ha":581,"x_min":110,"x_max":565,"o":"m 110 905 q 159 943 133 925 q 215 975 185 961 q 280 997 245 989 q 353 1005 315 1005 q 441 990 402 1005 q 508 950 481 976 q 550 889 535 924 q 565 813 565 854 q 548 714 565 755 q 507 643 532 673 q 452 591 482 613 q 395 548 422 569 q 346 506 367 528 q 317 453 325 483 l 292 347 l 209 347 l 217 462 q 236 520 218 495 q 281 568 255 546 q 337 613 307 591 q 393 659 367 634 q 436 716 419 685 q 453 790 453 748 q 420 876 453 844 q 331 907 388 907 q 264 897 292 907 q 215 874 235 886 q 181 851 194 861 q 158 840 167 840 q 144 844 149 840 q 135 856 140 847 l 110 905 m 148 76 q 155 110 148 94 q 173 138 161 126 q 200 157 184 150 q 234 164 216 164 q 268 157 252 164 q 296 138 284 150 q 315 110 308 126 q 322 76 322 94 q 315 42 322 58 q 296 15 308 26 q 268 -4 284 3 q 234 -10 252 -10 q 200 -4 216 -10 q 173 15 184 3 q 155 42 161 26 q 148 76 148 58 z "},"‽":{"ha":633,"x_min":131,"x_max":623,"o":"m 226 164 q 260 157 244 164 q 288 138 276 150 q 306 110 299 126 q 313 76 313 94 q 306 42 313 58 q 288 15 299 26 q 260 -4 276 3 q 226 -10 244 -10 q 192 -4 208 -10 q 164 15 176 3 q 146 42 153 26 q 140 76 140 58 q 146 110 140 94 q 164 138 153 126 q 192 157 176 150 q 226 164 208 164 m 318 974 q 369 986 340 981 q 426 991 398 991 q 507 979 470 991 q 569 943 543 967 q 609 886 595 920 q 623 810 623 853 q 603 705 623 747 q 554 631 584 663 q 488 576 524 600 q 419 528 452 553 q 360 476 385 504 q 324 406 334 447 l 303 333 l 228 333 q 219 383 224 357 q 210 438 215 410 q 201 494 206 466 q 193 550 197 523 l 131 980 l 244 1008 l 283 663 q 285 638 284 654 q 289 602 287 622 q 291 560 290 583 q 294 515 292 538 q 336 567 313 544 q 383 609 359 589 q 431 647 408 628 q 472 686 453 665 q 501 733 490 707 q 512 792 512 758 q 483 866 512 839 q 406 892 453 892 q 371 890 385 892 q 351 887 357 887 q 326 907 326 887 l 318 974 z "},",":{"ha":312,"x_min":30,"x_max":198,"o":"m 45 -168 q 36 -149 36 -160 q 47 -127 36 -140 q 73 -95 58 -114 q 101 -53 88 -77 q 120 1 115 -29 q 111 0 117 0 q 52 24 75 0 q 30 85 30 48 q 52 141 30 118 q 113 164 75 164 q 149 156 133 164 q 176 135 165 149 q 192 104 187 122 q 198 65 198 86 q 189 0 198 34 q 164 -66 181 -33 q 122 -131 147 -99 q 67 -188 98 -162 l 45 -168 z "},";":{"ha":360,"x_min":56,"x_max":285,"o":"m 72 -168 q 63 -149 63 -160 q 74 -127 63 -140 q 99 -95 85 -114 q 128 -53 114 -77 q 147 1 142 -29 q 138 0 144 0 q 79 24 101 0 q 56 85 56 48 q 79 141 56 118 q 139 164 101 164 q 176 156 160 164 q 202 135 192 149 q 219 104 213 122 q 224 65 224 86 q 216 0 224 34 q 190 -66 207 -33 q 149 -131 173 -99 q 93 -188 124 -162 l 72 -168 m 112 597 q 118 631 112 615 q 136 659 125 647 q 164 678 148 671 q 198 685 180 685 q 232 678 216 685 q 260 659 248 671 q 278 631 272 647 q 285 597 285 615 q 278 563 285 578 q 260 535 272 547 q 232 517 248 524 q 198 510 216 510 q 164 517 180 510 q 136 535 148 524 q 118 563 125 547 q 112 597 112 578 z "},".":{"ha":325,"x_min":36,"x_max":210,"o":"m 36 76 q 43 110 36 94 q 61 138 49 126 q 88 157 72 150 q 122 164 104 164 q 156 157 140 164 q 184 138 172 150 q 203 110 196 126 q 210 76 210 94 q 203 42 210 58 q 184 15 196 26 q 156 -4 172 3 q 122 -10 140 -10 q 88 -4 104 -10 q 61 15 72 3 q 43 42 49 26 q 36 76 36 58 z "},"…":{"ha":1040,"x_min":36,"x_max":924,"o":"m 36 76 q 43 110 36 94 q 61 138 49 126 q 88 157 72 150 q 122 164 104 164 q 156 157 140 164 q 184 138 172 150 q 203 110 196 126 q 210 76 210 94 q 203 42 210 58 q 184 15 196 26 q 156 -4 172 3 q 122 -10 140 -10 q 88 -4 104 -10 q 61 15 72 3 q 43 42 49 26 q 36 76 36 58 m 393 76 q 400 110 393 94 q 418 138 406 126 q 445 157 429 150 q 479 164 461 164 q 513 157 497 164 q 541 138 529 150 q 560 110 553 126 q 567 76 567 94 q 560 42 567 58 q 541 15 553 26 q 513 -4 529 3 q 479 -10 497 -10 q 445 -4 461 -10 q 418 15 429 3 q 400 42 406 26 q 393 76 393 58 m 750 76 q 757 110 750 94 q 775 138 763 126 q 802 157 787 150 q 837 164 818 164 q 870 157 855 164 q 898 138 886 150 q 917 110 910 126 q 924 76 924 94 q 917 42 924 58 q 898 15 910 26 q 870 -4 886 3 q 837 -10 855 -10 q 802 -4 818 -10 q 775 15 787 3 q 757 42 763 26 q 750 76 750 58 z "},"‘":{"ha":283,"x_min":116,"x_max":297,"o":"m 140 706 q 117 801 118 753 q 132 894 116 849 q 180 982 149 940 q 256 1060 212 1024 l 289 1038 q 297 1023 297 1033 q 294 1013 297 1017 q 283 999 291 1008 q 252 957 268 981 q 228 902 237 932 q 219 839 219 873 q 235 770 219 806 q 235 750 240 759 q 216 735 230 740 l 140 706 z "},"’":{"ha":286,"x_min":104,"x_max":285,"o":"m 261 1044 q 284 948 283 996 q 268 855 285 901 q 220 768 252 810 q 144 690 189 726 l 112 711 q 104 726 104 717 q 107 737 104 732 q 117 750 110 742 q 148 792 133 767 q 173 847 164 817 q 182 910 182 876 q 165 979 181 944 q 166 1000 160 990 q 185 1015 171 1009 l 261 1044 z "},"“":{"ha":478,"x_min":116,"x_max":490,"o":"m 140 706 q 117 801 118 753 q 132 894 116 849 q 180 982 149 940 q 256 1060 212 1024 l 289 1038 q 297 1023 297 1033 q 294 1013 297 1017 q 283 999 291 1008 q 252 957 268 981 q 228 902 237 932 q 219 839 219 873 q 235 770 219 806 q 235 750 240 759 q 216 735 230 740 l 140 706 m 333 706 q 311 801 312 753 q 326 894 310 849 q 374 982 342 940 q 450 1060 406 1024 l 483 1038 q 490 1023 490 1033 q 488 1013 490 1017 q 477 999 485 1008 q 446 957 462 981 q 422 902 431 932 q 413 839 413 873 q 429 770 413 806 q 429 750 434 759 q 410 735 424 740 l 333 706 z "},"”":{"ha":480,"x_min":104,"x_max":478,"o":"m 261 1044 q 284 948 283 996 q 268 855 285 901 q 220 768 252 810 q 144 690 189 726 l 112 711 q 104 726 104 717 q 107 737 104 732 q 117 750 110 742 q 148 792 133 767 q 173 847 164 817 q 182 910 182 876 q 165 979 181 944 q 166 1000 160 990 q 185 1015 171 1009 l 261 1044 m 455 1044 q 477 948 476 996 q 462 855 478 901 q 414 768 446 810 q 338 690 383 726 l 306 711 q 298 726 298 717 q 301 737 298 732 q 311 750 303 742 q 342 792 326 767 q 367 847 358 817 q 375 910 376 876 q 359 979 375 944 q 359 1000 354 990 q 378 1015 365 1009 l 455 1044 z "},"‚":{"ha":279,"x_min":-17,"x_max":163,"o":"m 140 164 q 162 68 161 116 q 147 -25 163 21 q 99 -112 131 -70 q 23 -190 67 -154 l -10 -169 q -17 -153 -17 -163 q -15 -143 -17 -148 q -4 -130 -12 -138 q 27 -88 11 -112 q 51 -33 42 -63 q 60 30 60 -3 q 44 99 60 64 q 44 120 39 110 q 63 135 49 129 l 140 164 z "},"„":{"ha":473,"x_min":-17,"x_max":357,"o":"m 140 164 q 162 68 161 116 q 147 -25 163 21 q 99 -112 131 -70 q 23 -190 67 -154 l -10 -169 q -17 -153 -17 -163 q -15 -143 -17 -148 q -4 -130 -12 -138 q 27 -88 11 -112 q 51 -33 42 -63 q 60 30 60 -3 q 44 99 60 64 q 44 120 39 110 q 63 135 49 129 l 140 164 m 333 164 q 356 68 355 116 q 341 -25 357 21 q 293 -112 324 -70 q 217 -190 261 -154 l 184 -169 q 176 -153 176 -163 q 179 -143 176 -148 q 190 -130 182 -138 q 220 -88 205 -112 q 245 -33 236 -63 q 254 30 254 -3 q 238 99 253 64 q 238 120 233 110 q 257 135 243 129 l 333 164 z "},"‹":{"ha":360,"x_min":55,"x_max":304,"o":"m 171 392 q 149 367 160 376 q 164 342 156 360 l 242 160 q 244 130 249 144 q 224 108 240 116 l 182 90 l 55 360 l 57 375 l 251 644 l 287 626 q 303 605 301 618 q 292 575 304 591 l 171 392 z "},"›":{"ha":358,"x_min":42,"x_max":290,"o":"m 290 375 l 288 360 l 96 90 l 59 108 q 43 130 44 116 q 53 160 42 144 l 176 342 q 197 367 186 359 q 181 392 188 376 l 103 575 q 102 605 97 591 q 123 626 107 618 l 163 644 l 290 375 z "},"«":{"ha":548,"x_min":55,"x_max":492,"o":"m 171 392 q 149 367 160 376 q 164 342 156 360 l 242 160 q 244 130 249 144 q 224 108 240 116 l 182 90 l 55 360 l 57 375 l 251 644 l 287 626 q 303 605 301 618 q 292 575 304 591 l 171 392 m 359 392 q 337 367 348 376 q 352 342 344 360 l 430 160 q 432 130 437 144 q 412 108 428 116 l 370 90 l 243 360 l 245 375 l 439 644 l 475 626 q 491 605 490 618 q 481 575 492 591 l 359 392 z "},"»":{"ha":547,"x_min":42,"x_max":478,"o":"m 290 375 l 288 360 l 96 90 l 59 108 q 43 130 44 116 q 53 160 42 144 l 176 342 q 197 367 186 359 q 181 392 188 376 l 103 575 q 102 605 97 591 q 123 626 107 618 l 163 644 l 290 375 m 478 375 l 477 360 l 285 90 l 248 108 q 232 130 233 116 q 242 160 231 144 l 365 342 q 385 367 375 359 q 370 392 376 376 l 292 575 q 291 605 285 591 q 312 626 296 618 l 352 644 l 478 375 z "},"/":{"ha":581,"x_min":-15,"x_max":607,"o":"m 106 -17 q 75 -51 95 -40 q 36 -63 55 -63 l -15 -63 l 489 964 q 517 996 499 984 q 556 1008 534 1008 l 607 1008 l 106 -17 z "},"|":{"ha":359,"x_min":131,"x_max":226,"o":"m 131 1065 l 226 1065 l 226 -238 l 131 -238 l 131 1065 z "},"¦":{"ha":358,"x_min":130,"x_max":226,"o":"m 130 1065 l 226 1065 l 226 513 l 130 513 l 130 1065 m 130 314 l 226 314 l 226 -238 l 130 -238 l 130 314 z "},"\\":{"ha":576,"x_min":115,"x_max":473,"o":"m 115 1008 l 165 1008 q 202 996 188 1008 q 223 964 217 984 l 473 -63 l 424 -63 q 387 -51 404 -63 q 364 -17 369 -40 l 115 1008 z "},"-":{"ha":488,"x_min":78,"x_max":408,"o":"m 90 467 l 408 467 l 395 365 l 78 365 l 90 467 z "},"–":{"ha":806,"x_min":140,"x_max":661,"o":"m 150 453 l 661 453 l 651 366 l 140 366 l 150 453 z "},"—":{"ha":1022,"x_min":78,"x_max":940,"o":"m 88 453 l 940 453 l 928 366 l 78 366 l 88 453 z "},"_":{"ha":617,"x_min":-19,"x_max":495,"o":"m 495 -117 l 485 -197 l -19 -197 l -9 -117 l 495 -117 z "},"•":{"ha":806,"x_min":143,"x_max":659,"o":"m 143 413 q 164 514 143 467 q 219 596 184 561 q 300 652 253 631 q 400 672 347 672 q 501 652 453 672 q 583 596 548 631 q 639 514 618 561 q 659 413 659 467 q 639 313 659 360 q 583 231 618 266 q 501 176 548 197 q 400 156 453 156 q 300 176 347 156 q 219 231 253 197 q 164 313 184 266 q 143 413 143 360 z "},"·":{"ha":357,"x_min":73,"x_max":280,"o":"m 73 412 q 81 453 73 433 q 103 486 89 472 q 136 508 117 500 q 175 517 154 517 q 216 508 197 517 q 249 486 235 500 q 272 453 263 472 q 280 412 280 433 q 272 372 280 391 q 249 339 263 353 q 216 317 235 325 q 175 309 197 309 q 136 317 154 309 q 103 339 117 325 q 81 372 89 353 q 73 412 73 391 z "},"(":{"ha":359,"x_min":59,"x_max":391,"o":"m 165 306 q 169 200 165 255 q 184 89 174 144 q 208 -20 193 33 q 241 -120 222 -74 q 242 -152 249 -141 q 224 -170 235 -163 l 168 -202 q 118 -79 139 -142 q 85 49 98 -15 q 65 175 72 113 q 59 295 59 238 q 70 484 59 392 q 111 670 81 576 q 192 864 140 764 q 324 1076 243 963 l 374 1043 q 387 1025 383 1036 q 378 994 391 1014 q 287 836 326 915 q 220 674 247 757 q 179 500 193 590 q 165 306 165 409 z "},")":{"ha":358,"x_min":-26,"x_max":303,"o":"m 199 567 q 194 674 199 618 q 179 785 189 729 q 155 894 169 840 q 122 994 140 947 q 120 1025 114 1014 q 138 1043 126 1036 l 195 1076 q 244 952 224 1015 q 277 825 265 889 q 297 699 290 761 q 303 578 303 636 q 292 389 303 481 q 251 203 281 297 q 171 10 222 109 q 38 -202 119 -90 l -11 -170 q -19 -162 -16 -167 q -24 -152 -23 -158 q -24 -139 -26 -147 q -15 -120 -22 -131 q 76 40 36 -41 q 143 205 115 120 q 184 380 170 290 q 199 567 199 470 z "},"[":{"ha":403,"x_min":47,"x_max":440,"o":"m 435 1017 q 423 994 433 1003 q 398 985 412 985 l 293 985 l 156 -120 l 263 -120 q 284 -130 276 -120 q 291 -153 292 -139 l 285 -199 l 47 -199 l 202 1064 l 440 1064 l 435 1017 z "},"]":{"ha":403,"x_min":-35,"x_max":359,"o":"m 203 -199 l -35 -199 l -29 -153 q -17 -130 -28 -139 q 8 -120 -7 -120 l 113 -120 l 249 985 l 144 985 q 121 994 128 985 q 115 1017 113 1003 l 120 1064 l 359 1064 l 203 -199 z "},"{":{"ha":394,"x_min":46,"x_max":429,"o":"m 429 1064 l 423 1010 q 411 991 422 997 q 393 985 400 985 l 381 985 q 296 945 329 985 q 259 832 263 906 q 256 768 256 799 q 257 707 256 738 q 258 648 258 677 q 256 592 258 619 q 245 533 254 560 q 220 486 235 506 q 184 452 204 466 q 140 432 163 438 q 200 389 178 421 q 222 313 222 357 q 211 232 222 272 q 189 152 201 192 q 166 72 176 113 q 156 -12 156 31 q 179 -91 156 -61 q 245 -120 202 -120 l 258 -120 q 274 -126 265 -120 q 281 -146 283 -133 l 274 -199 l 240 -199 q 157 -185 192 -199 q 98 -147 122 -172 q 63 -88 74 -122 q 51 -14 51 -54 q 62 74 51 32 q 86 155 73 115 q 110 234 99 195 q 122 315 122 274 q 102 374 122 351 q 46 397 83 397 l 55 469 q 132 510 106 469 q 157 638 157 551 q 156 671 157 653 q 154 709 155 690 q 152 746 153 728 q 151 780 151 765 q 167 900 151 847 q 214 989 183 953 q 290 1045 244 1026 q 395 1064 335 1064 l 429 1064 z "},"}":{"ha":395,"x_min":-32,"x_max":352,"o":"m 158 1064 q 241 1050 206 1064 q 300 1011 276 1036 q 335 953 323 987 q 347 878 347 919 q 336 791 347 833 q 312 710 325 749 q 288 631 299 670 q 277 551 277 592 q 296 492 277 515 q 352 469 315 469 l 343 397 q 267 355 292 397 q 241 227 241 314 q 242 194 241 213 q 243 157 242 176 q 245 119 244 138 q 247 85 247 101 q 231 -35 247 18 q 184 -124 215 -87 q 108 -180 153 -160 q 3 -199 62 -199 l -32 -199 l -24 -146 q -13 -126 -23 -133 q 5 -120 -3 -120 l 17 -120 q 102 -80 69 -120 q 139 33 135 -40 q 142 97 142 65 q 141 158 142 128 q 140 216 140 188 q 142 273 140 245 q 153 332 144 305 q 179 378 163 358 q 215 413 194 399 q 258 433 235 426 q 198 476 220 444 q 176 552 176 508 q 186 633 176 593 q 209 713 197 673 q 232 793 222 753 q 242 878 242 834 q 219 956 242 926 q 153 985 196 985 l 141 985 q 124 991 133 985 q 117 1010 115 997 l 124 1064 l 158 1064 z "},"*":{"ha":549,"x_min":117,"x_max":526,"o":"m 408 840 q 384 828 396 833 q 360 823 372 824 q 383 818 372 822 q 404 806 394 814 l 505 735 l 470 685 l 369 755 q 351 769 359 762 q 337 785 342 776 q 340 739 344 765 l 323 601 l 264 601 l 281 738 q 295 785 285 765 q 278 769 288 776 q 256 755 268 762 l 139 685 l 117 736 l 233 806 q 259 818 247 814 q 285 823 271 822 q 238 840 259 825 l 137 910 l 172 961 l 273 891 q 292 876 283 884 q 306 858 300 868 q 301 907 299 881 l 319 1045 l 378 1045 l 360 908 q 356 882 359 894 q 345 859 352 871 q 364 876 353 869 q 386 891 374 884 l 503 960 l 526 910 l 408 840 z "},"†":{"ha":806,"x_min":128,"x_max":732,"o":"m 482 683 q 533 689 507 685 q 584 696 558 692 q 633 703 609 700 q 679 706 658 706 q 720 689 708 706 q 729 653 732 673 l 724 613 l 473 613 l 435 304 l 385 -233 q 355 -245 372 -241 q 321 -249 338 -249 q 288 -245 303 -249 q 261 -233 273 -241 l 342 304 l 380 613 l 128 613 l 133 653 q 151 689 135 673 q 197 706 167 706 q 289 696 240 705 q 388 683 339 688 l 413 1007 q 476 1022 440 1022 q 537 1007 512 1022 l 482 683 z "},"‡":{"ha":806,"x_min":68,"x_max":735,"o":"m 484 683 q 586 696 534 688 q 682 706 638 705 q 723 689 711 706 q 732 653 735 673 l 727 613 l 475 613 l 447 381 l 419 161 l 671 161 l 667 121 q 648 84 664 100 q 603 67 633 67 q 510 77 560 69 q 411 90 460 85 l 388 -233 q 358 -245 374 -241 q 324 -249 341 -249 q 263 -233 287 -249 l 319 90 q 216 77 269 85 q 120 67 164 69 q 80 84 91 67 q 70 121 68 100 l 76 161 l 328 161 l 354 381 l 383 613 l 131 613 l 136 653 q 154 689 138 673 q 199 706 169 706 q 292 696 242 705 q 391 683 342 688 l 415 1007 q 479 1022 444 1022 q 540 1007 515 1022 l 484 683 z "},"§":{"ha":642,"x_min":26,"x_max":607,"o":"m 397 321 q 455 371 438 341 q 472 438 472 401 q 453 495 472 472 q 405 538 435 519 q 340 573 376 556 q 270 610 304 590 q 202 558 222 585 q 183 494 183 530 q 203 439 183 462 q 254 396 223 415 q 323 359 285 377 q 397 321 361 342 m 576 880 q 549 865 565 865 q 527 873 539 865 q 500 890 516 881 q 460 907 483 899 q 404 915 438 915 q 345 906 372 915 q 301 880 319 896 q 272 842 282 864 q 262 797 262 821 q 285 743 262 765 q 344 701 309 720 q 421 662 380 681 q 498 617 463 642 q 557 556 533 591 q 581 472 581 522 q 550 359 581 408 q 453 281 519 309 q 493 228 478 258 q 509 159 509 199 q 490 63 509 108 q 436 -15 472 18 q 350 -68 401 -49 q 233 -87 299 -87 q 113 -63 166 -87 q 26 -2 60 -40 l 60 44 q 74 57 66 53 q 94 61 82 61 q 118 51 106 61 q 146 30 129 42 q 189 8 163 18 q 253 -1 214 -1 q 316 9 288 -1 q 362 36 343 19 q 391 78 381 54 q 401 131 401 102 q 387 180 401 159 q 350 217 373 201 q 298 248 327 234 q 238 276 268 262 q 177 308 207 291 q 125 346 148 324 q 88 397 102 368 q 74 464 74 425 q 107 574 74 525 q 212 650 141 623 q 170 704 186 674 q 154 778 154 735 q 172 864 154 823 q 224 936 190 905 q 305 986 257 967 q 414 1004 353 1004 q 526 983 477 1004 q 607 924 574 961 l 576 880 z "},"¶":{"ha":966,"x_min":79,"x_max":989,"o":"m 976 889 l 824 889 l 697 -140 l 589 -140 l 715 889 l 522 889 l 397 -140 l 288 -140 l 360 458 q 244 476 297 458 q 156 524 192 493 q 99 599 119 556 q 79 697 79 643 q 104 814 79 759 q 175 908 129 868 q 285 972 221 949 q 426 995 349 995 l 989 995 l 976 889 z "},"^":{"ha":806,"x_min":149,"x_max":727,"o":"m 727 547 l 637 547 q 617 553 625 547 q 603 570 608 560 l 467 815 q 451 845 458 831 q 440 875 445 860 q 414 815 431 847 l 280 570 q 266 553 274 560 q 244 547 258 547 l 149 547 l 399 995 l 478 995 l 727 547 z "},"~":{"ha":806,"x_min":81,"x_max":724,"o":"m 528 426 q 598 455 573 426 q 624 533 623 485 l 724 533 q 711 448 724 487 q 675 381 699 409 q 615 338 651 353 q 535 323 580 323 q 464 334 499 323 q 395 359 428 345 q 333 384 363 372 q 277 395 303 395 q 207 366 232 395 q 181 288 181 337 l 81 288 q 93 373 81 334 q 130 440 106 412 q 189 483 154 467 q 269 499 224 499 q 341 487 306 499 q 409 462 376 476 q 472 437 442 449 q 528 426 502 426 z "},"'":{"ha":270,"x_min":125,"x_max":256,"o":"m 256 994 l 231 793 l 208 685 q 192 652 202 664 q 160 640 181 640 q 134 652 142 640 q 125 685 126 664 l 127 793 l 153 994 l 256 994 z "},"\"":{"ha":483,"x_min":125,"x_max":469,"o":"m 256 994 l 231 793 l 208 685 q 192 652 202 664 q 160 640 181 640 q 134 652 142 640 q 125 685 126 664 l 127 793 l 153 994 l 256 994 m 469 994 l 444 793 l 420 685 q 404 652 415 664 q 373 640 394 640 q 347 652 355 640 q 338 685 339 664 l 340 793 l 365 994 l 469 994 z "},"&":{"ha":913,"x_min":38,"x_max":855,"o":"m 322 489 q 202 384 242 446 q 162 248 162 322 q 174 179 162 209 q 207 128 186 149 q 258 96 228 107 q 321 85 287 85 q 445 115 387 85 q 552 194 504 145 l 322 489 m 855 0 l 752 0 q 727 2 738 0 q 708 8 716 3 q 692 19 699 12 q 676 35 685 26 l 610 120 q 465 24 544 60 q 295 -11 385 -11 q 191 6 238 -11 q 110 55 144 23 q 57 131 76 86 q 38 233 38 176 q 57 336 38 288 q 107 426 75 385 q 183 499 140 467 q 276 552 226 531 q 236 642 249 598 q 224 731 224 687 q 243 838 224 788 q 300 925 263 888 q 388 983 336 962 q 501 1005 439 1005 q 593 989 552 1005 q 661 944 633 972 q 703 877 689 915 q 717 794 717 838 l 647 781 q 623 782 631 777 q 610 802 615 787 q 599 841 607 822 q 576 876 590 860 q 540 902 561 892 q 491 912 519 912 q 427 899 456 912 q 378 862 399 885 q 347 807 358 839 q 335 740 335 776 q 403 573 335 661 l 626 290 q 674 384 655 335 q 702 482 693 433 q 711 502 705 494 q 731 510 717 510 l 813 510 q 771 353 803 430 q 690 209 739 276 l 855 0 z "},"@":{"ha":1067,"x_min":61,"x_max":1019,"o":"m 690 572 q 637 578 665 578 q 541 554 586 578 q 462 490 496 529 q 409 400 428 450 q 389 300 389 351 q 406 235 389 260 q 459 210 424 210 q 499 217 478 210 q 540 242 519 224 q 579 290 560 260 q 615 367 599 320 l 690 572 m 708 377 q 686 290 690 324 q 689 238 682 256 q 711 212 696 219 q 746 206 726 206 q 816 230 782 206 q 875 298 849 254 q 917 403 901 342 q 933 538 933 465 q 910 679 933 618 q 844 781 886 740 q 743 843 801 822 q 614 864 684 864 q 436 823 520 864 q 288 710 351 783 q 187 537 224 637 q 149 318 149 437 q 177 144 149 220 q 255 18 205 69 q 373 -60 304 -33 q 524 -86 442 -86 q 697 -64 622 -86 q 823 -10 772 -42 q 843 -2 834 -3 q 857 -4 851 -1 q 867 -12 863 -6 q 872 -24 870 -17 l 881 -59 q 716 -137 807 -109 q 515 -166 626 -166 q 330 -133 413 -166 q 187 -38 247 -100 q 94 113 127 24 q 61 313 61 201 q 82 482 61 401 q 140 632 103 563 q 229 759 177 702 q 344 857 281 817 q 477 920 406 898 q 624 942 548 942 q 777 915 705 942 q 902 835 849 888 q 988 708 956 783 q 1019 538 1019 633 q 995 375 1019 449 q 930 245 971 300 q 835 160 889 191 q 720 129 781 129 q 643 155 672 129 q 612 234 615 181 q 522 155 568 179 q 425 131 475 131 q 367 143 392 131 q 326 176 342 155 q 302 225 310 197 q 294 287 294 253 q 306 372 294 328 q 339 457 317 416 q 392 533 360 497 q 465 597 424 569 q 556 639 506 624 q 664 655 606 655 q 740 648 708 655 q 799 627 772 641 l 708 377 z "},"©":{"ha":1154,"x_min":79,"x_max":1094,"o":"m 764 329 q 782 322 774 330 l 824 277 q 727 206 785 231 q 590 181 669 181 q 465 204 522 181 q 369 270 409 228 q 307 371 329 313 q 285 499 285 429 q 309 627 285 569 q 376 728 333 686 q 476 793 418 770 q 602 817 534 817 q 730 793 678 817 q 822 731 783 770 l 790 686 q 781 678 787 682 q 767 674 776 674 q 747 681 758 674 q 719 698 736 689 q 675 716 702 708 q 608 724 649 724 q 520 708 559 724 q 453 663 481 692 q 411 592 426 634 q 396 499 396 551 q 411 403 396 445 q 452 333 426 361 q 515 289 478 304 q 595 274 552 274 q 656 280 631 274 q 698 293 680 285 q 732 311 717 301 q 764 329 747 321 m 79 497 q 97 632 79 567 q 148 754 115 697 q 228 857 181 810 q 331 936 274 903 q 451 988 387 969 q 586 1006 516 1006 q 721 988 656 1006 q 842 936 786 969 q 945 857 899 903 q 1025 754 992 810 q 1076 632 1058 697 q 1094 497 1094 567 q 1076 363 1094 428 q 1025 242 1058 298 q 945 139 992 185 q 842 60 899 93 q 721 8 786 26 q 586 -10 656 -10 q 451 8 516 -10 q 331 60 387 26 q 228 139 274 93 q 148 242 181 185 q 97 363 115 298 q 79 497 79 427 m 149 497 q 164 378 149 435 q 208 272 179 322 q 276 182 236 222 q 364 113 315 142 q 469 68 413 84 q 586 53 525 53 q 704 68 647 53 q 809 113 760 84 q 898 182 858 142 q 967 272 938 222 q 1011 378 995 322 q 1026 497 1026 435 q 992 672 1026 590 q 898 814 958 753 q 758 910 839 875 q 586 945 678 945 q 415 910 494 945 q 276 814 335 875 q 183 672 217 753 q 149 497 149 590 z "},"℗":{"ha":1154,"x_min":79,"x_max":1094,"o":"m 588 490 q 658 499 630 490 q 703 524 686 508 q 726 563 719 540 q 733 611 733 585 q 727 658 733 637 q 705 694 720 679 q 663 717 689 709 q 599 725 637 725 l 507 725 l 507 490 l 588 490 m 599 808 q 706 793 660 808 q 781 752 751 778 q 825 690 810 726 q 840 611 840 653 q 825 534 840 571 q 781 470 810 498 q 705 427 751 443 q 595 411 658 411 l 507 411 l 507 189 l 399 189 l 399 808 l 599 808 m 586 53 q 704 68 647 53 q 809 113 760 84 q 898 182 858 142 q 967 272 938 222 q 1011 378 995 322 q 1026 497 1026 435 q 992 672 1026 590 q 898 814 958 753 q 758 910 839 875 q 586 945 678 945 q 415 910 494 945 q 276 814 335 875 q 183 672 217 753 q 149 497 149 590 q 164 378 149 435 q 208 272 179 322 q 276 182 236 222 q 364 113 315 142 q 469 68 413 84 q 586 53 525 53 m 586 1006 q 721 988 656 1006 q 842 936 786 969 q 945 857 899 903 q 1025 754 992 810 q 1076 632 1058 697 q 1094 497 1094 567 q 1076 363 1094 428 q 1025 242 1058 298 q 945 139 992 185 q 842 60 899 93 q 721 8 786 26 q 586 -10 656 -10 q 451 8 516 -10 q 331 60 387 26 q 228 139 274 93 q 148 242 181 185 q 97 363 115 298 q 79 497 79 427 q 97 632 79 567 q 148 754 115 697 q 228 857 181 810 q 331 936 274 903 q 451 988 387 969 q 586 1006 516 1006 z "},"®":{"ha":1154,"x_min":79,"x_max":1094,"o":"m 567 514 q 632 521 605 514 q 675 542 658 528 q 698 576 691 556 q 706 623 706 597 q 699 668 706 649 q 678 700 693 688 q 639 719 663 713 q 578 725 614 725 l 486 725 l 486 514 l 567 514 m 578 808 q 755 765 698 808 q 813 637 813 722 q 776 526 813 572 q 665 463 739 481 q 685 445 677 456 q 701 421 694 435 l 860 189 l 757 189 q 724 206 734 189 l 583 416 q 569 430 578 426 q 542 435 560 435 l 486 435 l 486 189 l 378 189 l 378 808 l 578 808 m 586 53 q 704 68 647 53 q 809 113 760 84 q 898 182 858 142 q 967 272 938 222 q 1011 378 995 322 q 1026 497 1026 435 q 992 672 1026 590 q 898 814 958 753 q 758 910 839 875 q 586 945 678 945 q 415 910 494 945 q 276 814 335 875 q 183 672 217 753 q 149 497 149 590 q 164 378 149 435 q 208 272 179 322 q 276 182 236 222 q 364 113 315 142 q 469 68 413 84 q 586 53 525 53 m 586 1006 q 721 988 656 1006 q 842 936 786 969 q 945 857 899 903 q 1025 754 992 810 q 1076 632 1058 697 q 1094 497 1094 567 q 1076 363 1094 428 q 1025 242 1058 298 q 945 139 992 185 q 842 60 899 93 q 721 8 786 26 q 586 -10 656 -10 q 451 8 516 -10 q 331 60 387 26 q 228 139 274 93 q 148 242 181 185 q 97 363 115 298 q 79 497 79 427 q 97 632 79 567 q 148 754 115 697 q 228 857 181 810 q 331 936 274 903 q 451 988 387 969 q 586 1006 516 1006 z "},"™":{"ha":962,"x_min":115,"x_max":929,"o":"m 124 994 l 435 994 l 426 924 l 313 924 l 271 584 l 188 584 l 228 924 l 115 924 l 124 994 m 929 994 l 880 584 l 806 584 l 838 841 l 849 892 l 706 656 q 674 638 694 638 l 663 638 q 646 642 653 638 q 636 656 639 647 l 551 889 l 549 841 l 518 584 l 444 584 l 494 994 l 565 994 q 581 991 576 994 q 592 980 586 989 l 671 767 q 680 731 676 751 q 688 749 683 741 q 698 767 692 758 l 829 980 q 842 991 837 989 q 859 994 848 994 l 929 994 z "},"℠":{"ha":959,"x_min":110,"x_max":928,"o":"m 134 674 q 143 682 138 678 q 153 685 148 685 q 167 679 160 685 q 184 666 174 673 q 207 652 193 658 q 240 647 220 647 q 290 666 273 647 q 307 713 307 685 q 295 740 307 730 q 267 756 284 749 q 230 770 250 763 q 193 788 210 776 q 165 818 176 799 q 153 868 153 837 q 164 919 153 895 q 192 963 174 944 q 238 992 211 981 q 297 1003 264 1003 q 359 992 331 1003 q 405 960 387 981 l 385 922 q 366 911 378 911 q 354 915 360 911 q 340 925 348 919 q 319 934 331 930 q 290 939 307 939 q 245 924 263 939 q 228 884 228 908 q 239 859 228 869 q 268 843 251 850 q 305 829 285 836 q 342 810 325 822 q 371 780 360 798 q 383 731 383 761 q 372 673 383 701 q 341 625 361 646 q 293 593 322 605 q 231 581 265 581 q 162 597 194 581 q 110 636 129 612 l 134 674 m 928 994 l 878 585 l 805 585 l 836 842 l 848 892 l 705 656 q 674 638 694 638 l 661 638 q 635 656 642 638 l 549 890 l 549 842 l 517 585 l 443 585 l 493 994 l 565 994 q 581 992 576 994 q 591 981 585 990 l 669 767 q 678 732 675 751 q 697 767 687 749 l 828 981 q 842 992 836 990 q 858 994 847 994 l 928 994 z "},"°":{"ha":569,"x_min":101,"x_max":553,"o":"m 101 783 q 119 871 101 830 q 167 942 137 912 q 238 990 197 972 q 326 1007 279 1007 q 416 990 374 1007 q 488 942 457 972 q 536 871 518 912 q 553 783 553 830 q 536 697 553 738 q 488 626 518 656 q 416 578 457 596 q 326 560 374 560 q 238 578 279 560 q 167 626 197 596 q 119 697 137 656 q 101 783 101 738 m 188 783 q 199 728 188 753 q 228 684 209 703 q 272 655 247 665 q 326 644 297 644 q 381 655 356 644 q 425 684 406 665 q 454 728 444 703 q 465 783 465 753 q 454 838 465 812 q 425 882 444 863 q 381 912 406 901 q 326 923 356 923 q 272 912 297 923 q 228 882 247 901 q 199 838 209 863 q 188 783 188 812 z "},"¤":{"ha":806,"x_min":94,"x_max":716,"o":"m 249 467 q 261 407 249 435 q 295 357 274 378 q 344 324 316 336 q 405 311 373 311 q 466 324 438 311 q 516 357 495 336 q 550 407 538 378 q 563 467 563 435 q 550 528 563 499 q 516 578 538 556 q 466 611 495 599 q 405 624 438 624 q 344 611 373 624 q 295 578 316 599 q 261 528 274 556 q 249 467 249 499 m 653 158 l 547 263 q 481 231 517 242 q 405 219 445 219 q 330 230 365 219 q 265 262 295 242 l 158 156 l 97 219 l 201 324 q 169 391 181 355 q 157 467 157 427 q 168 542 157 506 q 200 607 180 577 l 94 713 l 157 776 l 263 670 q 329 703 293 692 q 405 715 365 715 q 480 704 444 715 q 546 672 515 692 l 651 778 l 714 715 l 609 610 q 642 543 630 579 q 653 467 653 507 q 642 392 653 427 q 610 326 631 357 l 716 222 l 653 158 z "},"€":{"ha":806,"x_min":11,"x_max":827,"o":"m 40 623 l 138 623 q 202 782 161 711 q 300 902 244 853 q 424 978 356 951 q 570 1004 492 1004 q 724 970 663 1004 q 827 875 786 935 l 781 829 q 769 819 775 823 q 753 815 763 815 q 731 828 742 815 q 699 858 719 842 q 647 887 679 874 q 562 900 615 900 q 461 882 508 900 q 376 828 415 864 q 308 741 337 793 q 260 623 278 690 l 649 623 l 646 585 q 633 564 644 573 q 606 554 623 554 l 246 554 q 239 505 242 530 q 235 453 237 480 l 565 453 l 560 416 q 548 394 558 404 q 521 385 537 385 l 235 385 q 298 168 240 243 q 456 94 356 94 q 552 109 513 94 q 616 144 590 125 q 657 178 642 163 q 685 194 673 194 q 695 192 692 194 q 703 185 699 191 l 748 138 q 614 29 690 68 q 438 -10 537 -10 q 300 18 360 -10 q 198 98 240 47 q 135 223 157 150 q 112 385 114 296 l 11 385 l 19 453 l 113 453 q 124 554 115 505 l 33 554 l 40 623 z "},"$":{"ha":806,"x_min":31,"x_max":761,"o":"m 460 901 q 373 882 410 897 q 311 843 336 866 q 275 790 287 819 q 263 727 263 760 q 274 676 263 698 q 303 637 285 654 q 347 607 322 620 q 400 583 372 594 l 460 901 m 383 91 q 474 113 434 96 q 542 158 514 131 q 584 222 569 186 q 598 300 598 258 q 586 353 598 331 q 554 392 574 376 q 507 421 534 409 q 449 444 480 433 l 383 91 m 556 1001 q 676 964 626 992 q 761 895 726 935 l 728 851 q 694 831 713 831 q 672 840 685 831 q 640 860 659 849 q 596 884 622 872 q 536 900 570 895 l 472 559 q 560 527 516 544 q 638 485 603 510 q 694 422 672 459 q 715 329 715 384 q 691 204 715 263 q 621 98 667 144 q 510 23 575 52 q 363 -10 444 -6 l 340 -134 q 327 -156 338 -147 q 302 -166 316 -166 l 258 -166 l 288 -9 q 140 33 205 -1 q 31 119 75 67 l 74 173 q 89 185 80 181 q 108 190 98 190 q 135 177 120 190 q 173 147 151 164 q 227 114 195 130 q 307 92 260 97 l 378 467 q 294 497 335 480 q 220 540 253 514 q 168 605 188 566 q 148 700 148 643 q 171 811 148 758 q 237 907 194 865 q 342 975 280 949 q 481 1004 403 1001 l 499 1104 q 512 1127 501 1117 q 537 1138 522 1138 l 581 1138 l 556 1001 z "},"¢":{"ha":806,"x_min":85,"x_max":727,"o":"m 459 621 q 349 593 397 617 q 269 528 301 569 q 220 430 237 487 q 203 305 203 374 q 244 157 203 213 q 358 87 284 101 l 459 621 m 551 708 q 651 679 608 701 q 727 623 694 657 l 692 581 q 680 570 685 574 q 665 567 674 567 q 646 574 656 567 q 620 588 635 580 q 585 605 606 597 q 534 618 564 613 l 432 83 q 508 96 476 85 q 561 119 540 107 q 598 140 583 131 q 623 149 613 149 q 644 139 638 149 l 672 97 q 558 23 626 49 q 415 -8 491 -3 l 392 -131 q 378 -155 388 -144 q 354 -165 368 -165 l 310 -165 l 340 -8 q 236 23 283 -1 q 156 86 189 47 q 104 179 122 125 q 85 299 85 233 q 112 461 85 387 q 190 591 139 536 q 313 678 240 647 q 476 713 385 710 l 500 838 q 513 861 503 851 q 538 871 523 871 l 582 871 l 551 708 z "},"£":{"ha":806,"x_min":0,"x_max":792,"o":"m 608 459 q 595 437 606 447 q 569 427 585 427 l 274 427 l 253 249 q 228 160 247 197 q 176 94 209 124 q 217 101 197 99 q 258 103 238 103 l 734 103 l 728 53 q 723 34 727 44 q 710 17 718 25 q 692 5 702 10 q 670 0 682 0 l 0 0 l 9 78 q 54 95 34 85 q 88 123 74 106 q 113 162 103 139 q 126 217 122 185 l 151 427 l 38 427 l 44 476 q 56 498 45 488 q 83 508 67 508 l 161 508 l 184 692 q 220 814 192 757 q 292 914 247 872 q 399 981 338 956 q 535 1005 460 1005 q 636 992 593 1005 q 709 956 678 978 q 760 901 740 933 q 792 833 780 869 l 740 802 q 707 795 722 794 q 681 812 692 797 q 656 848 669 831 q 626 877 644 865 q 584 896 609 889 q 524 903 560 903 q 441 888 478 903 q 376 845 404 873 q 330 779 348 818 q 307 692 313 740 l 284 508 l 613 508 l 608 459 l 608 459 z "},"¥":{"ha":806,"x_min":78,"x_max":838,"o":"m 483 433 l 699 433 l 690 365 l 453 365 l 444 292 l 681 292 l 673 223 l 435 223 l 408 0 l 288 0 l 315 223 l 78 223 l 86 292 l 324 292 l 333 365 l 95 365 l 103 433 l 319 433 l 103 994 l 203 994 q 230 986 220 994 q 244 964 240 978 l 391 566 q 402 523 398 542 q 408 484 406 503 q 424 523 415 503 q 444 566 433 543 l 688 964 q 708 985 696 976 q 736 994 719 994 l 838 994 l 483 433 z "},"℅":{"ha":1074,"x_min":67,"x_max":1019,"o":"m 857 974 q 874 988 865 982 q 900 994 884 994 l 986 994 l 195 19 q 177 5 188 10 q 155 0 167 0 l 67 0 l 857 974 m 411 616 q 424 610 418 616 l 455 570 q 377 512 422 532 q 276 492 333 492 q 192 508 228 492 q 130 554 156 525 q 92 624 105 583 q 78 712 78 664 q 99 832 78 777 q 155 926 119 886 q 240 987 191 965 q 344 1009 288 1009 q 434 991 397 1009 q 494 943 472 972 l 458 899 q 450 892 455 895 q 438 888 446 888 q 424 894 431 888 q 406 908 417 901 q 378 922 394 916 q 334 928 361 928 q 270 914 300 928 q 219 873 241 900 q 185 807 198 846 q 173 720 173 769 q 182 658 173 685 q 207 610 191 630 q 244 581 222 591 q 291 571 265 571 q 348 580 325 571 q 395 610 372 588 q 403 614 399 613 q 411 616 407 616 m 1019 282 q 999 166 1019 219 q 942 73 978 112 q 856 11 906 33 q 747 -11 806 -11 q 659 6 698 -11 q 594 53 621 23 q 552 124 567 83 q 538 213 538 165 q 559 329 538 275 q 616 422 579 383 q 702 484 652 462 q 810 506 752 506 q 898 489 859 506 q 963 442 936 472 q 1005 371 990 412 q 1019 282 1019 330 m 924 278 q 892 386 924 347 q 801 426 860 426 q 732 411 763 426 q 678 369 701 397 q 644 303 656 342 q 632 215 632 264 q 665 108 632 147 q 757 69 698 69 q 826 83 795 69 q 879 125 857 98 q 913 191 901 152 q 924 278 924 230 z "},"№":{"ha":1491,"x_min":83,"x_max":1467,"o":"m 1273 926 q 1217 914 1242 926 q 1174 879 1192 901 q 1146 825 1156 857 q 1136 753 1136 793 q 1163 666 1136 698 q 1237 633 1189 633 q 1293 645 1268 633 q 1336 680 1318 657 q 1364 734 1354 702 q 1374 806 1374 766 q 1347 893 1374 861 q 1273 926 1321 926 m 1228 551 q 1151 566 1185 551 q 1093 608 1117 581 q 1056 670 1069 634 q 1044 749 1044 706 q 1062 851 1044 803 q 1112 932 1080 898 q 1188 986 1144 967 q 1283 1006 1231 1006 q 1360 991 1326 1006 q 1418 949 1394 976 q 1455 887 1442 923 q 1467 808 1467 851 q 1449 706 1467 753 q 1399 625 1431 659 q 1323 571 1367 590 q 1228 551 1279 551 m 838 994 l 952 994 l 830 0 l 764 0 q 739 6 749 0 q 721 24 729 11 l 290 779 q 288 748 290 763 q 285 718 287 732 l 197 0 l 83 0 l 206 994 l 272 994 q 298 990 290 994 q 315 972 306 986 l 746 216 q 750 281 747 252 l 838 994 m 1008 460 l 1423 460 l 1413 375 l 998 375 l 1008 460 z "},"#":{"ha":806,"x_min":25,"x_max":803,"o":"m 533 613 l 358 613 l 284 383 l 458 383 l 533 613 m 803 699 l 788 650 q 769 622 782 631 q 730 613 756 613 l 631 613 l 557 383 l 683 383 q 710 372 702 383 q 710 333 717 360 l 699 294 l 533 294 l 439 0 l 384 0 q 357 15 366 0 q 356 52 348 30 l 435 294 l 260 294 l 181 46 q 156 10 173 21 q 119 0 140 0 l 66 0 l 162 294 l 59 294 q 33 306 40 294 q 33 344 25 317 l 43 383 l 185 383 l 260 613 l 98 613 l 112 662 q 131 690 117 681 q 171 699 144 699 l 283 699 l 365 951 q 387 983 372 972 q 423 994 403 994 l 477 994 l 381 699 l 555 699 l 651 994 l 704 994 q 733 982 723 994 q 736 949 743 969 l 654 699 l 803 699 z "},"₀":{"ha":464,"x_min":-1,"x_max":385,"o":"m 385 145 q 366 9 385 67 q 317 -87 348 -49 q 245 -144 285 -126 q 160 -162 204 -162 q 95 -150 125 -162 q 44 -111 66 -137 q 11 -46 23 -85 q -1 45 -1 -7 q 17 182 -1 124 q 65 278 35 240 q 137 335 96 317 q 223 354 178 354 q 287 341 258 354 q 339 302 317 328 q 373 237 360 276 q 385 145 385 198 m 297 155 q 291 215 297 191 q 274 255 285 240 q 247 277 263 270 q 213 283 231 283 q 167 273 190 283 q 126 234 144 262 q 97 159 108 207 q 85 38 85 112 q 92 -23 85 2 q 109 -62 98 -47 q 135 -84 120 -78 q 167 -91 150 -91 q 217 -79 194 -91 q 259 -39 241 -67 q 287 37 276 -10 q 297 155 297 84 z "},"₁":{"ha":464,"x_min":43,"x_max":324,"o":"m 324 -92 l 317 -157 l 43 -157 l 51 -92 l 153 -92 l 191 210 l 198 241 l 114 177 q 90 172 101 168 q 75 181 79 175 l 53 219 l 222 350 l 295 350 l 241 -92 l 324 -92 z "},"₂":{"ha":464,"x_min":-18,"x_max":369,"o":"m 316 -78 q 336 -85 330 -78 q 342 -105 343 -92 l 335 -157 l -18 -157 l -14 -128 q -8 -110 -12 -119 q 5 -92 -4 -100 l 178 60 q 219 99 200 79 q 251 138 238 118 q 273 178 265 158 q 281 219 281 198 q 263 267 281 250 q 215 283 244 283 q 159 266 182 283 q 124 219 137 249 q 107 202 116 206 q 80 199 98 197 l 33 208 q 105 317 53 281 q 228 354 157 354 q 332 319 294 354 q 369 227 369 285 q 359 169 369 196 q 330 120 348 143 q 290 75 313 97 q 242 31 267 53 l 111 -87 q 176 -78 147 -78 l 316 -78 z "},"₃":{"ha":464,"x_min":-6,"x_max":368,"o":"m 38 208 q 66 272 47 244 q 109 317 84 299 q 164 345 134 335 q 228 354 194 354 q 286 345 260 354 q 331 320 313 336 q 358 283 349 305 q 368 237 368 262 q 273 108 368 140 q 331 73 312 97 q 350 10 350 49 q 333 -64 350 -31 q 290 -118 317 -96 q 228 -151 263 -140 q 158 -162 194 -162 q 90 -154 118 -162 q 43 -128 63 -145 q 13 -86 24 -111 q -6 -29 1 -62 l 34 -12 q 62 -10 49 -7 q 79 -24 75 -12 q 85 -42 81 -31 q 98 -64 89 -53 q 122 -82 107 -74 q 162 -90 138 -90 q 204 -82 185 -90 q 236 -61 223 -74 q 256 -32 249 -49 q 263 3 263 -15 q 238 54 263 37 q 154 71 214 71 l 161 133 q 253 155 224 134 q 282 219 282 176 q 264 266 282 250 q 215 281 245 281 q 158 265 181 281 q 124 219 136 248 q 107 201 116 206 q 82 199 99 197 l 38 208 z "},"₄":{"ha":464,"x_min":-22,"x_max":377,"o":"m 228 35 l 249 200 q 253 229 250 213 q 260 261 256 244 l 67 35 l 228 35 m 377 35 l 372 -16 q 366 -29 371 -24 q 351 -34 360 -34 l 293 -34 l 278 -157 l 204 -157 l 219 -34 l 6 -34 q -12 -28 -6 -34 q -19 -15 -18 -23 l -22 28 l 257 349 l 340 349 l 301 35 l 377 35 z "},"₅":{"ha":464,"x_min":-7,"x_max":367,"o":"m 367 349 l 363 313 q 347 282 360 294 q 308 270 334 270 l 167 270 l 135 160 q 227 166 188 171 q 292 143 266 160 q 332 98 319 126 q 345 37 345 71 q 328 -44 345 -8 q 283 -107 312 -81 q 216 -148 254 -133 q 134 -162 178 -162 q 51 -145 88 -162 q -7 -103 15 -128 l 24 -67 q 35 -57 28 -60 q 47 -54 41 -54 q 64 -60 56 -54 q 83 -72 72 -65 q 110 -85 94 -79 q 147 -90 125 -90 q 190 -83 170 -90 q 225 -61 210 -76 q 248 -26 240 -47 q 256 22 256 -6 q 247 62 256 45 q 217 88 237 79 q 166 96 197 97 q 95 83 136 95 l 45 98 l 118 349 l 367 349 z "},"₆":{"ha":464,"x_min":7,"x_max":363,"o":"m 172 -96 q 214 -88 194 -96 q 248 -66 234 -80 q 271 -32 263 -51 q 279 11 279 -12 q 258 69 279 49 q 200 90 238 90 q 155 82 175 90 q 121 59 135 74 q 99 26 107 45 q 92 -14 92 8 q 113 -73 92 -49 q 172 -96 134 -96 m 198 183 q 167 153 183 167 q 137 123 151 138 q 182 147 157 138 q 233 156 206 156 q 282 148 258 156 q 323 124 305 140 q 352 84 341 108 q 363 27 363 60 q 347 -47 363 -12 q 305 -107 332 -82 q 241 -148 278 -133 q 161 -162 204 -162 q 96 -151 124 -162 q 48 -120 67 -140 q 17 -72 28 -100 q 7 -10 7 -44 q 26 78 7 37 q 87 166 46 120 l 228 328 q 248 343 235 337 q 276 349 260 349 l 351 349 l 198 183 z "},"₇":{"ha":464,"x_min":26,"x_max":399,"o":"m 399 349 l 392 288 l 121 -157 l 26 -157 l 271 229 q 285 251 278 241 q 301 269 292 260 l 60 269 q 47 275 53 269 q 43 289 42 281 l 50 349 l 399 349 z "},"₈":{"ha":464,"x_min":1,"x_max":366,"o":"m 169 -96 q 241 -69 215 -96 q 268 3 268 -43 q 261 34 268 22 q 244 56 255 47 q 219 67 233 64 q 190 71 205 71 q 153 66 171 71 q 122 50 135 61 q 99 20 108 39 q 90 -26 90 2 q 110 -76 90 -56 q 169 -96 131 -96 m 216 290 q 179 283 195 290 q 151 264 163 276 q 134 237 140 253 q 128 203 128 221 q 145 157 128 175 q 198 138 163 138 q 265 163 243 138 q 286 226 286 188 q 269 270 286 251 q 216 290 251 290 m 279 106 q 337 66 318 92 q 356 2 356 40 q 341 -66 356 -35 q 300 -118 326 -97 q 239 -151 274 -139 q 161 -162 203 -162 q 95 -153 124 -162 q 44 -127 65 -144 q 13 -85 24 -110 q 1 -32 1 -61 q 28 55 1 19 q 108 107 54 91 q 63 145 78 121 q 48 203 48 169 q 61 263 48 235 q 99 311 75 291 q 155 343 122 331 q 225 354 187 354 q 283 345 257 354 q 327 319 309 335 q 356 281 346 303 q 366 233 366 259 q 344 156 366 188 q 279 106 323 123 z "},"₉":{"ha":464,"x_min":30,"x_max":370,"o":"m 114 187 q 134 133 114 152 q 190 113 153 113 q 232 121 213 113 q 265 142 251 128 q 286 173 278 155 q 293 210 293 190 q 272 266 293 245 q 216 288 250 288 q 142 260 169 288 q 114 187 114 233 m 196 22 q 222 50 210 37 q 247 76 235 63 q 205 58 227 65 q 158 52 182 52 q 109 61 132 52 q 68 86 86 69 q 40 126 51 102 q 30 179 30 149 q 44 245 30 213 q 85 301 59 276 q 146 340 110 325 q 222 354 181 354 q 284 343 257 354 q 331 313 312 333 q 360 267 350 294 q 370 209 370 241 q 349 114 370 156 q 293 28 328 72 l 156 -137 q 136 -151 149 -145 q 110 -157 124 -157 l 32 -157 l 196 22 z "},"₊":{"ha":464,"x_min":17,"x_max":364,"o":"m 357 53 l 220 53 l 203 -92 l 134 -92 l 151 53 l 17 53 l 24 117 l 160 117 l 177 260 l 246 260 l 228 117 l 364 117 l 357 53 z "},"₋":{"ha":464,"x_min":31,"x_max":349,"o":"m 39 117 l 349 117 l 341 53 l 31 53 l 39 117 z "},"₌":{"ha":464,"x_min":24,"x_max":356,"o":"m 31 56 l 341 56 l 333 -8 l 24 -8 l 31 56 m 47 179 l 356 179 l 349 115 l 39 115 l 47 179 z "},"₍":{"ha":232,"x_min":0,"x_max":190,"o":"m 75 27 q 77 -25 75 2 q 84 -80 80 -53 q 96 -134 89 -108 q 113 -183 103 -160 q 114 -204 119 -197 q 101 -217 109 -212 l 61 -240 q 15 -110 29 -178 q 0 21 0 -42 q 7 124 0 74 q 31 222 15 174 q 75 319 48 271 q 142 420 102 368 l 176 397 q 186 385 183 392 q 181 363 190 377 q 103 205 131 288 q 75 27 75 122 z "},"₎":{"ha":232,"x_min":-40,"x_max":149,"o":"m 75 147 q 73 199 75 172 q 65 254 70 226 q 52 308 60 281 q 36 357 45 334 q 35 378 31 371 q 48 390 40 386 l 89 413 q 135 284 120 352 q 149 153 149 216 q 142 52 149 101 q 119 -45 135 3 q 76 -143 103 -94 q 8 -247 49 -193 l -27 -223 q -37 -211 -34 -218 q -31 -190 -40 -203 q 47 -31 19 -114 q 75 147 75 52 z "},"⁄":{"ha":194,"x_min":-275,"x_max":487,"o":"m -158 37 q -190 8 -174 15 q -226 0 -206 0 l -275 0 l 367 952 q 398 983 381 972 q 438 994 415 994 l 487 994 l -158 37 z "},"⅔":{"ha":978,"x_min":70,"x_max":906,"o":"m 248 37 q 216 8 232 15 q 181 0 201 0 l 131 0 l 773 952 q 804 983 787 972 q 844 994 822 994 l 893 994 l 248 37 m 404 568 q 425 561 418 568 q 430 541 431 553 l 424 489 l 70 489 l 74 518 q 80 536 76 526 q 93 553 84 546 l 267 706 q 307 744 288 725 q 340 784 326 764 q 361 824 353 803 q 369 865 369 844 q 351 913 369 896 q 303 929 332 929 q 248 912 270 929 q 213 865 225 894 q 195 848 204 852 q 168 845 186 843 l 122 853 q 193 963 141 926 q 316 1000 245 1000 q 420 965 383 1000 q 458 873 458 931 q 447 815 458 842 q 418 766 436 789 q 378 720 401 742 q 330 676 355 699 l 199 558 q 264 568 235 568 l 404 568 m 575 365 q 603 428 585 401 q 647 474 622 456 q 702 502 672 492 q 765 511 732 511 q 824 502 798 511 q 868 477 850 493 q 896 440 886 462 q 906 394 906 419 q 810 265 906 297 q 868 230 849 253 q 888 167 888 206 q 871 93 888 126 q 827 39 854 61 q 766 6 800 17 q 695 -6 731 -6 q 628 3 656 -6 q 581 29 600 12 q 550 70 562 46 q 532 128 538 95 l 572 144 q 600 147 587 150 q 617 133 613 144 q 623 115 619 126 q 635 93 626 103 q 660 75 644 83 q 699 67 675 67 q 742 75 723 67 q 773 95 760 83 q 793 125 786 108 q 800 160 800 142 q 776 211 800 194 q 692 228 751 228 l 699 290 q 791 312 762 291 q 819 376 819 333 q 801 423 819 407 q 752 438 783 438 q 696 422 718 438 q 662 376 674 405 q 645 358 653 363 q 619 356 636 354 l 575 365 z "},"⅖":{"ha":962,"x_min":69,"x_max":892,"o":"m 247 37 q 216 8 231 15 q 180 0 200 0 l 131 0 l 772 952 q 803 983 786 972 q 843 994 821 994 l 892 994 l 247 37 m 403 568 q 424 561 417 568 q 429 541 431 553 l 423 489 l 69 489 l 74 518 q 79 536 75 526 q 92 553 83 546 l 266 706 q 306 744 288 725 q 339 784 325 764 q 361 824 353 803 q 369 865 369 844 q 350 913 369 896 q 302 929 331 929 q 247 912 269 929 q 212 865 224 894 q 194 848 203 852 q 167 845 185 843 l 121 853 q 192 963 140 926 q 315 1000 244 1000 q 419 965 382 1000 q 457 873 457 931 q 446 815 457 842 q 418 766 435 789 q 377 720 400 742 q 329 676 354 699 l 199 558 q 263 568 234 568 l 403 568 m 891 506 l 887 469 q 871 439 884 451 q 832 427 858 427 l 692 427 l 660 317 q 751 323 712 328 q 817 300 790 317 q 856 255 843 283 q 869 194 869 228 q 853 113 869 149 q 807 50 836 76 q 740 9 778 24 q 658 -6 702 -6 q 576 12 612 -6 q 517 53 540 29 l 548 90 q 559 100 553 97 q 572 103 565 103 q 588 97 580 103 q 608 85 597 92 q 634 72 619 78 q 672 67 649 67 q 714 74 694 67 q 749 95 734 81 q 772 131 764 110 q 781 178 781 151 q 771 219 781 202 q 741 245 761 236 q 691 253 721 253 q 619 240 660 252 l 569 255 l 642 506 l 891 506 z "},"+":{"ha":806,"x_min":71,"x_max":747,"o":"m 735 421 l 451 421 l 415 122 l 317 122 l 353 421 l 71 421 l 82 511 l 365 511 l 401 809 l 499 809 l 463 511 l 747 511 l 735 421 z "},"−":{"ha":806,"x_min":103,"x_max":710,"o":"m 114 511 l 710 511 l 699 421 l 103 421 l 114 511 z "},"×":{"ha":806,"x_min":66,"x_max":742,"o":"m 473 466 l 689 219 l 618 155 l 401 402 l 122 153 l 66 218 l 344 467 l 133 707 l 205 772 l 417 531 l 685 770 l 742 706 l 473 466 z "},"÷":{"ha":806,"x_min":69,"x_max":746,"o":"m 81 511 l 746 511 l 735 421 l 69 421 l 81 511 m 352 703 q 360 740 352 722 q 380 770 367 757 q 410 791 393 783 q 447 799 428 799 q 478 792 464 799 q 502 776 492 786 q 517 751 512 765 q 523 722 523 738 q 515 684 523 701 q 494 655 507 667 q 463 635 481 642 q 426 628 445 628 q 373 649 393 628 q 352 703 352 671 m 291 208 q 299 245 291 228 q 319 276 306 263 q 349 297 332 289 q 386 304 367 304 q 417 298 403 304 q 441 281 431 292 q 456 257 451 271 q 462 227 462 243 q 454 190 462 207 q 433 160 446 173 q 402 141 419 148 q 365 133 385 133 q 311 155 332 133 q 291 208 291 176 z "},"=":{"ha":806,"x_min":89,"x_max":724,"o":"m 100 398 l 695 398 l 684 307 l 89 307 l 100 398 m 129 629 l 724 629 l 713 538 l 118 538 l 129 629 z "},"≠":{"ha":806,"x_min":167,"x_max":648,"o":"m 561 798 l 648 798 l 253 132 l 167 132 l 561 798 z "},"≈":{"ha":806,"x_min":115,"x_max":699,"o":"m 565 594 q 604 598 585 594 q 640 610 624 603 q 670 625 657 617 q 691 642 683 634 l 699 567 q 630 517 671 533 q 547 501 589 501 q 476 513 510 501 q 409 539 442 525 q 344 565 376 553 q 281 576 313 576 q 241 572 260 576 q 204 559 221 567 q 175 543 188 552 q 155 526 162 534 l 143 599 q 213 651 172 634 q 300 668 254 668 q 371 657 336 668 q 438 631 406 645 q 502 605 471 617 q 565 594 534 594 m 537 360 q 576 364 556 360 q 612 376 595 369 q 642 392 628 383 q 662 408 655 400 l 669 332 q 601 284 642 299 q 518 268 560 268 q 448 280 482 268 q 380 305 413 291 q 315 330 347 319 q 252 342 283 342 q 211 337 231 342 q 175 325 192 333 q 145 309 158 318 q 126 292 133 301 l 115 365 q 184 417 143 400 q 271 434 225 434 q 342 423 308 434 q 410 397 377 411 q 475 371 443 383 q 537 360 506 360 z "},"<":{"ha":806,"x_min":116,"x_max":693,"o":"m 693 772 l 683 683 q 674 663 681 672 q 653 647 667 654 l 322 489 q 291 476 307 482 q 256 467 274 471 q 289 458 274 463 q 317 445 303 453 l 609 288 q 626 272 622 281 q 630 251 631 263 l 618 163 l 116 442 l 120 480 l 121 480 l 122 493 l 693 772 z "},">":{"ha":806,"x_min":122,"x_max":700,"o":"m 695 454 l 694 442 l 122 163 l 133 251 q 141 272 135 263 q 163 288 148 281 l 494 445 q 524 458 508 453 q 558 467 540 463 q 499 489 524 475 l 206 647 q 189 663 194 654 q 186 683 185 672 l 197 772 l 700 493 l 695 454 z "},"±":{"ha":806,"x_min":28,"x_max":756,"o":"m 38 147 l 703 147 l 692 56 l 28 56 l 38 147 m 756 569 l 744 478 l 460 478 l 428 222 l 331 222 l 363 478 l 81 478 l 91 569 l 374 569 l 406 833 l 503 833 l 471 569 l 756 569 z "},"≤":{"ha":806,"x_min":86,"x_max":716,"o":"m 716 811 l 706 726 q 697 706 704 715 q 671 688 690 696 l 346 544 q 313 533 330 538 q 276 524 295 528 q 341 503 314 516 l 630 358 q 652 340 647 350 q 656 319 657 331 l 645 235 l 140 498 l 142 511 l 144 524 l 145 537 l 147 549 l 716 811 m 98 149 l 635 149 l 623 56 l 86 56 l 98 149 z "},"≥":{"ha":806,"x_min":96,"x_max":694,"o":"m 692 537 l 688 498 l 118 235 l 128 319 q 137 340 130 331 q 164 358 144 350 l 488 503 q 558 524 519 516 q 492 544 521 532 l 204 688 q 182 706 187 696 q 178 726 177 715 l 189 811 l 694 549 l 692 537 m 108 149 l 644 149 l 633 56 l 96 56 l 108 149 z "},"¬":{"ha":806,"x_min":104,"x_max":710,"o":"m 699 421 l 674 221 l 573 221 l 598 421 l 104 421 l 115 511 l 710 511 l 699 421 z "},"℮":{"ha":1141,"x_min":81,"x_max":1092,"o":"m 927 605 q 904 732 927 674 q 838 834 881 791 q 733 901 794 877 q 597 926 672 926 q 460 900 522 926 q 354 830 399 875 q 285 725 310 785 q 260 592 260 664 l 260 583 l 927 583 l 927 605 m 260 417 q 285 289 260 351 q 358 178 310 226 q 475 101 406 131 q 631 72 544 72 q 824 114 740 72 q 971 240 908 155 l 1038 192 q 962 106 1005 144 q 866 42 919 68 q 747 1 813 15 q 604 -12 682 -12 q 387 27 484 -12 q 222 134 290 66 q 118 295 154 202 q 81 494 81 388 q 119 695 81 601 q 224 857 156 788 q 385 965 292 926 q 592 1004 479 1004 q 739 986 671 1004 q 861 935 806 968 q 958 856 916 902 q 1030 755 1001 810 q 1075 636 1059 699 q 1092 506 1090 573 l 260 506 l 260 417 z "},"ℓ":{"ha":710,"x_min":31,"x_max":706,"o":"m 526 912 q 443 879 485 912 q 366 790 402 847 q 303 658 331 734 q 264 494 276 582 q 401 559 339 524 q 507 636 463 595 q 577 723 552 677 q 601 816 601 768 q 581 887 601 863 q 526 912 561 912 m 31 428 q 88 440 60 433 q 143 454 116 447 q 170 597 151 528 q 216 728 189 667 q 279 841 244 790 q 356 929 314 892 q 445 986 398 966 q 544 1007 492 1007 q 616 992 585 1007 q 667 952 647 977 q 697 893 687 927 q 706 822 706 860 q 674 692 706 753 q 583 578 642 631 q 441 481 524 525 q 256 401 358 436 q 255 383 255 392 q 255 364 255 374 q 261 234 255 286 q 281 151 268 182 q 313 106 294 119 q 356 93 331 93 q 406 105 381 93 q 452 139 430 117 q 495 191 475 160 q 531 261 515 222 l 633 236 q 586 140 615 185 q 518 61 557 95 q 432 8 479 28 q 331 -11 384 -11 q 250 7 286 -11 q 189 68 214 26 q 150 178 164 110 q 137 344 137 246 l 137 366 q 92 355 115 360 q 46 344 69 349 l 31 428 z "},"∞":{"ha":947,"x_min":63,"x_max":880,"o":"m 775 410 q 774 469 779 444 q 756 510 768 494 q 724 535 743 526 q 684 543 706 543 q 641 533 661 543 q 601 504 620 522 q 562 461 581 485 q 524 410 543 438 q 550 359 537 383 q 578 317 563 335 q 611 288 593 299 q 651 278 628 278 q 694 286 674 278 q 731 311 715 294 q 759 352 748 327 q 775 410 771 377 m 258 278 q 302 288 281 278 q 342 317 322 299 q 380 359 361 335 q 417 410 399 383 q 392 461 405 438 q 365 504 380 485 q 331 533 349 522 q 290 543 313 543 q 248 535 268 543 q 210 510 227 526 q 182 469 194 494 q 167 410 171 444 q 168 352 163 377 q 186 311 174 327 q 218 286 199 294 q 258 278 236 278 m 701 644 q 776 627 741 644 q 834 580 810 610 q 869 506 858 549 q 874 410 880 463 q 845 315 867 358 q 792 241 824 272 q 722 193 761 210 q 643 176 683 176 q 580 188 608 176 q 531 219 553 199 q 492 265 509 239 q 460 319 474 290 q 415 265 438 290 q 364 219 391 239 q 306 188 337 199 q 240 176 276 176 q 166 193 200 176 q 108 241 132 210 q 74 315 85 272 q 69 410 63 358 q 97 506 75 463 q 150 580 119 549 q 219 627 181 610 q 298 644 258 644 q 361 633 333 644 q 411 602 389 622 q 450 556 433 582 q 482 502 467 531 q 527 556 503 531 q 578 602 551 582 q 635 633 605 622 q 701 644 665 644 z "},"∂":{"ha":746,"x_min":28,"x_max":726,"o":"m 283 88 q 363 107 324 88 q 437 165 402 126 q 501 263 472 204 q 553 401 531 322 q 542 461 551 432 q 518 512 534 490 q 476 548 501 534 q 414 561 451 561 q 319 540 362 561 q 244 480 276 518 q 192 391 213 442 q 165 278 172 339 q 165 198 159 233 q 186 138 171 163 q 226 101 202 114 q 283 88 251 88 m 278 928 q 331 962 306 947 q 384 986 357 976 q 440 1001 411 996 q 502 1006 469 1006 q 605 980 560 1006 q 677 906 649 954 q 716 787 706 857 q 715 628 726 717 q 659 370 697 488 q 564 169 622 253 q 429 38 506 85 q 257 -9 352 -9 q 157 11 201 -9 q 83 68 113 31 q 41 158 53 105 q 37 276 28 210 q 80 426 47 356 q 163 548 113 497 q 277 629 213 599 q 413 659 341 659 q 592 546 543 659 q 598 591 595 569 q 603 628 601 612 q 585 836 619 765 q 474 906 550 906 q 423 899 447 906 q 381 884 400 892 q 348 868 363 875 q 324 861 333 861 q 311 865 317 861 q 299 882 305 869 l 278 928 z "},"∫":{"ha":565,"x_min":-62,"x_max":633,"o":"m 271 863 q 302 985 279 934 q 359 1068 325 1035 q 439 1116 394 1101 q 535 1132 483 1132 q 585 1128 560 1132 q 633 1112 611 1124 l 625 1060 q 620 1047 623 1051 q 610 1040 617 1042 q 592 1038 603 1038 q 563 1037 581 1037 q 492 1027 522 1037 q 441 998 463 1018 q 408 945 420 978 q 390 867 395 913 l 299 26 q 267 -95 290 -44 q 210 -179 244 -146 q 132 -227 176 -212 q 35 -243 87 -243 q -16 -239 10 -243 q -62 -223 -42 -234 l -55 -170 q -50 -157 -53 -162 q -40 -151 -47 -153 q -22 -148 -33 -149 q 7 -148 -11 -148 q 77 -139 47 -148 q 129 -109 108 -129 q 163 -56 150 -88 q 181 22 175 -24 l 271 863 z "},"√":{"ha":867,"x_min":37,"x_max":951,"o":"m 951 1190 l 420 0 l 320 0 l 203 462 l 81 462 q 49 473 62 462 q 40 512 37 484 l 44 550 l 276 550 q 300 542 291 550 q 311 525 308 535 l 381 233 q 388 188 386 210 q 390 142 390 165 q 402 180 395 160 q 416 219 408 199 l 835 1164 q 851 1182 840 1175 q 874 1190 861 1190 l 951 1190 z "},"∏":{"ha":955,"x_min":95,"x_max":976,"o":"m 965 892 l 833 892 l 694 -239 l 572 -239 l 710 892 l 357 892 l 218 -239 l 95 -239 l 234 892 l 103 892 l 115 994 l 976 994 l 965 892 z "},"∑":{"ha":876,"x_min":-33,"x_max":886,"o":"m 874 889 l 294 889 l 594 397 l 590 360 l 169 -132 l 747 -132 l 735 -238 l -33 -238 l -28 -193 q -22 -173 -26 -183 q -10 -156 -17 -163 l 455 381 l 122 911 q 114 930 115 920 q 113 950 112 940 l 118 995 l 886 995 l 874 889 z "},"◊":{"ha":806,"x_min":97,"x_max":726,"o":"m 625 487 l 431 891 q 420 920 425 907 q 411 946 415 933 q 403 920 408 933 q 392 891 398 907 l 200 487 l 392 83 q 403 54 398 67 q 411 28 408 41 q 420 54 415 41 q 431 83 425 67 l 625 487 m 726 487 l 454 -83 l 368 -83 l 97 487 l 368 1057 l 454 1057 l 726 487 z "},"←":{"ha":1389,"x_min":75,"x_max":1307,"o":"m 75 446 l 471 842 l 513 799 q 524 770 527 785 q 509 744 521 756 l 310 546 q 250 492 277 513 q 323 499 285 497 q 403 502 362 502 l 1307 502 l 1307 389 l 403 389 q 323 392 362 389 q 250 399 285 394 q 310 346 276 379 l 510 146 q 526 119 523 133 q 515 92 528 106 l 472 47 l 75 446 z "},"→":{"ha":1389,"x_min":82,"x_max":1314,"o":"m 1314 445 l 918 49 l 876 93 q 865 121 862 107 q 880 147 868 135 l 1079 345 q 1110 375 1096 362 q 1139 399 1125 388 q 1066 392 1104 394 q 986 389 1027 389 l 82 389 l 82 502 l 986 502 q 1066 499 1027 502 q 1140 492 1105 497 q 1111 516 1126 503 q 1079 546 1096 529 l 878 745 q 863 772 866 758 q 874 799 860 785 l 917 844 l 1314 445 z "},"↑":{"ha":1042,"x_min":124,"x_max":917,"o":"m 917 679 l 874 636 q 846 625 860 622 q 819 641 832 628 l 621 839 q 567 899 588 872 q 574 825 572 864 q 577 746 577 787 l 577 -157 l 465 -157 l 465 746 q 467 825 465 787 q 475 899 470 864 q 451 870 464 885 q 422 839 438 856 l 222 640 q 195 624 209 627 q 167 635 181 621 l 124 678 l 522 1075 l 917 679 z "},"↓":{"ha":1042,"x_min":124,"x_max":919,"o":"m 919 160 l 520 -237 l 124 159 l 168 201 q 196 213 182 215 q 222 197 210 210 l 421 -1 q 474 -62 454 -35 q 467 12 470 -26 q 465 92 465 51 l 465 995 l 577 995 l 577 92 q 574 12 577 51 q 567 -62 572 -26 q 591 -33 577 -48 q 620 -1 604 -18 l 821 199 q 847 215 833 212 q 875 203 861 217 l 919 160 z "},"↗":{"ha":1042,"x_min":33,"x_max":944,"o":"m 944 903 l 944 342 l 883 343 q 856 355 863 343 q 848 385 848 367 l 848 665 q 852 745 848 710 q 806 688 831 717 q 751 630 781 659 l 113 -8 l 33 72 l 672 710 q 730 764 701 739 q 787 811 759 790 q 750 808 770 809 q 707 806 731 806 l 424 806 q 394 814 406 806 q 382 842 383 822 l 381 903 l 944 903 z "},"↖":{"ha":1042,"x_min":98,"x_max":1008,"o":"m 1008 72 l 929 -8 l 290 630 q 236 688 261 659 q 190 745 210 717 q 194 665 194 710 l 194 385 q 186 355 194 367 q 159 343 178 343 l 98 342 l 98 903 l 660 903 l 660 842 q 648 814 659 822 q 618 806 636 806 l 335 806 q 291 808 311 806 q 255 811 272 809 q 311 764 283 790 q 369 710 340 739 l 1008 72 z "},"↘":{"ha":1042,"x_min":33,"x_max":944,"o":"m 944 561 l 944 1 l 381 0 l 382 61 q 394 89 383 81 q 424 97 406 97 l 707 97 q 751 95 731 97 q 788 92 771 94 q 731 139 760 113 q 672 193 701 164 l 33 832 l 113 911 l 751 273 q 806 215 781 244 q 852 158 831 186 q 848 238 848 192 l 848 518 q 856 548 848 536 q 883 560 863 560 l 944 561 z "},"↙":{"ha":1042,"x_min":98,"x_max":1008,"o":"m 98 0 l 98 560 l 159 560 q 186 548 178 559 q 194 518 194 536 l 194 238 q 190 158 194 192 q 236 215 210 185 q 290 273 261 244 l 929 911 l 1008 831 l 369 193 q 311 138 340 164 q 254 91 282 113 q 291 94 272 93 q 335 96 311 96 l 618 96 q 648 89 636 97 q 660 61 659 81 l 660 -1 l 98 0 z "},"↔":{"ha":1389,"x_min":75,"x_max":1314,"o":"m 1314 445 l 918 49 l 876 93 q 865 121 862 107 q 880 147 868 135 l 1079 345 q 1110 375 1096 362 q 1139 399 1125 388 q 1066 392 1104 394 q 986 389 1027 389 l 263 389 q 310 346 284 371 l 510 146 q 526 119 523 133 q 515 92 528 106 l 472 47 l 75 446 l 471 842 l 513 799 q 524 770 527 785 q 509 744 521 756 l 310 546 q 285 522 297 533 q 263 502 274 512 l 986 502 q 1066 499 1027 502 q 1140 492 1105 497 q 1111 516 1126 503 q 1079 546 1096 529 l 878 745 q 863 772 866 758 q 874 799 860 785 l 917 844 l 1314 445 z "},"↕":{"ha":1042,"x_min":123,"x_max":919,"o":"m 521 -237 l 125 159 l 169 201 q 197 213 183 215 q 223 197 210 210 l 422 -1 q 444 -25 434 -14 q 465 -48 455 -37 l 465 746 q 467 825 465 787 q 474 899 470 864 q 451 870 464 885 q 422 839 438 856 l 221 640 q 194 624 208 626 q 167 635 181 621 l 123 677 l 522 1075 l 917 679 l 874 636 q 846 625 860 622 q 819 641 832 628 l 621 839 q 567 899 588 872 q 574 825 572 864 q 577 746 577 787 l 577 -50 q 621 -1 594 -28 l 822 199 q 848 215 833 212 q 876 203 862 217 l 919 160 l 521 -237 z "},"Ơ":{"ha":1090,"x_min":68,"x_max":1141,"o":"m 479 99 q 631 131 562 99 q 749 225 699 164 q 825 372 798 285 q 853 565 853 458 q 833 702 853 641 q 778 807 814 764 q 691 874 742 850 q 574 897 639 897 q 424 864 492 897 q 306 770 356 831 q 229 623 256 709 q 201 429 201 536 q 220 292 201 353 q 276 188 240 231 q 363 122 312 145 q 479 99 415 99 m 1138 1092 q 1140 1072 1140 1085 q 1141 1051 1141 1059 q 1127 958 1141 1001 q 1087 883 1113 916 q 1023 829 1060 851 q 936 797 985 807 q 973 690 960 747 q 986 568 986 633 q 947 335 986 441 q 838 152 908 228 q 673 32 768 75 q 465 -10 577 -10 q 300 22 373 -10 q 175 113 226 55 q 95 251 123 171 q 68 426 68 331 q 108 659 68 553 q 217 843 147 766 q 383 963 288 920 q 590 1006 478 1006 q 771 966 692 1006 q 901 855 850 926 q 947 867 926 858 q 982 889 967 876 q 1005 917 997 901 q 1013 951 1013 933 q 1010 971 1013 963 q 1003 987 1007 979 q 996 1003 999 994 q 993 1023 993 1011 q 1072 1092 993 1092 l 1138 1092 z "},"Ư":{"ha":1092,"x_min":94,"x_max":1166,"o":"m 1164 1092 q 1166 1072 1165 1085 q 1166 1051 1166 1059 q 1147 944 1166 992 q 1092 862 1128 896 q 1005 809 1056 828 q 888 790 953 790 l 839 389 q 794 230 828 303 q 705 103 759 157 q 579 19 651 49 q 422 -12 508 -12 q 273 19 338 -12 q 168 103 209 49 q 111 230 127 157 q 105 389 94 303 l 178 995 l 308 995 l 234 390 q 236 274 226 327 q 272 183 246 222 q 339 124 297 145 q 436 102 380 102 q 539 124 492 102 q 621 183 585 145 q 679 274 656 221 q 709 389 701 326 l 783 995 l 913 995 l 896 852 q 952 860 926 853 q 998 881 978 868 q 1027 913 1017 894 q 1038 951 1038 931 q 1035 971 1038 963 q 1028 987 1032 979 q 1022 1003 1025 994 q 1019 1023 1019 1011 q 1097 1092 1019 1092 l 1164 1092 z "},"ơ":{"ha":783,"x_min":41,"x_max":833,"o":"m 314 87 q 406 115 365 87 q 477 189 448 142 q 522 295 506 235 q 538 422 538 356 q 500 568 538 519 q 390 617 462 617 q 297 590 338 617 q 226 516 256 563 q 181 410 197 470 q 165 283 165 349 q 203 136 165 186 q 314 87 241 87 m 831 810 q 832 791 832 802 q 833 772 833 779 q 784 618 833 678 q 645 540 736 557 q 658 484 653 513 q 663 422 663 455 q 635 256 663 334 q 559 118 607 177 q 444 25 510 59 q 303 -10 378 -10 q 197 10 245 -10 q 115 67 149 30 q 60 159 80 105 q 41 283 41 213 q 69 450 41 372 q 145 588 97 528 q 259 681 193 647 q 401 715 324 715 q 532 683 474 715 q 623 591 589 651 q 692 625 667 599 q 718 683 718 650 q 715 700 718 692 q 708 714 712 707 q 700 729 703 721 q 697 749 697 737 q 715 794 697 778 q 769 810 732 810 l 831 810 z "},"ư":{"ha":837,"x_min":58,"x_max":892,"o":"m 889 810 q 891 791 890 802 q 892 772 892 779 q 876 677 892 720 q 831 604 860 635 q 757 555 801 573 q 657 534 713 537 l 592 0 l 531 0 q 486 44 486 0 l 497 173 q 371 36 441 83 q 228 -10 301 -10 q 149 8 183 -10 q 94 60 115 26 q 65 143 73 94 q 66 256 58 192 l 119 703 l 242 703 l 189 256 q 199 133 179 174 q 274 93 219 93 q 340 110 306 93 q 405 160 374 128 q 464 237 436 192 q 510 338 491 283 l 554 703 l 677 703 l 663 588 q 745 620 715 594 q 776 683 776 647 q 773 700 776 692 q 766 714 770 707 q 759 729 762 721 q 756 749 756 737 q 773 794 756 778 q 828 810 791 810 l 889 810 z "},"₫":{"ha":794,"x_min":3,"x_max":789,"o":"m 13 -93 l 647 -93 l 637 -170 l 3 -170 l 13 -93 m 535 538 q 472 589 508 574 q 398 603 435 603 q 299 573 343 603 q 225 493 256 542 q 177 383 194 444 q 160 259 160 321 q 190 133 160 176 q 274 90 219 90 q 341 110 307 90 q 407 167 375 131 q 466 255 438 204 q 513 365 493 305 l 535 538 m 781 794 l 688 794 l 590 0 l 526 0 q 493 13 501 0 q 485 43 485 25 l 498 191 q 440 108 472 145 q 375 45 409 72 q 303 5 340 19 q 228 -10 266 -10 q 88 56 138 -10 q 38 247 38 122 q 49 359 38 303 q 83 466 61 415 q 136 559 105 516 q 205 633 167 601 q 287 682 242 664 q 380 699 331 699 q 474 680 431 699 q 545 623 516 660 l 567 794 l 460 794 q 425 806 434 794 q 420 839 417 817 l 426 871 l 576 871 l 595 1023 l 716 1023 l 697 871 l 789 871 l 781 794 z "},"○":{"ha":921,"x_min":83,"x_max":844,"o":"m 83 452 q 113 600 83 531 q 195 721 143 669 q 316 803 247 773 q 464 833 385 833 q 612 803 542 833 q 733 721 681 773 q 815 600 785 669 q 844 452 844 531 q 815 304 844 374 q 733 183 785 235 q 612 101 681 131 q 464 72 542 72 q 316 101 385 72 q 195 183 247 131 q 113 304 143 235 q 83 452 83 374 m 193 452 q 214 347 193 396 q 272 260 235 297 q 358 202 309 224 q 464 181 408 181 q 570 202 520 181 q 656 260 619 224 q 714 346 693 297 q 735 451 735 395 q 714 557 735 508 q 656 644 693 607 q 570 702 619 681 q 464 723 520 723 q 358 702 408 723 q 272 644 309 681 q 214 558 235 607 q 193 452 193 508 z "},"◌":{"ha":921,"x_min":90,"x_max":840,"o":"m 425 786 q 437 815 425 803 q 465 826 449 826 q 493 815 481 826 q 505 786 505 803 q 493 758 505 769 q 465 746 481 746 q 437 758 449 746 q 425 786 425 769 m 552 761 q 564 789 552 777 q 592 801 576 801 q 620 789 608 801 q 632 761 632 777 q 620 732 632 744 q 592 720 608 720 q 564 732 576 720 q 552 761 552 744 m 660 690 q 672 717 660 706 q 701 729 684 729 q 729 717 717 729 q 741 690 741 706 q 729 661 741 673 q 701 649 717 649 q 672 661 684 649 q 660 690 660 673 m 731 581 q 743 610 731 598 q 771 622 754 622 q 799 610 788 622 q 811 581 811 598 q 799 553 811 565 q 771 541 788 541 q 743 553 754 541 q 731 581 731 565 m 760 452 q 772 480 760 468 q 800 492 783 492 q 828 480 817 492 q 840 452 840 468 q 828 423 840 435 q 800 411 817 411 q 772 423 783 411 q 760 452 760 435 m 295 761 q 307 789 295 777 q 335 801 319 801 q 364 789 351 801 q 376 761 376 777 q 364 732 376 744 q 335 720 351 720 q 307 732 319 720 q 295 761 295 744 m 188 690 q 199 717 188 706 q 227 729 211 729 q 256 717 244 729 q 267 690 267 706 q 256 661 267 673 q 227 649 244 649 q 199 661 211 649 q 188 690 188 673 m 116 581 q 128 610 116 598 q 156 622 140 622 q 184 610 172 622 q 196 581 196 598 q 184 553 196 565 q 156 541 172 541 q 128 553 140 541 q 116 581 116 565 m 90 452 q 102 480 90 468 q 131 492 114 492 q 159 480 147 492 q 171 452 171 468 q 159 423 171 435 q 131 411 147 411 q 102 423 114 411 q 90 452 90 435 m 731 325 q 743 353 731 341 q 771 365 754 365 q 799 353 788 365 q 811 325 811 341 q 799 297 811 308 q 771 285 788 285 q 743 297 754 285 q 731 325 731 308 m 116 325 q 128 353 116 341 q 156 365 140 365 q 184 353 172 365 q 196 325 196 341 q 184 297 196 308 q 156 285 172 285 q 128 297 140 285 q 116 325 116 308 m 660 216 q 672 244 660 233 q 701 256 684 256 q 729 244 717 256 q 741 216 741 233 q 729 188 741 200 q 701 176 717 176 q 672 188 684 176 q 660 216 660 200 m 188 216 q 199 244 188 233 q 227 256 211 256 q 256 244 244 256 q 267 216 267 233 q 256 188 267 200 q 227 176 244 176 q 199 188 211 176 q 188 216 188 200 m 552 146 q 564 174 552 163 q 592 186 576 186 q 620 174 608 186 q 632 146 632 163 q 620 117 632 129 q 592 106 608 106 q 564 117 576 106 q 552 146 552 129 m 295 146 q 307 174 295 163 q 335 186 319 186 q 364 174 351 186 q 376 146 376 163 q 364 117 376 129 q 335 106 351 106 q 307 117 319 106 q 295 146 295 129 m 425 117 q 437 145 425 133 q 465 157 449 157 q 493 145 481 157 q 505 117 505 133 q 493 88 505 100 q 465 76 481 76 q 437 88 449 76 q 425 117 425 100 z "},"͏":{"ha":0,"x_min":0,"x_max":0,"o":""},"᷂":{"ha":0,"x_min":-115,"x_max":60,"o":"m -115 -61 q -106 -52 -115 -57 q -85 -43 -97 -47 q -59 -35 -72 -38 q -38 -32 -47 -32 q -25 -34 -31 -32 q -14 -41 -20 -37 q -1 -49 -8 -44 q 18 -58 6 -54 q 48 -76 37 -65 q 60 -103 60 -87 q 45 -136 60 -124 q 13 -156 31 -149 q -19 -169 -5 -164 q -34 -180 -34 -174 q -25 -188 -34 -184 q -5 -198 -15 -192 q 16 -213 6 -203 q 25 -237 25 -222 q 14 -267 25 -257 q -11 -284 2 -278 q -36 -297 -25 -291 q -48 -313 -48 -303 q -42 -326 -48 -321 q -26 -335 -35 -332 q -26 -336 -26 -336 q -26 -337 -26 -336 l -26 -337 q -29 -344 -26 -344 q -65 -330 -51 -341 q -79 -302 -79 -318 q -69 -277 -79 -287 q -47 -261 -59 -267 q -25 -251 -35 -255 q -15 -242 -15 -247 q -26 -234 -15 -237 q -51 -224 -37 -230 q -76 -208 -65 -217 q -87 -183 -87 -199 q -73 -151 -87 -163 q -42 -131 -59 -139 q -11 -117 -25 -123 q 3 -106 3 -112 q -16 -94 3 -94 q -27 -95 -23 -94 q -34 -99 -31 -97 q -40 -102 -37 -101 q -51 -103 -44 -103 q -72 -98 -60 -102 q -92 -87 -83 -94 q -108 -74 -102 -81 q -115 -61 -115 -67 z "},"Ɓ":{"ha":1028,"x_min":71,"x_max":973,"o":"m 597 103 q 694 117 653 103 q 764 159 736 132 q 806 224 792 186 q 819 310 819 263 q 775 416 819 376 q 640 455 731 455 l 446 455 l 403 103 l 597 103 m 499 892 l 457 547 l 617 547 q 716 562 674 547 q 785 603 758 576 q 827 667 813 630 q 841 749 841 704 q 798 857 841 822 q 665 892 756 892 l 499 892 m 677 994 q 811 979 755 994 q 903 934 867 963 q 956 864 939 906 q 973 772 973 823 q 960 688 973 728 q 922 614 947 647 q 857 553 896 580 q 767 511 819 527 q 902 441 857 492 q 947 313 947 391 q 923 186 947 244 q 851 87 898 128 q 738 23 805 46 q 587 0 671 0 l 260 0 l 370 899 l 353 899 q 274 888 306 899 q 220 856 241 876 q 191 807 200 835 q 182 743 182 778 q 183 720 182 732 q 185 700 184 708 q 182 675 187 687 q 158 658 178 663 l 82 641 q 74 687 76 663 q 71 731 71 710 q 91 840 71 791 q 148 923 110 889 q 241 976 186 958 q 365 994 296 994 l 677 994 z "},"Ƅ":{"ha":876,"x_min":79,"x_max":828,"o":"m 465 103 q 574 126 529 103 q 646 184 618 149 q 687 263 674 219 q 699 349 699 307 q 689 414 699 383 q 656 470 678 446 q 599 510 634 495 q 516 524 565 524 l 319 524 l 274 153 l 268 103 l 465 103 m 523 628 q 658 606 601 628 q 753 547 715 584 q 809 459 791 509 q 828 355 828 410 q 803 216 828 281 q 731 103 778 151 q 613 28 683 56 q 454 0 544 0 l 126 0 l 206 662 l 79 754 l 282 994 l 377 994 l 333 628 l 523 628 z "},"Ɔ":{"ha":868,"x_min":1,"x_max":817,"o":"m 78 203 q 90 200 85 203 q 100 192 95 197 q 142 151 121 169 q 190 123 164 134 q 247 106 215 112 q 319 101 278 101 q 459 132 392 101 q 575 223 525 164 q 655 369 626 283 q 685 564 685 455 q 665 701 685 640 q 610 805 646 762 q 525 870 575 847 q 413 893 475 893 q 314 879 355 893 q 243 849 272 865 q 196 819 215 833 q 166 805 178 805 q 150 809 156 805 q 141 820 144 814 l 106 880 q 249 972 169 938 q 426 1006 328 1006 q 589 973 516 1006 q 712 883 661 941 q 790 745 763 825 q 817 569 817 665 q 800 409 817 485 q 752 268 783 333 q 675 152 720 203 q 574 64 630 100 q 452 8 518 28 q 313 -11 386 -11 q 209 -1 256 -11 q 124 28 163 9 q 55 75 85 48 q 1 138 24 103 l 58 194 q 78 203 68 203 z "},"Ƈ":{"ha":873,"x_min":68,"x_max":1124,"o":"m 788 959 q 803 1054 791 1008 q 840 1134 815 1099 q 905 1190 865 1169 q 1003 1210 945 1210 q 1068 1204 1040 1210 q 1124 1186 1095 1198 l 1099 1119 q 1080 1097 1092 1100 q 1056 1097 1068 1094 q 1030 1103 1044 1101 q 1003 1106 1017 1106 q 927 1066 954 1106 q 891 956 899 1027 l 882 875 l 838 821 q 825 809 832 814 q 808 805 818 805 q 781 819 795 805 q 743 849 767 833 q 682 879 719 865 q 583 893 644 893 q 432 861 502 893 q 311 768 363 828 q 230 623 260 708 q 201 431 201 538 q 221 293 201 354 q 277 189 241 232 q 362 124 313 147 q 470 101 411 101 q 551 108 516 101 q 614 127 587 116 q 660 152 641 138 q 693 176 679 165 q 717 195 708 188 q 735 203 727 203 q 745 200 741 203 q 752 194 749 198 l 797 138 q 647 28 732 67 q 449 -11 562 -11 q 289 21 359 -11 q 169 110 218 53 q 94 247 120 167 q 68 421 68 326 q 108 658 68 551 q 219 843 149 765 q 383 963 289 920 q 587 1006 478 1006 q 694 993 644 1006 q 788 954 745 979 l 788 959 z "},"Ɗ":{"ha":1174,"x_min":71,"x_max":1123,"o":"m 617 105 q 768 136 699 105 q 886 227 837 168 q 963 372 935 287 q 990 565 990 458 q 970 700 990 640 q 916 802 951 760 q 828 867 880 844 q 713 890 777 890 l 500 890 l 403 105 l 617 105 m 726 994 q 891 963 817 994 q 1016 876 965 932 q 1095 741 1068 819 q 1123 568 1123 663 q 1084 336 1123 441 q 975 157 1044 231 q 811 41 906 82 q 603 0 716 0 l 260 0 l 370 899 l 353 899 q 274 888 306 899 q 220 856 241 876 q 191 807 200 835 q 182 743 182 778 q 183 720 182 732 q 185 700 184 708 q 182 675 187 687 q 158 658 178 663 l 82 641 q 74 687 76 663 q 71 731 71 710 q 91 840 71 791 q 148 923 110 889 q 241 976 186 958 q 365 994 296 994 l 726 994 z "},"Ƌ":{"ha":801,"x_min":36,"x_max":752,"o":"m 513 103 l 557 462 l 382 462 q 217 410 270 462 q 163 255 163 358 q 173 193 163 222 q 205 145 183 165 q 259 114 226 125 q 339 103 292 103 l 513 103 m 752 994 l 630 0 l 326 0 q 201 18 256 0 q 110 70 147 37 q 55 151 74 103 q 36 257 36 199 q 57 381 36 324 q 122 478 78 438 q 234 542 166 519 q 394 565 301 565 l 569 565 l 610 892 l 144 892 l 156 994 l 752 994 z "},"Ǝ":{"ha":744,"x_min":6,"x_max":694,"o":"m 573 0 l 6 0 l 18 106 l 455 106 l 497 451 l 145 451 l 158 553 l 510 553 l 551 889 l 115 889 l 128 994 l 694 994 l 573 0 z "},"Ə":{"ha":933,"x_min":53,"x_max":881,"o":"m 181 406 q 185 280 173 336 q 225 183 197 223 q 299 121 254 143 q 401 99 344 99 q 520 121 466 99 q 616 182 574 142 q 687 279 658 222 q 731 406 716 335 l 181 406 m 125 857 q 209 925 165 897 q 302 972 254 953 q 400 1000 350 991 q 501 1008 450 1008 q 655 979 585 1008 q 775 893 725 949 q 853 754 826 836 q 881 568 881 672 q 846 338 881 444 q 746 155 810 232 q 590 34 681 78 q 389 -10 499 -10 q 251 16 313 -10 q 145 89 190 41 q 77 206 101 137 q 53 363 53 275 q 57 434 53 408 q 68 474 61 460 q 86 492 76 488 q 110 497 97 497 l 744 497 q 747 529 746 513 q 747 563 747 545 q 729 704 747 642 q 676 808 710 766 q 590 872 641 850 q 474 894 539 894 q 367 878 413 894 q 287 843 321 863 q 229 809 253 824 q 188 793 205 793 q 158 808 167 793 l 125 857 z "},"Ɛ":{"ha":768,"x_min":49,"x_max":769,"o":"m 694 140 q 621 73 661 101 q 536 26 581 44 q 442 -1 491 8 q 343 -10 394 -10 q 230 7 283 -10 q 137 59 177 25 q 73 142 97 92 q 49 253 49 191 q 65 348 49 303 q 109 431 81 393 q 178 497 138 468 q 268 542 219 525 q 202 574 229 555 q 158 616 175 592 q 133 666 141 640 q 126 719 126 692 q 151 828 126 776 q 225 920 177 881 q 341 982 273 959 q 492 1006 408 1006 q 583 998 542 1006 q 657 976 624 990 q 719 942 691 962 q 769 897 747 922 l 733 847 q 714 828 723 832 q 698 824 705 824 q 672 836 686 824 q 633 861 657 847 q 570 886 608 874 q 476 897 533 897 q 381 883 422 897 q 315 843 341 868 q 275 786 288 819 q 262 718 262 753 q 275 660 262 685 q 313 618 289 635 q 372 593 338 601 q 450 584 407 584 l 600 584 l 588 490 l 428 490 q 322 471 367 490 q 246 423 276 453 q 200 355 215 393 q 184 276 184 317 q 198 207 184 239 q 237 151 211 175 q 302 114 263 127 q 390 100 340 100 q 477 112 440 100 q 541 139 514 124 q 585 170 568 155 q 613 194 603 186 q 636 204 625 204 q 654 196 647 204 l 694 140 z "},"Ƒ":{"ha":736,"x_min":-165,"x_max":756,"o":"m 307 889 l 264 536 l 636 536 l 623 430 l 251 430 l 206 62 l 206 62 l 199 1 q 174 -102 192 -55 q 126 -182 156 -149 q 55 -235 96 -216 q -39 -253 14 -253 q -109 -247 -81 -253 q -165 -229 -137 -241 l -140 -162 q -120 -140 -133 -143 q -97 -140 -108 -137 q -71 -147 -85 -144 q -44 -149 -58 -149 q 32 -110 5 -149 q 68 1 59 -71 l 72 37 l 190 994 l 756 994 l 744 889 l 307 889 z "},"Ɠ":{"ha":949,"x_min":68,"x_max":1158,"o":"m 916 881 l 872 822 q 848 805 862 808 q 818 810 833 801 q 784 834 803 819 q 740 861 766 848 q 677 884 713 874 q 588 893 640 893 q 432 860 503 893 q 309 768 360 828 q 230 622 258 708 q 201 431 201 537 q 222 290 201 353 q 280 184 242 228 q 370 117 317 140 q 488 94 423 94 q 555 98 524 94 q 613 109 585 101 q 666 127 640 117 q 716 151 691 138 l 744 377 l 606 377 q 586 384 592 377 q 581 403 579 392 l 590 476 l 874 476 l 827 97 q 750 50 790 70 q 666 16 710 30 q 573 -4 622 3 q 466 -11 523 -11 q 302 21 376 -11 q 177 111 229 53 q 97 250 125 169 q 68 426 68 330 q 107 661 68 555 q 218 844 147 768 q 388 963 289 921 q 606 1006 487 1006 q 725 993 672 1006 q 820 958 778 981 l 820 958 q 835 1053 823 1008 q 874 1134 848 1099 q 940 1190 899 1169 q 1038 1210 980 1210 q 1103 1204 1076 1210 q 1158 1186 1130 1197 l 1133 1119 q 1114 1097 1126 1100 q 1090 1097 1102 1094 q 1065 1103 1078 1101 q 1037 1106 1051 1106 q 961 1066 989 1106 q 925 956 934 1027 l 916 881 z "},"Ɣ":{"ha":871,"x_min":33,"x_max":954,"o":"m 547 99 q 536 108 541 103 q 528 119 532 113 l 417 330 q 386 283 404 303 l 265 115 q 256 107 261 110 q 245 99 251 103 l 547 99 m 508 403 l 728 0 l 33 0 l 357 410 l 52 994 l 178 994 q 198 989 192 994 q 210 974 204 984 l 451 494 l 797 974 q 829 994 812 994 l 954 994 l 508 403 z "},"Ɩ":{"ha":415,"x_min":83,"x_max":356,"o":"m 185 995 l 316 995 l 220 209 q 231 120 213 149 q 300 91 250 91 l 356 91 l 351 48 q 339 22 349 32 q 315 4 330 11 q 280 -6 300 -3 q 238 -8 260 -8 q 164 7 195 -8 q 115 50 133 22 q 89 117 96 78 q 88 202 83 156 l 185 995 z "},"Ƙ":{"ha":888,"x_min":67,"x_max":942,"o":"m 265 558 l 311 558 q 353 564 335 558 q 387 592 370 569 l 597 879 q 702 975 644 947 q 835 1003 760 1003 q 898 998 873 1003 q 942 983 923 992 l 922 917 q 903 895 915 898 q 878 894 891 892 q 856 900 869 898 q 828 903 842 903 q 762 886 792 903 q 708 838 732 869 l 517 576 q 485 543 501 556 q 450 522 468 529 q 484 503 469 515 q 512 469 499 490 l 806 0 l 692 0 q 657 7 667 0 q 638 28 646 14 l 384 422 q 358 449 373 440 q 314 458 344 458 l 253 458 l 197 0 l 67 0 l 190 995 l 319 995 l 265 558 z "},"Ɯ":{"ha":1390,"x_min":83,"x_max":1340,"o":"m 1340 994 l 1219 2 l 1152 2 q 1114 37 1117 2 l 1126 221 q 1002 46 1072 103 q 852 -10 932 -10 q 772 7 807 -10 q 711 54 737 24 q 670 126 686 84 q 645 217 653 167 q 586 118 619 161 q 514 47 552 76 q 433 4 475 19 q 349 -10 391 -10 q 143 93 203 -10 q 106 394 83 197 l 180 994 l 310 994 l 236 394 q 234 257 228 315 q 261 163 241 199 q 312 108 281 126 q 386 90 344 90 q 467 115 428 90 q 539 184 507 140 q 593 290 571 228 q 624 426 615 352 l 694 994 l 826 994 l 755 426 q 750 280 747 343 q 768 175 753 217 q 814 111 784 133 q 890 90 844 90 q 1027 175 963 90 q 1140 430 1092 260 l 1210 994 l 1340 994 z "},"Ɲ":{"ha":986,"x_min":-167,"x_max":937,"o":"m 937 994 l 815 0 l 749 0 q 724 6 733 0 q 706 24 715 11 l 276 779 q 274 748 275 763 q 271 718 272 732 l 187 41 l 188 41 l 180 -20 q 156 -123 173 -76 q 112 -204 140 -170 q 45 -256 84 -237 q -47 -274 6 -274 q -111 -268 -84 -274 q -167 -250 -139 -262 l -142 -183 q -123 -161 -135 -165 q -99 -162 -110 -158 q -73 -168 -87 -165 q -46 -170 -60 -170 q 30 -131 2 -170 q 66 -20 57 -92 l 70 17 l 70 18 l 73 41 l 190 994 l 257 994 q 282 990 274 994 q 299 972 290 986 l 731 216 q 735 281 733 252 l 823 994 l 937 994 z "},"Ɵ":{"ha":1035,"x_min":68,"x_max":986,"o":"m 202 458 q 201 444 201 451 q 201 429 201 437 q 220 292 201 353 q 276 188 240 231 q 363 122 312 145 q 479 99 415 99 q 612 124 551 99 q 721 195 674 149 q 801 308 769 241 q 845 458 833 374 l 202 458 m 853 565 q 833 702 853 641 q 778 807 814 764 q 691 874 742 850 q 574 897 639 897 q 446 874 506 897 q 339 806 386 850 q 260 699 292 762 q 213 556 227 635 l 853 556 l 853 565 m 590 1006 q 755 973 682 1006 q 880 882 828 940 q 959 743 931 824 q 986 568 986 663 q 947 335 986 441 q 838 152 908 228 q 673 32 768 75 q 465 -10 577 -10 q 300 22 373 -10 q 175 113 226 55 q 95 251 123 171 q 68 426 68 331 q 108 659 68 553 q 217 843 147 766 q 383 963 288 920 q 590 1006 478 1006 z "},"Ƣ":{"ha":1293,"x_min":69,"x_max":1227,"o":"m 447 99 q 584 133 522 99 q 693 227 647 166 q 764 376 738 289 q 790 572 790 463 q 773 705 790 645 q 724 808 756 765 q 647 874 692 851 q 545 897 602 897 q 408 863 471 897 q 300 767 345 829 q 228 618 254 706 q 203 423 203 531 q 220 289 203 349 q 268 187 237 229 q 345 122 300 144 q 447 99 390 99 m 1090 760 q 1090 815 1093 790 q 1077 858 1088 840 q 1049 887 1067 876 q 1005 898 1031 898 q 934 879 969 898 q 865 828 898 860 q 908 713 894 776 q 923 576 923 649 q 887 340 923 448 q 787 155 851 233 q 632 34 722 77 q 434 -10 542 -10 q 280 22 347 -10 q 165 111 212 54 q 94 246 119 167 q 69 418 69 324 q 86 580 69 503 q 132 722 102 657 q 206 840 163 788 q 304 929 249 892 q 422 986 358 966 q 558 1006 486 1006 q 706 976 641 1006 q 818 895 772 947 q 924 974 868 944 q 1045 1004 980 1004 q 1132 987 1096 1004 q 1190 938 1168 969 q 1219 861 1212 906 q 1220 760 1227 816 l 1097 -243 l 966 -243 l 1090 760 z "},"Ƥ":{"ha":974,"x_min":71,"x_max":965,"o":"m 593 477 q 697 495 651 477 q 773 545 742 513 q 819 623 803 578 q 835 720 835 667 q 788 846 835 800 q 644 892 740 892 l 499 892 l 449 477 l 593 477 m 656 994 q 794 976 735 994 q 890 923 852 957 q 947 840 928 888 q 965 732 965 791 q 940 588 965 653 q 865 475 914 522 q 744 401 816 428 q 580 374 672 374 l 436 374 l 390 0 l 260 0 l 370 899 l 353 899 q 274 888 306 899 q 220 856 241 876 q 191 807 200 835 q 182 743 182 778 q 183 720 182 732 q 185 700 184 708 q 182 675 187 687 q 158 658 178 663 l 82 641 q 74 687 76 663 q 71 731 71 710 q 91 840 71 791 q 148 923 110 889 q 241 976 186 958 q 365 994 296 994 l 656 994 z "}}}
